SplineFontDB: 2.0
FontName: THKoHo
FullName: THKoHo
FamilyName: TH KoHo
Weight: Book
Copyright: Copyright (c) 2006 by Department of Intellectual Property (DIP), Ministry of Commerce and Software Industry Promotion Agency (Public Organization) (SIPA). All rights reserved.
Version: 1.1
ItalicAngle: 0
UnderlinePosition: -35
UnderlineWidth: 30
Ascent: 800
Descent: 200
Order2: 1
XUID: [1021 375 425136265 478119]
FSType: 0
OS2Version: 3
OS2_WeightWidthSlopeOnly: 0
OS2_UseTypoMetrics: 1
CreationTime: 1158666720
ModificationTime: 1196261053
PfmFamily: 17
TTFWeight: 400
TTFWidth: 5
LineGap: 30
VLineGap: 0
Panose: 2 0 5 6 0 0 0 2 0 4
OS2TypoAscent: 0
OS2TypoAOffset: 1
OS2TypoDescent: 0
OS2TypoDOffset: 1
OS2TypoLinegap: 0
OS2WinAscent: -43
OS2WinAOffset: 1
OS2WinDescent: -196
OS2WinDOffset: 1
HheadAscent: -43
HheadAOffset: 1
HheadDescent: 196
HheadDOffset: 1
OS2SubXSize: 700
OS2SubYSize: 650
OS2SubXOff: 0
OS2SubYOff: 140
OS2SupXSize: 700
OS2SupYSize: 650
OS2SupXOff: 0
OS2SupYOff: 477
OS2StrikeYSize: 30
OS2StrikeYPos: 250
OS2FamilyClass: 773
OS2Vendor: 'IPTH'
Lookup: 4 0 0 "'frac' Diagonal Fractions in Latin lookup 0"  {"'frac' Diagonal Fractions in Latin lookup 0 subtable"  } ['frac' ('latn' <'dflt' > ) ]
Lookup: 6 0 0 "'liga' Standard Ligatures in Latin lookup 1"  {"'liga' Standard Ligatures in Latin lookup 1 subtable"  } ['liga' ('latn' <'dflt' > ) ]
Lookup: 6 0 0 "'liga' Standard Ligatures in Latin lookup 2"  {"'liga' Standard Ligatures in Latin lookup 2 subtable"  } ['liga' ('latn' <'dflt' > ) ]
Lookup: 6 0 0 "'liga' Standard Ligatures in Latin lookup 3"  {"'liga' Standard Ligatures in Latin lookup 3 subtable"  } ['liga' ('latn' <'dflt' > ) ]
Lookup: 6 0 0 "'liga' Standard Ligatures in Latin lookup 4"  {"'liga' Standard Ligatures in Latin lookup 4 subtable"  } ['liga' ('latn' <'dflt' > ) ]
Lookup: 6 0 0 "'liga' Standard Ligatures in Latin lookup 5"  {"'liga' Standard Ligatures in Latin lookup 5 subtable"  } ['liga' ('latn' <'dflt' > ) ]

StartChar: .notdef
Encoding: 65536 -1 0
Width: 733
VWidth: 1467
Flags: W
HStem: 0 51<142 590> 968 52<142 590>
VStem: 92 50<51 968> 590 50<51 968>
Fore
590 51 m 1,0,-1
 590 968 l 1,1,-1
 142 968 l 1,2,-1
 142 51 l 1,3,-1
 590 51 l 1,0,-1
640 0 m 1,4,-1
 92 0 l 1,5,-1
 92 1020 l 1,6,-1
 640 1020 l 1,7,-1
 640 0 l 1,4,-1
EndSplineSet
EndChar
StartChar: numbersign
Encoding: 35 35 4
Width: 528
VWidth: 1467
Flags: W
HStem: 0 21G<123 162.374 295 335.5> 219 30<41 150 192 323 364 465> 427 32<62 176 217 349 390 486>
VStem: 41 445<219 459 50.2477 162.592>
Fore
384 427 m 1,0,1
 380 386 380 386 374 339 c 128,-1,2
 368 292 368 292 364 249 c 1,3,-1
 465 249 l 1,4,-1
 465 219 l 1,5,-1
 359 219 l 1,6,7
 352 163 352 163 345.5 109.5 c 128,-1,8
 339 56 339 56 332 0 c 1,9,-1
 295 0 l 1,10,-1
 323 219 l 1,11,-1
 186 219 l 1,12,-1
 160 0 l 1,13,-1
 123 0 l 1,14,-1
 150 219 l 1,15,-1
 41 219 l 1,16,-1
 41 249 l 1,17,-1
 156 249 l 1,18,19
 160 292 160 292 166 339 c 128,-1,20
 172 386 172 386 176 427 c 1,21,-1
 62 427 l 1,22,-1
 62 459 l 1,23,-1
 182 459 l 1,24,25
 189 511 189 511 195.5 572.5 c 128,-1,26
 202 634 202 634 210 685 c 1,27,-1
 244 685 l 1,28,-1
 217 459 l 1,29,-1
 355 459 l 1,30,31
 362 511 362 511 368 572.5 c 128,-1,32
 374 634 374 634 380 685 c 1,33,-1
 417 685 l 1,34,-1
 390 459 l 1,35,-1
 486 459 l 1,36,-1
 486 427 l 1,37,-1
 384 427 l 1,0,1
211 427 m 1,38,39
 208 386 208 386 202.5 339 c 128,-1,40
 197 292 197 292 192 249 c 1,41,-1
 329 249 l 1,42,43
 333 292 333 292 339 339 c 128,-1,44
 345 386 345 386 349 427 c 1,45,-1
 211 427 l 1,38,39
EndSplineSet
EndChar
StartChar: dollar
Encoding: 36 36 5
Width: 669
VWidth: 1467
Flags: W
HStem: -26 35<285.659 323 368 437.452> 690 30<237.828 323 370 433.484>
VStem: 94 48<455.238 566.099> 323 47<-139 -26 9 330 379 688 720 828> 519 47<571 602.187> 552 44<131.58 185 185 247.216>
Fore
596 185 m 0,0,1
 599 134 599 134 580.5 95.5 c 128,-1,2
 562 57 562 57 529.5 31.5 c 128,-1,3
 497 6 497 6 454.5 -8 c 128,-1,4
 412 -22 412 -22 368 -26 c 1,5,-1
 368 -139 l 1,6,-1
 323 -139 l 1,7,-1
 323 -26 l 1,8,9
 283 -25 283 -25 242.5 -16 c 128,-1,10
 202 -7 202 -7 167 11 c 128,-1,11
 132 29 132 29 107 59 c 128,-1,12
 82 89 82 89 73 132 c 1,13,-1
 122 132 l 1,14,15
 131 100 131 100 151.5 77 c 128,-1,16
 172 54 172 54 199.5 39.5 c 128,-1,17
 227 25 227 25 259.5 17.5 c 128,-1,18
 292 10 292 10 323 9 c 1,19,-1
 323 339 l 1,20,21
 280 346 280 346 240.5 355.5 c 128,-1,22
 201 365 201 365 169.5 383.5 c 128,-1,23
 138 402 138 402 117.5 433.5 c 128,-1,24
 97 465 97 465 94 515 c 256,25,26
 91 565 91 565 110 603 c 128,-1,27
 129 641 129 641 161.5 666 c 128,-1,28
 194 691 194 691 236.5 705 c 128,-1,29
 279 719 279 719 323 720 c 1,30,-1
 323 828 l 1,31,-1
 370 828 l 1,32,-1
 370 719 l 1,33,34
 402 716 402 716 434.5 705.5 c 128,-1,35
 467 695 467 695 493 677.5 c 128,-1,36
 519 660 519 660 539 633 c 128,-1,37
 559 606 559 606 566 571 c 1,38,-1
 519 571 l 1,39,40
 505 626 505 626 463 653.5 c 128,-1,41
 421 681 421 681 370 688 c 1,42,-1
 370 371 l 1,43,44
 411 364 411 364 450.5 353.5 c 128,-1,45
 490 343 490 343 521.5 323.5 c 128,-1,46
 553 304 553 304 573 271 c 128,-1,47
 593 238 593 238 596 185 c 0,0,1
142 515 m 0,48,49
 144 478 144 478 159.5 454.5 c 128,-1,50
 175 431 175 431 199 416.5 c 128,-1,51
 223 402 223 402 255.5 393 c 128,-1,52
 288 384 288 384 323 379 c 1,53,-1
 323 690 l 1,54,55
 246 687 246 687 192.5 643 c 128,-1,56
 139 599 139 599 142 515 c 0,48,49
368 9 m 1,57,58
 405 13 405 13 438.5 26.5 c 128,-1,59
 472 40 472 40 498 62 c 128,-1,60
 524 84 524 84 538.5 114.5 c 128,-1,61
 553 145 553 145 552 185 c 0,62,63
 549 223 549 223 533.5 248 c 128,-1,64
 518 273 518 273 493 289 c 128,-1,65
 468 305 468 305 436.5 314 c 128,-1,66
 405 323 405 323 370 330 c 1,67,-1
 368 9 l 1,57,58
EndSplineSet
EndChar
StartChar: percent
Encoding: 37 37 6
Width: 852
VWidth: 1467
Flags: W
HStem: 1 21G<188 249.938> 305 40<168.625 233.067> 384 41<600.881 687.546> 690 20G<193 224.5 601.062 663>
VStem: 57 52<463.141 545.074> 310 51<462.117 538.125> 494 55<151.399 265.912> 745 53<175.454 258.186>
Fore
361 508 m 0,0,1
 361 465 361 465 350 429 c 128,-1,2
 339 393 339 393 318.5 365 c 128,-1,3
 298 337 298 337 270 321 c 128,-1,4
 242 305 242 305 207 305 c 0,5,6
 176 305 176 305 148 321 c 128,-1,7
 120 337 120 337 99.5 365 c 128,-1,8
 79 393 79 393 68 430 c 128,-1,9
 57 467 57 467 57 508 c 256,10,11
 57 549 57 549 69 586.5 c 128,-1,12
 81 624 81 624 101.5 651.5 c 128,-1,13
 122 679 122 679 150 694.5 c 128,-1,14
 178 710 178 710 208 710 c 0,15,16
 241 710 241 710 268.5 694.5 c 128,-1,17
 296 679 296 679 316.5 651.5 c 128,-1,18
 337 624 337 624 349 586.5 c 128,-1,19
 361 549 361 549 361 508 c 0,0,1
109 511 m 0,20,21
 106 481 106 481 113 452 c 128,-1,22
 120 423 120 423 134 399.5 c 128,-1,23
 148 376 148 376 168 361 c 128,-1,24
 188 346 188 346 208 345 c 0,25,26
 230 343 230 343 249 357 c 128,-1,27
 268 371 268 371 282 394.5 c 128,-1,28
 296 418 296 418 303.5 448 c 128,-1,29
 311 478 311 478 310 509 c 0,30,31
 308 538 308 538 300 567.5 c 128,-1,32
 292 597 292 597 278 620.5 c 128,-1,33
 264 644 264 644 245.5 657.5 c 128,-1,34
 227 671 227 671 205 669 c 0,35,36
 183 666 183 666 165.5 650 c 128,-1,37
 148 634 148 634 135.5 610.5 c 128,-1,38
 123 587 123 587 116 560.5 c 128,-1,39
 109 534 109 534 109 511 c 0,20,21
646 425 m 0,40,41
 678 425 678 425 706 410 c 128,-1,42
 734 395 734 395 754.5 367 c 128,-1,43
 775 339 775 339 786.5 301.5 c 128,-1,44
 798 264 798 264 798 223 c 0,45,46
 798 180 798 180 788 143.5 c 128,-1,47
 778 107 778 107 758 79 c 128,-1,48
 738 51 738 51 709.5 35 c 128,-1,49
 681 19 681 19 644 21 c 0,50,51
 613 21 613 21 585.5 37 c 128,-1,52
 558 53 558 53 537 81 c 128,-1,53
 516 109 516 109 505 145.5 c 128,-1,54
 494 182 494 182 494 223 c 256,55,56
 494 264 494 264 506 301.5 c 128,-1,57
 518 339 518 339 538.5 367 c 128,-1,58
 559 395 559 395 587 410 c 128,-1,59
 615 425 615 425 646 425 c 0,40,41
646 60 m 0,60,61
 672 60 672 60 691 75.5 c 128,-1,62
 710 91 710 91 722.5 114.5 c 128,-1,63
 735 138 735 138 741 167.5 c 128,-1,64
 747 197 747 197 745 224 c 0,65,66
 744 254 744 254 736 282.5 c 128,-1,67
 728 311 728 311 714.5 334 c 128,-1,68
 701 357 701 357 683 370.5 c 128,-1,69
 665 384 665 384 643 384 c 0,70,71
 622 384 622 384 604.5 369.5 c 128,-1,72
 587 355 587 355 574.5 332.5 c 128,-1,73
 562 310 562 310 555.5 282 c 128,-1,74
 549 254 549 254 549 226 c 0,75,76
 550 161 550 161 576.5 112 c 128,-1,77
 603 63 603 63 646 60 c 0,60,61
663 713 m 1,78,-1
 238 1 l 1,79,-1
 188 1 l 1,80,-1
 613 713 l 1,81,-1
 663 713 l 1,78,-1
EndSplineSet
EndChar
StartChar: ampersand
Encoding: 38 38 7
Width: 642
VWidth: 1467
Flags: W
HStem: -13 44<191.195 361.236> 685 38<236.242 330.336>
VStem: 31 47<121.591 263.938> 116 45<476.188 585.346> 390 46<518.41 622.122> 560 49<229.077 376>
Fore
560 0 m 1,0,1
 531 26 531 26 516.5 44 c 128,-1,2
 502 62 502 62 481 81 c 1,3,4
 420 29 420 29 362 8 c 128,-1,5
 304 -13 304 -13 242 -13 c 0,6,7
 198 -13 198 -13 160 2.5 c 128,-1,8
 122 18 122 18 93.5 45 c 128,-1,9
 65 72 65 72 48 108.5 c 128,-1,10
 31 145 31 145 31 188 c 0,11,12
 31 267 31 267 75 316 c 128,-1,13
 119 365 119 365 179 395 c 1,14,15
 116 478 116 478 116 550 c 0,16,17
 116 582 116 582 127 614 c 128,-1,18
 138 646 138 646 160 670 c 128,-1,19
 182 694 182 694 214 708.5 c 128,-1,20
 246 723 246 723 289 723 c 0,21,22
 355 723 355 723 395.5 683.5 c 128,-1,23
 436 644 436 644 436 580 c 0,24,25
 436 519 436 519 386.5 469.5 c 128,-1,26
 337 420 337 420 254 381 c 1,27,28
 320 310 320 310 380 246.5 c 128,-1,29
 440 183 440 183 478 150 c 1,30,31
 503 183 503 183 523.5 231.5 c 128,-1,32
 544 280 544 280 560 376 c 1,33,-1
 609 376 l 1,34,35
 574 188 574 188 509 114 c 1,36,37
 540 84 540 84 570 53.5 c 128,-1,38
 600 23 600 23 625 0 c 1,39,-1
 560 0 l 1,0,1
390 574 m 0,40,41
 390 593 390 593 383.5 612.5 c 128,-1,42
 377 632 377 632 364 648.5 c 128,-1,43
 351 665 351 665 330.5 675 c 128,-1,44
 310 685 310 685 283 685 c 256,45,46
 257 685 257 685 234 673.5 c 128,-1,47
 211 662 211 662 195 643.5 c 128,-1,48
 179 625 179 625 170 602.5 c 128,-1,49
 161 580 161 580 161 556 c 0,50,51
 161 512 161 512 182.5 476 c 128,-1,52
 204 440 204 440 224 412 c 1,53,54
 257 428 257 428 287 445 c 128,-1,55
 317 462 317 462 340.5 482 c 128,-1,56
 364 502 364 502 377 524.5 c 128,-1,57
 390 547 390 547 390 574 c 0,40,41
255 31 m 0,58,59
 317 31 317 31 367 55 c 128,-1,60
 417 79 417 79 450 113 c 1,61,62
 439 125 439 125 414 149 c 128,-1,63
 389 173 389 173 356 206 c 128,-1,64
 323 239 323 239 284.5 279.5 c 128,-1,65
 246 320 246 320 208 364 c 1,66,67
 191 355 191 355 168 340.5 c 128,-1,68
 145 326 145 326 125.5 305.5 c 128,-1,69
 106 285 106 285 92 257.5 c 128,-1,70
 78 230 78 230 78 195 c 0,71,72
 78 158 78 158 92.5 128 c 128,-1,73
 107 98 107 98 131.5 76 c 128,-1,74
 156 54 156 54 188 42.5 c 128,-1,75
 220 31 220 31 255 31 c 0,58,59
EndSplineSet
EndChar
StartChar: quotesingle
Encoding: 39 39 8
Width: 190
VWidth: 1467
Flags: W
HStem: 496 236<75 114>
VStem: 75 39<498.31 524.375>
Fore
114 496 m 1,0,-1
 75 496 l 1,1,-1
 60 732 l 1,2,-1
 128 732 l 1,3,-1
 114 496 l 1,0,-1
EndSplineSet
EndChar
StartChar: parenleft
Encoding: 40 40 9
Width: 284
VWidth: 1467
Flags: W
VStem: 81 41<237.958 501.031>
Fore
244 -85 m 1,0,1
 213 -51 213 -51 183.5 -8.5 c 128,-1,2
 154 34 154 34 131.5 87.5 c 128,-1,3
 109 141 109 141 95 204.5 c 128,-1,4
 81 268 81 268 81 343 c 0,5,6
 81 423 81 423 95 486.5 c 128,-1,7
 109 550 109 550 131.5 603 c 128,-1,8
 154 656 154 656 182.5 699 c 128,-1,9
 211 742 211 742 242 781 c 1,10,-1
 286 781 l 1,11,12
 210 694 210 694 166 590 c 128,-1,13
 122 486 122 486 122 343 c 0,14,15
 122 273 122 273 133.5 213 c 128,-1,16
 145 153 145 153 167 101.5 c 128,-1,17
 189 50 189 50 219 3.5 c 128,-1,18
 249 -43 249 -43 285 -85 c 1,19,-1
 244 -85 l 1,0,1
EndSplineSet
EndChar
StartChar: parenright
Encoding: 41 41 10
Width: 284
VWidth: 1467
Flags: W
VStem: 163 41<212.698 483.044>
Fore
204 348 m 256,0,1
 204 270 204 270 190 205.5 c 128,-1,2
 176 141 176 141 152.5 88 c 128,-1,3
 129 35 129 35 100.5 -7.5 c 128,-1,4
 72 -50 72 -50 41 -85 c 1,5,-1
 0 -85 l 1,6,7
 35 -41 35 -41 64.5 5 c 128,-1,8
 94 51 94 51 116 103.5 c 128,-1,9
 138 156 138 156 150.5 216 c 128,-1,10
 163 276 163 276 163 348 c 256,11,12
 163 420 163 420 150.5 480 c 128,-1,13
 138 540 138 540 116.5 592 c 128,-1,14
 95 644 95 644 65 690.5 c 128,-1,15
 35 737 35 737 0 781 c 1,16,-1
 41 781 l 1,17,18
 72 747 72 747 100.5 703.5 c 128,-1,19
 129 660 129 660 152.5 607.5 c 128,-1,20
 176 555 176 555 190 490 c 128,-1,21
 204 425 204 425 204 348 c 256,0,1
EndSplineSet
EndChar
StartChar: asterisk
Encoding: 42 42 11
Width: 422
VWidth: 1467
Flags: W
HStem: 359 382<157 268 268 268> 567 20<18 160 257 408>
VStem: 18 390<522 577 512 587 512 512>
Fore
408 587 m 1,0,-1
 408 512 l 1,1,-1
 260 522 l 1,2,-1
 345 409 l 1,3,-1
 282 368 l 1,4,-1
 214 493 l 1,5,-1
 157 359 l 1,6,-1
 89 393 l 1,7,-1
 169 522 l 1,8,-1
 18 512 l 1,9,-1
 18 587 l 1,10,-1
 160 578 l 1,11,-1
 72 697 l 1,12,-1
 135 737 l 1,13,-1
 208 602 l 1,14,-1
 268 741 l 1,15,-1
 335 706 l 1,16,-1
 257 577 l 1,17,-1
 408 587 l 1,0,-1
EndSplineSet
EndChar
StartChar: plus
Encoding: 43 43 12
Width: 629
VWidth: 1467
Flags: W
HStem: 332 48<41 288 339 585>
VStem: 288 51<73 332 380 635>
Fore
339 332 m 1,0,-1
 339 73 l 1,1,-1
 288 73 l 1,2,-1
 288 332 l 1,3,-1
 41 332 l 1,4,-1
 41 380 l 1,5,-1
 288 380 l 1,6,-1
 288 635 l 1,7,-1
 339 635 l 1,8,-1
 339 380 l 1,9,-1
 585 380 l 1,10,-1
 585 332 l 1,11,-1
 339 332 l 1,0,-1
EndSplineSet
EndChar
StartChar: comma
Encoding: 44 44 13
Width: 184
VWidth: 1467
Flags: W
HStem: -109 194.5<73 98.5 98.5 98.5>
VStem: 110 43<-46.3062 -4>
Fore
129 82 m 0,0,1
 139 75 139 75 146 64.5 c 128,-1,2
 153 54 153 54 153 40 c 0,3,4
 153 -16 153 -16 126.5 -53.5 c 128,-1,5
 100 -91 100 -91 73 -109 c 1,6,-1
 40 -109 l 1,7,8
 65 -91 65 -91 85.5 -64 c 128,-1,9
 106 -37 106 -37 110 -4 c 1,10,11
 76 -21 76 -21 56 -3 c 0,12,13
 44 9 44 9 47 30 c 128,-1,14
 50 51 50 51 66 67 c 0,15,16
 81 82 81 82 98.5 85.5 c 128,-1,17
 116 89 116 89 129 82 c 0,0,1
EndSplineSet
EndChar
StartChar: hyphen
Encoding: 45 45 14
Width: 316
VWidth: 1467
Flags: W
HStem: 273 51<29 286 29 286 29 29>
Fore
29 273 m 1,0,-1
 29 324 l 1,1,-1
 286 324 l 1,2,-1
 286 273 l 1,3,-1
 29 273 l 1,0,-1
EndSplineSet
EndChar
StartChar: period
Encoding: 46 46 15
Width: 193
VWidth: 1467
Flags: W
HStem: -15 115<69.892 129.108>
VStem: 57 85<17.5896 83.467>
Fore
100 100 m 1,0,1
 117 101 117 101 129.5 84 c 128,-1,2
 142 67 142 67 142 43 c 128,-1,3
 142 19 142 19 129.5 2 c 128,-1,4
 117 -15 117 -15 100 -15 c 0,5,6
 81 -15 81 -15 68.5 2 c 128,-1,7
 56 19 56 19 57 43 c 0,8,9
 57 67 57 67 69.5 84 c 128,-1,10
 82 101 82 101 100 100 c 1,0,1
EndSplineSet
EndChar
StartChar: slash
Encoding: 47 47 16
Width: 394
VWidth: 1467
Flags: W
HStem: 703 20G<344.209 399>
VStem: -21 420<-43 723 -43 -43>
Fore
26 -43 m 1,0,-1
 -21 -43 l 1,1,-1
 354 723 l 1,2,-1
 399 723 l 1,3,-1
 26 -43 l 1,0,-1
EndSplineSet
EndChar
StartChar: zero
Encoding: 48 48 17
Width: 698
VWidth: 1467
Flags: W
HStem: -3 29<269.287 398.539> 690 29<269.55 398.419>
VStem: 104 39<191.501 289 289 336.819 336.819 352.185 352.185 427.237> 558 40.5<259.678 353.846 353.846 412.533>
Fore
533 628 m 0,0,1
 562 585 562 585 577.5 534 c 128,-1,2
 593 483 593 483 597 408 c 0,3,4
 600 349 600 349 598.5 300 c 128,-1,5
 597 251 597 251 585 204 c 0,6,7
 572 148 572 148 546.5 108.5 c 128,-1,8
 521 69 521 69 489.5 43.5 c 128,-1,9
 458 18 458 18 423.5 7 c 128,-1,10
 389 -4 389 -4 361 -3 c 0,11,12
 311 -1 311 -1 266.5 18.5 c 128,-1,13
 222 38 222 38 186.5 75 c 128,-1,14
 151 112 151 112 129 165.5 c 128,-1,15
 107 219 107 219 104 289 c 0,16,17
 101 358 101 358 105 415 c 128,-1,18
 109 472 109 472 122 519 c 0,19,20
 150 616 150 616 205 665 c 0,21,22
 230 687 230 687 264 702 c 128,-1,23
 298 717 298 717 346 719 c 0,24,25
 420 717 420 717 461 696.5 c 128,-1,26
 502 676 502 676 533 628 c 0,0,1
553 245 m 0,27,28
 558 288 558 288 558 327.5 c 128,-1,29
 558 367 558 367 555 414 c 0,30,31
 550 492 550 492 528 556 c 0,32,33
 515 588 515 588 499.5 614 c 128,-1,34
 484 640 484 640 463 657.5 c 128,-1,35
 442 675 442 675 414 683 c 128,-1,36
 386 691 386 691 348 690 c 0,37,38
 302 690 302 690 268.5 670 c 128,-1,39
 235 650 235 650 210.5 617.5 c 128,-1,40
 186 585 186 585 171.5 545 c 128,-1,41
 157 505 157 505 151 464 c 0,42,43
 145 424 145 424 143 381.5 c 128,-1,44
 141 339 141 339 144 292 c 0,45,46
 147 238 147 238 160 190 c 128,-1,47
 173 142 173 142 199.5 106 c 128,-1,48
 226 70 226 70 266.5 49 c 128,-1,49
 307 28 307 28 362 26 c 0,50,51
 405 25 405 25 438.5 45.5 c 128,-1,52
 472 66 472 66 496.5 98.5 c 128,-1,53
 521 131 521 131 535 169.5 c 128,-1,54
 549 208 549 208 553 245 c 0,27,28
EndSplineSet
EndChar
StartChar: one
Encoding: 49 49 18
Width: 698
VWidth: 1467
Flags: W
HStem: 0 21G<335 384>
VStem: 335 49<0 654>
Fore
336 654 m 1,0,-1
 271 616 l 1,1,-1
 271 654 l 1,2,-1
 346 697 l 1,3,-1
 384 697 l 1,4,-1
 384 0 l 1,5,-1
 335 0 l 1,6,-1
 336 654 l 1,0,-1
EndSplineSet
EndChar
StartChar: two
Encoding: 50 50 19
Width: 698
VWidth: 1467
Flags: W
HStem: -1 34<156 192.55 192.55 260.573 260.573 373.458 373.458 509.189 509.189 563> 679 34<271.947 410.166 385.304 435.028>
VStem: 541 40<530.078 612.312>
Fore
112 35 m 1,0,1
 132 57 132 57 166 90 c 128,-1,2
 200 123 200 123 246 167 c 0,3,4
 293 214 293 214 333 252.5 c 128,-1,5
 373 291 373 291 403 324 c 0,6,7
 436 358 436 358 458.5 392.5 c 128,-1,8
 481 427 481 427 505 458 c 0,9,10
 525 490 525 490 533 516.5 c 128,-1,11
 541 543 541 543 541 565 c 0,12,13
 541 600 541 600 524 626 c 0,14,15
 514 641 514 641 502 651.5 c 128,-1,16
 490 662 490 662 468 671 c 0,17,18
 446 678 446 678 416.5 678.5 c 128,-1,19
 387 679 387 679 354 679 c 0,20,21
 308 679 308 679 251 646 c 128,-1,22
 194 613 194 613 142 572 c 1,23,-1
 142 615 l 1,24,25
 208 668 208 668 260.5 690.5 c 128,-1,26
 313 713 313 713 359 713 c 128,-1,27
 405 713 405 713 436 709.5 c 128,-1,28
 467 706 467 706 493 693 c 0,29,30
 519 681 519 681 535.5 665.5 c 128,-1,31
 552 650 552 650 562 634 c 0,32,33
 574 618 574 618 577.5 600 c 128,-1,34
 581 582 581 582 581 566 c 0,35,36
 581 544 581 544 576.5 520 c 128,-1,37
 572 496 572 496 555 467 c 0,38,39
 538 439 538 439 516 406 c 128,-1,40
 494 373 494 373 468 343 c 0,41,42
 439 311 439 311 408 278 c 128,-1,43
 377 245 377 245 339 207 c 0,44,45
 301 170 301 170 256 126 c 128,-1,46
 211 82 211 82 156 29 c 1,47,48
 202 29 202 29 228.5 28.5 c 128,-1,49
 255 28 255 28 293 31 c 0,50,51
 380 34 380 34 453.5 33 c 128,-1,52
 527 32 527 32 565 34 c 1,53,-1
 563 -1 l 1,54,-1
 110 -1 l 1,55,-1
 112 35 l 1,0,1
EndSplineSet
EndChar
StartChar: three
Encoding: 51 51 20
Width: 698
VWidth: 1467
Flags: W
HStem: -4 30.5<248.658 294.181 294.181 294.881 294.881 358.312> 349 34<235 251.123 251.123 265.657 266.343 294.031 294.031 302 387 402.318> 673 30<275.133 390.266>
VStem: 514 45<506.414 612.173> 537 45<133.066 285.632>
Fore
235 384 m 1,0,1
 255 383 255 383 267 383 c 128,-1,2
 279 383 279 383 285 383 c 0,3,4
 364 384 364 384 418 412 c 0,5,6
 471 437 471 437 493 475 c 0,7,8
 505 494 505 494 510 505 c 128,-1,9
 515 516 515 516 514 537 c 0,10,11
 512 615 512 615 456 644 c 0,12,13
 403 676 403 676 314 673 c 0,14,15
 267 671 267 671 233.5 662 c 128,-1,16
 200 653 200 653 158 640 c 1,17,-1
 161 676 l 1,18,19
 213 687 213 687 244.5 694 c 128,-1,20
 276 701 276 701 308 703 c 0,21,22
 389 706 389 706 442 688 c 0,23,24
 470 678 470 678 492 664.5 c 128,-1,25
 514 651 514 651 528 635 c 0,26,27
 558 597 558 597 559 556 c 0,28,29
 562 474 562 474 518.5 433.5 c 128,-1,30
 475 393 475 393 387 376 c 1,31,-1
 387 373 l 1,32,33
 475 374 475 374 527 335 c 0,34,35
 580 293 580 293 582 214 c 0,36,37
 582 166 582 166 566 132 c 0,38,39
 547 92 547 92 512 63 c 0,40,41
 494 50 494 50 471.5 37.5 c 128,-1,42
 449 25 449 25 421 15 c 0,43,44
 392 6 392 6 369 2.5 c 128,-1,45
 346 -1 346 -1 311 -4 c 0,46,47
 299 -4 299 -4 278.5 -2 c 128,-1,48
 258 0 258 0 234 3.5 c 128,-1,49
 210 7 210 7 186.5 12.5 c 128,-1,50
 163 18 163 18 148 25 c 1,51,-1
 142 59 l 1,52,53
 167 50 167 50 187.5 43.5 c 128,-1,54
 208 37 208 37 228.5 32.5 c 128,-1,55
 249 28 249 28 270.5 26.5 c 128,-1,56
 292 25 292 25 318 26 c 0,57,58
 349 26 349 26 369 32 c 128,-1,59
 389 38 389 38 417 48 c 0,60,61
 472 70 472 70 506 112 c 0,62,63
 540 147 540 147 537 205 c 0,64,65
 534 296 534 296 472 324 c 0,66,67
 409 357 409 357 302 354 c 1,68,69
 295 352 295 352 286 352 c 128,-1,70
 277 352 277 352 266 351 c 0,71,72
 255 349 255 349 247 349 c 128,-1,73
 239 349 239 349 235 349 c 1,74,-1
 235 384 l 1,0,1
EndSplineSet
EndChar
StartChar: four
Encoding: 52 52 21
Width: 698
VWidth: 1467
Flags: W
HStem: 1 21G<449 496> 197 30<163 447 494 585> 683 20G<396.5 496>
VStem: 126 459<197 227> 449 45<3 34.4846 34.4846 95.8192 95.8192 197 227 280.362 280.362 392.727 392.727 506.454 506.454 509.546 509.546 617.942 617.942 622.833 622.833 668>
Fore
585 197 m 1,0,-1
 494 197 l 1,1,2
 494 191 494 191 494 172 c 128,-1,3
 494 153 494 153 494 125.5 c 128,-1,4
 494 98 494 98 495 66 c 128,-1,5
 496 34 496 34 496 3 c 1,6,-1
 449 1 l 1,7,8
 449 57 449 57 449 85 c 128,-1,9
 449 113 449 113 449 130 c 128,-1,10
 449 147 449 147 449 159.5 c 128,-1,11
 449 172 449 172 449 197 c 1,12,-1
 126 197 l 1,13,-1
 126 236 l 1,14,15
 207 359 207 359 286 479.5 c 128,-1,16
 365 600 365 600 428 703 c 1,17,-1
 496 703 l 1,18,19
 496 646 496 646 495 575.5 c 128,-1,20
 494 505 494 505 494 437.5 c 128,-1,21
 494 370 494 370 494 313.5 c 128,-1,22
 494 257 494 257 494 227 c 1,23,-1
 585 227 l 1,24,-1
 585 197 l 1,0,-1
447 227 m 1,25,26
 446 276 446 276 446.5 334 c 128,-1,27
 447 392 447 392 448 451.5 c 128,-1,28
 449 511 449 511 449.5 567.5 c 128,-1,29
 450 624 450 624 449 668 c 1,30,-1
 163 227 l 1,31,-1
 447 227 l 1,25,26
EndSplineSet
EndChar
StartChar: five
Encoding: 53 53 22
Width: 698
VWidth: 1467
Flags: W
HStem: -9 31<177.186 373.555> 374 31<252.109 456.606> 666 37<325.309 581> 675 28<227 483.246>
VStem: 120 471<45 230 92.8301 172.067> 547 44<138.449 300.766>
Fore
581 703 m 1,0,-1
 581 666 l 1,1,2
 459 675 459 675 321 675 c 2,3,-1
 227 675 l 1,4,-1
 194 393 l 1,5,6
 241 399 241 399 275.5 402 c 128,-1,7
 310 405 310 405 335 405 c 0,8,9
 468 405 468 405 530 357 c 256,10,11
 591 308 591 308 591 230 c 0,12,13
 591 157 591 157 549 103 c 0,14,15
 506 45 506 45 434 19 c 0,16,17
 398 3 398 3 359 -3 c 128,-1,18
 320 -9 320 -9 277 -9 c 0,19,20
 208 -9 208 -9 128 9 c 1,21,-1
 120 45 l 1,22,23
 164 34 164 34 204 28 c 128,-1,24
 244 22 244 22 282 22 c 0,25,26
 393 22 393 22 471 78 c 0,27,28
 547 132 547 132 547 230 c 0,29,30
 547 296 547 296 490 336 c 0,31,32
 431 374 431 374 315 374 c 0,33,34
 229 374 229 374 148 361 c 1,35,-1
 186 703 l 1,36,-1
 581 703 l 1,0,-1
EndSplineSet
EndChar
StartChar: six
Encoding: 54 54 23
Width: 698
VWidth: 1467
Flags: W
HStem: -4 29<248.141 423.756> 374 37<270.017 418.755> 689 20G<355.5 434>
VStem: 107 46<114.924 243.439> 559 43<151.137 278.742>
Fore
580 311 m 0,0,1
 590 289 590 289 596 265 c 128,-1,2
 602 241 602 241 602 214 c 0,3,4
 602 183 602 183 593.5 157 c 128,-1,5
 585 131 585 131 572 106 c 0,6,7
 543 53 543 53 487 25 c 0,8,9
 433 -4 433 -4 358 -4 c 0,10,11
 293 -4 293 -4 241 13 c 0,12,13
 182 34 182 34 145 76 c 0,14,15
 107 123 107 123 107 197 c 0,16,17
 107 219 107 219 109.5 242.5 c 128,-1,18
 112 266 112 266 119 291 c 0,19,20
 131 337 131 337 161 401 c 0,21,22
 175 430 175 430 195.5 463.5 c 128,-1,23
 216 497 216 497 244 536 c 0,24,25
 268 574 268 574 301.5 617 c 128,-1,26
 335 660 335 660 376 709 c 1,27,-1
 434 709 l 1,28,29
 298 563 298 563 226 430 c 0,30,31
 216 412 216 412 207 394.5 c 128,-1,32
 198 377 198 377 191 361 c 1,33,34
 220 379 220 379 268.5 395.5 c 128,-1,35
 317 412 317 412 373 411 c 0,36,37
 411 411 411 411 447.5 402 c 128,-1,38
 484 393 484 393 509 380 c 0,39,40
 555 358 555 358 580 311 c 0,0,1
536 123 m 0,41,42
 559 170 559 170 559 220 c 0,43,44
 559 289 559 289 515 333 c 0,45,46
 494 357 494 357 458.5 366.5 c 128,-1,47
 423 376 423 376 376 374 c 0,48,49
 324 373 324 373 265.5 351.5 c 128,-1,50
 207 330 207 330 166 289 c 1,51,52
 153 242 153 242 153 202 c 0,53,54
 153 148 153 148 179 107 c 0,55,56
 205 67 205 67 249 45 c 0,57,58
 293 25 293 25 348 25 c 0,59,60
 383 25 383 25 412.5 32.5 c 128,-1,61
 442 40 442 40 465 51 c 0,62,63
 489 66 489 66 506.5 83.5 c 128,-1,64
 524 101 524 101 536 123 c 0,41,42
EndSplineSet
EndChar
StartChar: seven
Encoding: 55 55 24
Width: 698
VWidth: 1467
Flags: W
HStem: -1 21G<189 256> 666 35<141 243.973 243.973 415.245 415.245 538>
Fore
538 671 m 1,0,1
 442 671 442 671 346.5 667 c 128,-1,2
 251 663 251 663 141 666 c 1,3,-1
 141 701 l 1,4,-1
 577 701 l 1,5,-1
 575 662 l 1,6,7
 534 582 534 582 490 498.5 c 128,-1,8
 446 415 446 415 402.5 330.5 c 128,-1,9
 359 246 359 246 316.5 162 c 128,-1,10
 274 78 274 78 238 -1 c 1,11,-1
 189 -1 l 1,12,13
 270 154 270 154 358 320 c 128,-1,14
 446 486 446 486 538 671 c 1,0,1
EndSplineSet
EndChar
StartChar: eight
Encoding: 56 56 25
Width: 698
VWidth: 1467
Flags: W
HStem: -1 27<291.865 356.938 356.938 391.389> 348 31<303.094 410.692> 690 29<259.282 407.09>
VStem: 563 44<158.794 201 201 268.607>
Fore
607 201 m 256,0,1
 610 141 610 141 581 94 c 0,2,3
 560 69 560 69 541 55 c 128,-1,4
 522 41 522 41 493 26 c 0,5,6
 464 15 464 15 430 7 c 128,-1,7
 396 -1 396 -1 357 -1 c 0,8,9
 355 -1 355 -1 354 -3 c 1,10,11
 314 -3 314 -3 280 2 c 128,-1,12
 246 7 246 7 217 19 c 256,13,14
 188 31 188 31 167.5 46.5 c 128,-1,15
 147 62 147 62 131 82 c 0,16,17
 101 123 101 123 98 175 c 0,18,19
 89 324 89 324 260 364 c 1,20,21
 226 371 226 371 202.5 386 c 128,-1,22
 179 401 179 401 158 421 c 0,23,24
 126 459 126 459 122 516 c 0,25,26
 120 562 120 562 138 599.5 c 128,-1,27
 156 637 156 637 186.5 664 c 128,-1,28
 217 691 217 691 258 705 c 128,-1,29
 299 719 299 719 343 719 c 2,30,-1
 357 719 l 2,31,32
 395 720 395 720 433.5 710 c 128,-1,33
 472 700 472 700 504 678.5 c 128,-1,34
 536 657 536 657 556.5 625.5 c 128,-1,35
 577 594 577 594 580 553 c 0,36,37
 582 480 582 480 550 439.5 c 128,-1,38
 518 399 518 399 450 367 c 1,39,40
 525 351 525 351 564.5 306 c 128,-1,41
 604 261 604 261 607 201 c 256,0,1
219 414 m 0,42,43
 266 376 266 376 343 379 c 2,44,-1
 349 379 l 2,45,46
 406 381 406 381 447 399 c 0,47,48
 490 423 490 423 515 460 c 128,-1,49
 540 497 540 497 537 547 c 0,50,51
 530 619 530 619 478.5 656 c 128,-1,52
 427 693 427 693 351 690 c 2,53,-1
 343 690 l 2,54,55
 266 685 266 685 215 642 c 128,-1,56
 164 599 164 599 169 516 c 0,57,58
 170 453 170 453 219 414 c 0,42,43
541 117 m 0,59,60
 553 138 553 138 559 157 c 128,-1,61
 565 176 565 176 563 201 c 0,62,63
 560 241 560 241 542.5 269.5 c 128,-1,64
 525 298 525 298 496.5 315.5 c 128,-1,65
 468 333 468 333 431.5 341 c 128,-1,66
 395 349 395 349 355 348 c 2,67,-1
 351 348 l 2,68,69
 317 348 317 348 288.5 342 c 128,-1,70
 260 336 260 336 235 326 c 0,71,72
 211 314 211 314 193 300 c 128,-1,73
 175 286 175 286 163 267 c 0,74,75
 153 248 153 248 147 227.5 c 128,-1,76
 141 207 141 207 144 182 c 0,77,78
 145 145 145 145 161.5 116.5 c 128,-1,79
 178 88 178 88 207 67 c 0,80,81
 266 26 266 26 357 26 c 2,82,-1
 361 26 l 2,83,84
 390 28 390 28 417.5 34.5 c 128,-1,85
 445 41 445 41 468 53 c 0,86,87
 515 76 515 76 541 117 c 0,59,60
EndSplineSet
EndChar
StartChar: nine
Encoding: 57 57 26
Width: 698
VWidth: 1467
Flags: W
HStem: -1 21G<276 354.5> 295 37<295.886 439.032> 681 31<287.182 460.387>
VStem: 107 44<427.443 554.079> 558 45<441.32 590.046>
Fore
129 396 m 0,0,1
 119 418 119 418 113 441.5 c 128,-1,2
 107 465 107 465 107 492 c 0,3,4
 107 522 107 522 115 549.5 c 128,-1,5
 123 577 123 577 136 602 c 0,6,7
 169 656 169 656 223 682 c 0,8,9
 277 712 277 712 352 712 c 0,10,11
 414 712 414 712 470 694 c 0,12,13
 528 673 528 673 565 631 c 0,14,15
 603 584 603 584 603 509 c 0,16,17
 603 487 603 487 601 463.5 c 128,-1,18
 599 440 599 440 591 417 c 0,19,20
 580 370 580 370 549 307 c 0,21,22
 536 276 536 276 515 242 c 128,-1,23
 494 208 494 208 467 170 c 0,24,25
 442 134 442 134 408 90.5 c 128,-1,26
 374 47 374 47 335 -1 c 1,27,-1
 276 -1 l 1,28,29
 408 139 408 139 484 276 c 0,30,31
 494 295 494 295 503 312 c 128,-1,32
 512 329 512 329 519 345 c 1,33,34
 490 327 490 327 441.5 311 c 128,-1,35
 393 295 393 295 337 295 c 0,36,37
 299 296 299 296 262.5 305 c 128,-1,38
 226 314 226 314 201 327 c 0,39,40
 154 351 154 351 129 396 c 0,0,1
175 582 m 0,41,42
 151 538 151 538 151 487 c 0,43,44
 151 417 151 417 195 373 c 0,45,46
 216 349 216 349 252 339.5 c 128,-1,47
 288 330 288 330 335 332 c 0,48,49
 386 335 386 335 444.5 355.5 c 128,-1,50
 503 376 503 376 543 417 c 1,51,52
 558 462 558 462 558 505 c 0,53,54
 558 559 558 559 531 599 c 256,55,56
 505 638 505 638 461 660 c 0,57,58
 415 681 415 681 362 681 c 0,59,60
 327 681 327 681 297.5 673.5 c 128,-1,61
 268 666 268 666 245 654 c 0,62,63
 222 640 222 640 204 622 c 128,-1,64
 186 604 186 604 175 582 c 0,41,42
EndSplineSet
EndChar
StartChar: colon
Encoding: 58 58 27
Width: 201
VWidth: 1467
Flags: W
HStem: 3 493<85 120 103 103 103 103> 381 115<72.892 132.108>
VStem: 60 85<35.4116 101.467 413.59 479.982>
Fore
103 117 m 1,0,1
 120 119 120 119 132.5 102 c 128,-1,2
 145 85 145 85 145 60 c 0,3,4
 145 37 145 37 132.5 20 c 128,-1,5
 120 3 120 3 103 3 c 0,6,7
 84 3 84 3 71.5 20 c 128,-1,8
 59 37 59 37 60 60 c 0,9,10
 60 85 60 85 72.5 102 c 128,-1,11
 85 119 85 119 103 117 c 1,0,1
103 496 m 1,12,13
 120 497 120 497 132.5 480.5 c 128,-1,14
 145 464 145 464 145 439 c 0,15,16
 145 415 145 415 132.5 398 c 128,-1,17
 120 381 120 381 103 381 c 0,18,19
 84 381 84 381 71.5 398 c 128,-1,20
 59 415 59 415 60 439 c 0,21,22
 60 464 60 464 72.5 480.5 c 128,-1,23
 85 497 85 497 103 496 c 1,12,13
EndSplineSet
EndChar
StartChar: semicolon
Encoding: 59 59 28
Width: 203
VWidth: 1467
Flags: W
HStem: 381 115<72.892 132.108>
VStem: 60 85<413.59 479.982> 110 43<-46.3062 -4>
Fore
129 82 m 0,0,1
 139 75 139 75 146 64.5 c 128,-1,2
 153 54 153 54 153 40 c 0,3,4
 153 -16 153 -16 126.5 -53.5 c 128,-1,5
 100 -91 100 -91 73 -109 c 1,6,-1
 40 -109 l 1,7,8
 65 -91 65 -91 85.5 -64 c 128,-1,9
 106 -37 106 -37 110 -4 c 1,10,11
 76 -21 76 -21 56 -3 c 0,12,13
 44 9 44 9 47 30 c 128,-1,14
 50 51 50 51 66 67 c 0,15,16
 81 82 81 82 98.5 85.5 c 128,-1,17
 116 89 116 89 129 82 c 0,0,1
103 496 m 1,18,19
 120 497 120 497 132.5 480.5 c 128,-1,20
 145 464 145 464 145 439 c 0,21,22
 145 415 145 415 132.5 398 c 128,-1,23
 120 381 120 381 103 381 c 0,24,25
 84 381 84 381 71.5 398 c 128,-1,26
 59 415 59 415 60 439 c 0,27,28
 60 464 60 464 72.5 480.5 c 128,-1,29
 85 497 85 497 103 496 c 1,18,19
EndSplineSet
EndChar
StartChar: less
Encoding: 60 60 29
Width: 517
VWidth: 1467
Flags: W
HStem: -7 21G<447.5 467>
VStem: 50 417<-7 280 280 280>
Fore
467 -7 m 1,0,1
 428 44 428 44 377.5 90 c 128,-1,2
 327 136 327 136 270.5 173.5 c 128,-1,3
 214 211 214 211 157 238.5 c 128,-1,4
 100 266 100 266 50 280 c 1,5,6
 100 298 100 298 155.5 326 c 128,-1,7
 211 354 211 354 266 391 c 128,-1,8
 321 428 321 428 372.5 473.5 c 128,-1,9
 424 519 424 519 467 574 c 1,10,-1
 467 516 l 1,11,12
 434 483 434 483 394.5 447.5 c 128,-1,13
 355 412 355 412 311 380.5 c 128,-1,14
 267 349 267 349 221.5 323.5 c 128,-1,15
 176 298 176 298 132 283 c 1,16,17
 175 270 175 270 220.5 246 c 128,-1,18
 266 222 266 222 310 190 c 128,-1,19
 354 158 354 158 394 121.5 c 128,-1,20
 434 85 434 85 467 48 c 1,21,-1
 467 -7 l 1,0,1
EndSplineSet
EndChar
StartChar: equal
Encoding: 61 61 30
Width: 629
VWidth: 1467
Flags: W
HStem: 180 47<41 585> 346 47<41 585>
Fore
41 346 m 1,0,-1
 41 393 l 1,1,-1
 585 393 l 1,2,-1
 585 346 l 1,3,-1
 41 346 l 1,0,-1
41 180 m 1,4,-1
 41 227 l 1,5,-1
 585 227 l 1,6,-1
 585 180 l 1,7,-1
 41 180 l 1,4,-1
EndSplineSet
EndChar
StartChar: greater
Encoding: 62 62 31
Width: 535
VWidth: 1467
Flags: W
HStem: -10 21G<75 95.5>
VStem: 75 417<283 571 571 571>
Fore
75 571 m 1,0,1
 112 519 112 519 163 473 c 128,-1,2
 214 427 214 427 270.5 389.5 c 128,-1,3
 327 352 327 352 384.5 325 c 128,-1,4
 442 298 442 298 492 283 c 1,5,6
 442 266 442 266 386 238 c 128,-1,7
 330 210 330 210 275 172.5 c 128,-1,8
 220 135 220 135 168 89.5 c 128,-1,9
 116 44 116 44 75 -10 c 1,10,-1
 75 47 l 1,11,12
 107 81 107 81 146.5 116 c 128,-1,13
 186 151 186 151 230 182.5 c 128,-1,14
 274 214 274 214 319.5 240 c 128,-1,15
 365 266 365 266 409 280 c 1,16,17
 367 293 367 293 321.5 317.5 c 128,-1,18
 276 342 276 342 232 373.5 c 128,-1,19
 188 405 188 405 147.5 441 c 128,-1,20
 107 477 107 477 75 515 c 1,21,-1
 75 571 l 1,0,1
EndSplineSet
EndChar
StartChar: question
Encoding: 63 63 32
Width: 478
VWidth: 1467
Flags: W
VStem: 175 85<32.9937 101.467> 198 38<182 212.438>
Fore
202 537 m 0,0,1
 189 490 189 490 158.5 462 c 128,-1,2
 128 434 128 434 95 443 c 256,3,4
 63 452 63 452 50 491.5 c 128,-1,5
 37 531 37 531 48 580 c 0,6,7
 57 604 57 604 73 631 c 0,8,9
 94 665 94 665 128.5 689 c 128,-1,10
 163 713 163 713 201 720 c 0,11,12
 271 737 271 737 325.5 709.5 c 128,-1,13
 380 682 380 682 406.5 632 c 128,-1,14
 433 582 433 582 426.5 521.5 c 128,-1,15
 420 461 420 461 367 408 c 0,16,17
 362 403 362 403 346 392 c 128,-1,18
 330 381 330 381 311.5 365 c 128,-1,19
 293 349 293 349 276.5 330 c 128,-1,20
 260 311 260 311 252 291 c 0,21,22
 244 267 244 267 241 248 c 128,-1,23
 238 229 238 229 236 213 c 0,24,25
 235 195 235 195 236 180 c 1,26,-1
 198 182 l 1,27,28
 195 197 195 197 197 214 c 0,29,30
 198 230 198 230 201 252 c 128,-1,31
 204 274 204 274 214 304 c 0,32,33
 222 324 222 324 238.5 345.5 c 128,-1,34
 255 367 255 367 276 384 c 0,35,36
 298 405 298 405 326 425 c 0,37,38
 367 462 367 462 378.5 510 c 128,-1,39
 390 558 390 558 377 599.5 c 128,-1,40
 364 641 364 641 326 667.5 c 128,-1,41
 288 694 288 694 230 688 c 0,42,43
 201 685 201 685 167 668 c 1,44,45
 192 654 192 654 203 617.5 c 128,-1,46
 214 581 214 581 202 537 c 0,0,1
84 569 m 0,47,48
 81 556 81 556 79.5 540 c 128,-1,49
 78 524 78 524 80 509 c 128,-1,50
 82 494 82 494 87 482.5 c 128,-1,51
 92 471 92 471 103 468 c 256,52,53
 113 465 113 465 123.5 471.5 c 128,-1,54
 134 478 134 478 142.5 490.5 c 128,-1,55
 151 503 151 503 157.5 518 c 128,-1,56
 164 533 164 533 167 546 c 0,57,58
 172 559 172 559 173.5 575 c 128,-1,59
 175 591 175 591 172.5 606.5 c 128,-1,60
 170 622 170 622 164 633 c 128,-1,61
 158 644 158 644 148 649 c 0,62,63
 138 651 138 651 127.5 644 c 128,-1,64
 117 637 117 637 109 624.5 c 128,-1,65
 101 612 101 612 94.5 597 c 128,-1,66
 88 582 88 582 84 569 c 0,47,48
217 117 m 1,67,68
 235 119 235 119 247.5 102 c 128,-1,69
 260 85 260 85 260 60 c 0,70,71
 260 37 260 37 247.5 20 c 128,-1,72
 235 3 235 3 217 3 c 0,73,74
 198 3 198 3 185.5 20 c 128,-1,75
 173 37 173 37 175 60 c 0,76,77
 175 85 175 85 187.5 102 c 128,-1,78
 200 119 200 119 217 117 c 1,67,68
EndSplineSet
EndChar
StartChar: at
Encoding: 64 64 33
Width: 886
VWidth: 1467
Flags: W
HStem: -153 37<310.997 478.062> 392 31.5<342.031 469.062> 547 35<347.641 589.497>
VStem: 79 37<79.7132 319.271> 268 36<61.5065 158.924> 562 38<38.2427 49.4082 97 251 287.444 322.234> 770 37<164.299 366.944>
Fore
472 238 m 0,0,1
 483 239 483 239 497.5 245 c 128,-1,2
 512 251 512 251 526 259.5 c 128,-1,3
 540 268 540 268 549.5 278.5 c 128,-1,4
 559 289 559 289 559 302 c 0,5,6
 559 318 559 318 549.5 337.5 c 128,-1,7
 540 357 540 357 521 370 c 0,8,9
 500 384 500 384 470 389.5 c 128,-1,10
 440 395 440 395 407 392 c 128,-1,11
 374 389 374 389 341 379.5 c 128,-1,12
 308 370 308 370 282 357 c 1,13,-1
 289 393 l 1,14,15
 348 423 348 423 418.5 423.5 c 128,-1,16
 489 424 489 424 541 399 c 0,17,18
 568 387 568 387 584 361 c 128,-1,19
 600 335 600 335 600 301 c 2,20,-1
 600 92 l 2,21,22
 600 81 600 81 601.5 64 c 128,-1,23
 603 47 603 47 607 38 c 1,24,25
 635 40 635 40 664.5 56.5 c 128,-1,26
 694 73 694 73 716.5 102 c 128,-1,27
 739 131 739 131 754.5 169 c 128,-1,28
 770 207 770 207 770 251 c 0,29,30
 770 313 770 313 749 367 c 128,-1,31
 728 421 728 421 687.5 461.5 c 128,-1,32
 647 502 647 502 591.5 524.5 c 128,-1,33
 536 547 536 547 468 547 c 256,34,35
 401 547 401 547 337 521.5 c 128,-1,36
 273 496 273 496 224 449.5 c 128,-1,37
 175 403 175 403 145.5 338 c 128,-1,38
 116 273 116 273 116 192 c 0,39,40
 116 126 116 126 141.5 70.5 c 128,-1,41
 167 15 167 15 209 -27 c 128,-1,42
 251 -69 251 -69 306 -92.5 c 128,-1,43
 361 -116 361 -116 421 -116 c 0,44,45
 472 -116 472 -116 517 -106.5 c 128,-1,46
 562 -97 562 -97 597 -75 c 1,47,-1
 618 -104 l 1,48,49
 571 -131 571 -131 521 -142 c 128,-1,50
 471 -153 471 -153 418 -153 c 0,51,52
 349 -153 349 -153 287.5 -128 c 128,-1,53
 226 -103 226 -103 180 -58 c 128,-1,54
 134 -13 134 -13 106.5 50 c 128,-1,55
 79 113 79 113 79 188 c 0,56,57
 79 266 79 266 106.5 337 c 128,-1,58
 134 408 134 408 184.5 463 c 128,-1,59
 235 518 235 518 308 550 c 128,-1,60
 381 582 381 582 475 582 c 0,61,62
 552 582 552 582 612.5 557.5 c 128,-1,63
 673 533 673 533 716.5 489 c 128,-1,64
 760 445 760 445 783.5 385.5 c 128,-1,65
 807 326 807 326 807 257 c 0,66,67
 807 202 807 202 788.5 157 c 128,-1,68
 770 112 770 112 741.5 78 c 128,-1,69
 713 44 713 44 678 25 c 128,-1,70
 643 6 643 6 609 6 c 1,71,-1
 600 7 l 1,72,73
 584 13 584 13 574.5 27 c 128,-1,74
 565 41 565 41 562 57 c 1,75,76
 552 48 552 48 532 36.5 c 128,-1,77
 512 25 512 25 486.5 16 c 128,-1,78
 461 7 461 7 429.5 3 c 128,-1,79
 398 -1 398 -1 364 6 c 0,80,81
 320 15 320 15 294 41 c 128,-1,82
 268 67 268 67 268 114 c 0,83,84
 268 154 268 154 289 176 c 128,-1,85
 310 198 310 198 340 209 c 128,-1,86
 370 220 370 220 406 225 c 128,-1,87
 442 230 442 230 472 238 c 0,0,1
562 251 m 1,88,89
 540 235 540 235 518.5 224.5 c 128,-1,90
 497 214 497 214 472 210 c 0,91,92
 446 205 446 205 416.5 199.5 c 128,-1,93
 387 194 387 194 362 183.5 c 128,-1,94
 337 173 337 173 320.5 157 c 128,-1,95
 304 141 304 141 304 114 c 0,96,97
 304 84 304 84 323.5 62 c 128,-1,98
 343 40 343 40 373 37 c 0,99,100
 412 31 412 31 441.5 35.5 c 128,-1,101
 471 40 471 40 493 50 c 128,-1,102
 515 60 515 60 531 72.5 c 128,-1,103
 547 85 547 85 562 97 c 1,104,-1
 562 251 l 1,88,89
EndSplineSet
EndChar
StartChar: A
Encoding: 65 65 34
Width: 649
VWidth: 1467
Flags: W
HStem: 0 21G<48 99.2402 547.76 599> 229 39<164 483> 705 20G<305.5 341>
Fore
493 229 m 1,0,-1
 154 229 l 1,1,-1
 94 0 l 1,2,-1
 48 0 l 1,3,-1
 185 544 l 2,4,5
 195 580 195 580 204.5 611.5 c 128,-1,6
 214 643 214 643 229 668 c 128,-1,7
 244 693 244 693 266 707.5 c 128,-1,8
 288 722 288 722 323 725 c 1,9,10
 359 722 359 722 382 706 c 128,-1,11
 405 690 405 690 419.5 664 c 128,-1,12
 434 638 434 638 443.5 606.5 c 128,-1,13
 453 575 453 575 462 544 c 2,14,-1
 599 0 l 1,15,-1
 553 0 l 1,16,-1
 493 229 l 1,0,-1
483 268 m 1,17,-1
 418 519 l 2,18,19
 406 566 406 566 398 589.5 c 128,-1,20
 390 613 390 613 383 631 c 0,21,22
 370 660 370 660 352.5 671 c 128,-1,23
 335 682 335 682 317 680 c 128,-1,24
 299 678 299 678 284.5 664 c 128,-1,25
 270 650 270 650 263 628 c 0,26,27
 251 599 251 599 244.5 574.5 c 128,-1,28
 238 550 238 550 229 519 c 2,29,-1
 164 268 l 1,30,-1
 483 268 l 1,17,-1
EndSplineSet
EndChar
StartChar: B
Encoding: 66 66 35
Width: 660
VWidth: 1467
Flags: W
HStem: 0 38<148 405.64> 408 41<282 380.596> 675 37<147 431.762>
VStem: 103 44.5<38 267.938 267.938 436.515 436.515 675> 472 43<522.441 634.444> 546 47<130.098 294.42>
Fore
406 427 m 1,0,1
 433 421 433 421 466 407 c 128,-1,2
 499 393 499 393 527.5 368 c 128,-1,3
 556 343 556 343 575 305 c 128,-1,4
 594 267 594 267 593 213 c 0,5,6
 593 145 593 145 568.5 103.5 c 128,-1,7
 544 62 544 62 509 39 c 128,-1,8
 474 16 474 16 433 8 c 128,-1,9
 392 0 392 0 358 0 c 2,10,-1
 103 0 l 1,11,-1
 103 712 l 1,12,-1
 370 712 l 2,13,14
 409 712 409 712 432.5 701 c 128,-1,15
 456 690 456 690 477 669 c 0,16,17
 515 631 515 631 515 569 c 0,18,19
 515 524 515 524 484 481 c 0,20,21
 456 442 456 442 406 427 c 1,0,1
368 38 m 2,22,23
 398 38 398 38 429.5 46 c 128,-1,24
 461 54 461 54 486.5 74 c 128,-1,25
 512 94 512 94 529 129 c 128,-1,26
 546 164 546 164 546 217 c 0,27,28
 546 261 546 261 527 295.5 c 128,-1,29
 508 330 508 330 479 354.5 c 128,-1,30
 450 379 450 379 416.5 392 c 128,-1,31
 383 405 383 405 355 408 c 2,32,-1
 282 408 l 1,33,-1
 282 449 l 1,34,-1
 355 449 l 2,35,36
 377 449 377 449 397.5 458.5 c 128,-1,37
 418 468 418 468 435 485 c 128,-1,38
 452 502 452 502 462 523 c 128,-1,39
 472 544 472 544 472 566 c 0,40,41
 472 612 472 612 443 644 c 128,-1,42
 414 676 414 676 368 675 c 2,43,-1
 147 675 l 1,44,45
 147 606 147 606 147 521.5 c 128,-1,46
 147 437 147 437 147.5 351.5 c 128,-1,47
 148 266 148 266 148 184.5 c 128,-1,48
 148 103 148 103 148 38 c 1,49,-1
 368 38 l 2,22,23
EndSplineSet
EndChar
StartChar: C
Encoding: 67 67 36
Width: 632
VWidth: 1467
Flags: W
HStem: 599 21G<527.5 575>
VStem: 103 47<102.907 608.609>
Fore
222 56 m 256,0,1
 251 38 251 38 298 30.5 c 128,-1,2
 345 23 345 23 392.5 29 c 128,-1,3
 440 35 440 35 479.5 55.5 c 128,-1,4
 519 76 519 76 536 114 c 1,5,-1
 575 98 l 1,6,7
 553 53 553 53 503 28 c 128,-1,8
 453 3 453 3 395 -5 c 128,-1,9
 337 -13 337 -13 280 -4.5 c 128,-1,10
 223 4 223 4 186 26 c 0,11,12
 153 47 153 47 128 77 c 128,-1,13
 103 107 103 107 103 145 c 2,14,-1
 103 568 l 2,15,16
 103 606 103 606 128 636 c 128,-1,17
 153 666 153 666 186 685 c 0,18,19
 223 707 223 707 280 716 c 128,-1,20
 337 725 337 725 395 717.5 c 128,-1,21
 453 710 453 710 503 685 c 128,-1,22
 553 660 553 660 575 615 c 1,23,-1
 536 599 l 1,24,25
 519 637 519 637 479.5 657.5 c 128,-1,26
 440 678 440 678 392.5 684 c 128,-1,27
 345 690 345 690 298 682.5 c 128,-1,28
 251 675 251 675 222 657 c 0,29,30
 192 638 192 638 171 609.5 c 128,-1,31
 150 581 150 581 150 549 c 2,32,-1
 150 355 l 1,33,-1
 150 164 l 2,34,35
 150 131 150 131 171 102 c 128,-1,36
 192 73 192 73 222 56 c 256,0,1
EndSplineSet
EndChar
StartChar: D
Encoding: 68 68 37
Width: 669
VWidth: 1467
Flags: W
HStem: 0 37<148 287.691> 681 36<148 218.247>
VStem: 104 44<37 681> 544 44<205.007 503.505>
Fore
104 299 m 1,0,-1
 104 359 l 1,1,-1
 104 418 l 1,2,-1
 104 717 l 1,3,4
 207 717 207 717 295.5 707 c 128,-1,5
 384 697 384 697 449 659.5 c 128,-1,6
 514 622 514 622 550.5 551 c 128,-1,7
 587 480 587 480 588 359 c 0,8,9
 587 264 587 264 568 200 c 128,-1,10
 549 136 549 136 515 96 c 128,-1,11
 481 56 481 56 435.5 36 c 128,-1,12
 390 16 390 16 336.5 8 c 128,-1,13
 283 0 283 0 223.5 0 c 128,-1,14
 164 0 164 0 104 0 c 1,15,-1
 104 299 l 1,0,-1
544 359 m 0,16,17
 544 443 544 443 522 504.5 c 128,-1,18
 500 566 500 566 453 606 c 128,-1,19
 406 646 406 646 330.5 664 c 128,-1,20
 255 682 255 682 148 681 c 1,21,-1
 148 359 l 1,22,-1
 148 37 l 1,23,24
 263 32 263 32 339 48.5 c 128,-1,25
 415 65 415 65 461.5 103.5 c 128,-1,26
 508 142 508 142 526 206 c 128,-1,27
 544 270 544 270 544 359 c 0,16,17
EndSplineSet
EndChar
StartChar: E
Encoding: 69 69 38
Width: 642
VWidth: 1467
Flags: W
HStem: -6 37<313.018 563> 321 40<150 452> 675 38<311.774 563>
VStem: 103 47<142.866 321 361 564.134>
Fore
361 675 m 1,0,1
 320 675 320 675 281 666 c 128,-1,2
 242 657 242 657 212.5 633 c 128,-1,3
 183 609 183 609 165.5 565.5 c 128,-1,4
 148 522 148 522 150 452 c 2,5,-1
 150 361 l 1,6,-1
 452 361 l 1,7,-1
 452 321 l 1,8,-1
 150 321 l 1,9,-1
 150 255 l 2,10,11
 148 185 148 185 165.5 141.5 c 128,-1,12
 183 98 183 98 212.5 74 c 128,-1,13
 242 50 242 50 281 40.5 c 128,-1,14
 320 31 320 31 361 31 c 2,15,-1
 563 31 l 1,16,-1
 563 -6 l 1,17,-1
 364 -6 l 2,18,19
 308 -4 308 -4 260.5 4.5 c 128,-1,20
 213 13 213 13 177.5 40 c 128,-1,21
 142 67 142 67 122.5 118.5 c 128,-1,22
 103 170 103 170 103 257 c 2,23,-1
 103 450 l 2,24,25
 103 537 103 537 122.5 588.5 c 128,-1,26
 142 640 142 640 177.5 667 c 128,-1,27
 213 694 213 694 260.5 703 c 128,-1,28
 308 712 308 712 364 713 c 2,29,-1
 563 713 l 1,30,-1
 563 675 l 1,31,-1
 361 675 l 1,0,1
EndSplineSet
EndChar
StartChar: F
Encoding: 70 70 39
Width: 627
VWidth: 1467
Flags: W
HStem: -1 21G<104 150.062> 324 40<151 452> 678 38<312.96 565>
VStem: 104 47<-1 324 364 567.134>
Fore
362 678 m 1,0,1
 321 678 321 678 282.5 669 c 128,-1,2
 244 660 244 660 213.5 636 c 128,-1,3
 183 612 183 612 166.5 568.5 c 128,-1,4
 150 525 150 525 151 455 c 2,5,-1
 151 364 l 1,6,-1
 452 364 l 1,7,-1
 452 324 l 1,8,-1
 151 324 l 1,9,-1
 150 -1 l 1,10,-1
 104 -1 l 1,11,-1
 104 453 l 2,12,13
 104 540 104 540 124 591.5 c 128,-1,14
 144 643 144 643 179 670 c 128,-1,15
 214 697 214 697 262 706 c 128,-1,16
 310 715 310 715 364 716 c 2,17,-1
 565 716 l 1,18,-1
 565 678 l 1,19,-1
 362 678 l 1,0,1
EndSplineSet
EndChar
StartChar: G
Encoding: 71 71 40
Width: 689
VWidth: 1467
Flags: W
HStem: -6 38<313.265 375.36 375.642 434.425> 358 40<428 481.672> 597 21G<535 584>
VStem: 104 47<142.866 607.608> 575 49<128.614 286.668>
Fore
428 398 m 1,0,1
 522 398 522 398 573.5 354 c 128,-1,2
 625 310 625 310 624 211 c 0,3,4
 622 144 622 144 598 101.5 c 128,-1,5
 574 59 574 59 538.5 34.5 c 128,-1,6
 503 10 503 10 463 1.5 c 128,-1,7
 423 -7 423 -7 389 -7 c 0,8,9
 380 -7 380 -7 375.5 -6.5 c 128,-1,10
 371 -6 371 -6 368 -6 c 2,11,-1
 365 -6 l 2,12,13
 311 -4 311 -4 263.5 4.5 c 128,-1,14
 216 13 216 13 180.5 40 c 128,-1,15
 145 67 145 67 124.5 118.5 c 128,-1,16
 104 170 104 170 104 257 c 2,17,-1
 104 566 l 2,18,19
 104 604 104 604 130 634.5 c 128,-1,20
 156 665 156 665 189 684 c 0,21,22
 226 706 226 706 284 714.5 c 128,-1,23
 342 723 342 723 401.5 716 c 128,-1,24
 461 709 461 709 511.5 684 c 128,-1,25
 562 659 562 659 584 613 c 1,26,-1
 543 597 l 1,27,28
 527 635 527 635 486 655.5 c 128,-1,29
 445 676 445 676 396.5 682 c 128,-1,30
 348 688 348 688 301 680.5 c 128,-1,31
 254 673 254 673 224 656 c 0,32,33
 194 637 194 637 172.5 608.5 c 128,-1,34
 151 580 151 580 151 547 c 0,35,36
 151 522 151 522 151 495 c 128,-1,37
 151 468 151 468 151 434.5 c 128,-1,38
 151 401 151 401 151 357.5 c 128,-1,39
 151 314 151 314 151 255 c 0,40,41
 150 185 150 185 167.5 141.5 c 128,-1,42
 185 98 185 98 214.5 74 c 128,-1,43
 244 50 244 50 282.5 41 c 128,-1,44
 321 32 321 32 364 32 c 2,45,-1
 399 32 l 2,46,47
 427 32 427 32 458.5 41 c 128,-1,48
 490 50 490 50 515.5 71 c 128,-1,49
 541 92 541 92 558 127.5 c 128,-1,50
 575 163 575 163 575 217 c 0,51,52
 575 261 575 261 562.5 287.5 c 128,-1,53
 550 314 550 314 529.5 329.5 c 128,-1,54
 509 345 509 345 482.5 350 c 128,-1,55
 456 355 456 355 428 358 c 1,56,-1
 428 398 l 1,0,1
EndSplineSet
EndChar
StartChar: H
Encoding: 72 72 41
Width: 658
VWidth: 1467
Flags: W
HStem: -3 21G<103 150 518 565> 323 39<150 518> 695 20G<103 150 518 565>
VStem: 103 47<-3 323 362 715> 518 47<-3 323 362 715>
Fore
518 715 m 1,0,-1
 565 715 l 1,1,-1
 565 -3 l 1,2,-1
 518 -3 l 1,3,-1
 518 323 l 1,4,-1
 150 323 l 1,5,-1
 150 -3 l 1,6,-1
 103 -3 l 1,7,-1
 103 715 l 1,8,-1
 150 715 l 1,9,-1
 150 362 l 1,10,-1
 518 362 l 1,11,-1
 518 715 l 1,0,-1
EndSplineSet
EndChar
StartChar: I
Encoding: 73 73 42
Width: 214
VWidth: 1467
Flags: W
HStem: 0 21G<82 128.028> 697 20G<82 129>
VStem: 82 46<0 717>
Fore
129 717 m 1,0,-1
 128 0 l 1,1,-1
 82 0 l 1,2,-1
 82 717 l 1,3,-1
 129 717 l 1,0,-1
EndSplineSet
EndChar
StartChar: J
Encoding: 74 74 43
Width: 491
VWidth: 1467
Flags: W
HStem: -12.5 38<204.16 294.733> 690 20G<352 399>
VStem: 73 326<142 710 142 142> 352 47<94.4882 710>
Fore
119 145 m 1,0,1
 122 104 122 104 141 76 c 128,-1,2
 160 48 160 48 186.5 35.5 c 128,-1,3
 213 23 213 23 242 25.5 c 128,-1,4
 271 28 271 28 295.5 45 c 128,-1,5
 320 62 320 62 336 93.5 c 128,-1,6
 352 125 352 125 352 172 c 2,7,-1
 352 710 l 1,8,-1
 399 710 l 1,9,10
 399 653 399 653 399 579.5 c 128,-1,11
 399 506 399 506 399 429 c 128,-1,12
 399 352 399 352 399 278.5 c 128,-1,13
 399 205 399 205 399 148 c 0,14,15
 399 97 399 97 375 61 c 128,-1,16
 351 25 351 25 315 6.5 c 128,-1,17
 279 -12 279 -12 236.5 -12.5 c 128,-1,18
 194 -13 194 -13 158 4 c 128,-1,19
 122 21 122 21 97.5 55 c 128,-1,20
 73 89 73 89 73 142 c 2,21,-1
 73 145 l 1,22,-1
 119 145 l 1,0,1
EndSplineSet
EndChar
StartChar: K
Encoding: 75 75 44
Width: 685
VWidth: 1467
Flags: W
HStem: -1 21G<104 151 544 591> 696 20G<104 151 495.379 580>
VStem: 104 47<0 291 359 716> 544 47<-1 329.682>
Fore
349 486 m 1,0,1
 396 481 396 481 439.5 467 c 128,-1,2
 483 453 483 453 516.5 424 c 128,-1,3
 550 395 550 395 570.5 347 c 128,-1,4
 591 299 591 299 591 227 c 2,5,-1
 591 -1 l 1,6,-1
 544 -1 l 1,7,-1
 546 224 l 2,8,9
 547 289 547 289 526 331 c 128,-1,10
 505 373 505 373 470.5 398 c 128,-1,11
 436 423 436 423 393.5 434 c 128,-1,12
 351 445 351 445 310 447 c 1,13,-1
 151 291 l 1,14,-1
 151 0 l 1,15,-1
 104 0 l 1,16,-1
 104 716 l 1,17,-1
 151 716 l 1,18,-1
 151 359 l 1,19,-1
 516 713 l 1,20,-1
 580 713 l 1,21,-1
 349 486 l 1,0,1
EndSplineSet
EndChar
StartChar: L
Encoding: 76 76 45
Width: 616
VWidth: 1467
Flags: W
HStem: -1 38<309.29 381.904 381.904 431.938 431.938 565> 696 20G<103 150>
VStem: 103 47<147.351 716>
Fore
565 -1 m 1,0,1
 558 -1 558 -1 527.5 -1 c 128,-1,2
 497 -1 497 -1 463.5 -1 c 128,-1,3
 430 -1 430 -1 400.5 -0.5 c 128,-1,4
 371 0 371 0 364 0 c 0,5,6
 308 1 308 1 260.5 10 c 128,-1,7
 213 19 213 19 177.5 46 c 128,-1,8
 142 73 142 73 122.5 124.5 c 128,-1,9
 103 176 103 176 103 263 c 2,10,-1
 103 716 l 1,11,-1
 150 716 l 1,12,-1
 150 260 l 2,13,14
 148 189 148 189 165.5 146 c 128,-1,15
 183 103 183 103 212.5 78.5 c 128,-1,16
 242 54 242 54 281 45.5 c 128,-1,17
 320 37 320 37 361 37 c 2,18,-1
 565 37 l 1,19,-1
 565 -1 l 1,0,1
EndSplineSet
EndChar
StartChar: M
Encoding: 77 77 46
Width: 836
VWidth: 1467
Flags: W
HStem: 0 21G<103 147 700 744> 695 20G<103 162.5 681 744>
VStem: 103 44<0 266.908 266.908 408.608 408.608 668> 700 44<0 669>
Fore
147 715 m 1,0,1
 178 700 178 700 215 673.5 c 128,-1,2
 252 647 252 647 290.5 614 c 128,-1,3
 329 581 329 581 364 542 c 128,-1,4
 399 503 399 503 424 465 c 1,5,6
 453 509 453 509 489 548.5 c 128,-1,7
 525 588 525 588 562 620.5 c 128,-1,8
 599 653 599 653 633.5 677 c 128,-1,9
 668 701 668 701 694 715 c 1,10,-1
 744 715 l 1,11,-1
 744 0 l 1,12,-1
 700 0 l 1,13,-1
 700 669 l 1,14,15
 685 665 685 665 661.5 647 c 128,-1,16
 638 629 638 629 610 604.5 c 128,-1,17
 582 580 582 580 552 550.5 c 128,-1,18
 522 521 522 521 496.5 491 c 128,-1,19
 471 461 471 461 450.5 433.5 c 128,-1,20
 430 406 430 406 423 387 c 1,21,22
 396 436 396 436 360 481.5 c 128,-1,23
 324 527 324 527 285 564.5 c 128,-1,24
 246 602 246 602 209.5 629 c 128,-1,25
 173 656 173 656 145 668 c 1,26,27
 145 647 145 647 145 596.5 c 128,-1,28
 145 546 145 546 145 479 c 128,-1,29
 145 412 145 412 146 338 c 128,-1,30
 147 264 147 264 147 196 c 128,-1,31
 147 128 147 128 147 75 c 128,-1,32
 147 22 147 22 147 0 c 1,33,-1
 103 0 l 1,34,-1
 103 715 l 1,35,-1
 147 715 l 1,0,1
EndSplineSet
EndChar
StartChar: N
Encoding: 78 78 47
Width: 721
VWidth: 1467
Flags: W
HStem: -7 21G<103 154.066 522 545.5> 695 20G<103 159.084 582 628>
VStem: 103 51<0 603> 582 46<88.2141 715>
Fore
582 715 m 1,0,-1
 628 715 l 1,1,-1
 628 134 l 2,2,3
 628 57 628 57 597 25.5 c 128,-1,4
 566 -6 566 -6 525 -7 c 1,5,6
 519 3 519 3 490.5 50 c 128,-1,7
 462 97 462 97 423 160.5 c 128,-1,8
 384 224 384 224 338.5 297.5 c 128,-1,9
 293 371 293 371 254.5 435.5 c 128,-1,10
 216 500 216 500 188 546.5 c 128,-1,11
 160 593 160 593 156 603 c 1,12,-1
 154 0 l 1,13,-1
 103 0 l 1,14,-1
 103 715 l 1,15,-1
 147 715 l 1,16,-1
 550 48 l 1,17,18
 572 54 572 54 577 79 c 128,-1,19
 582 104 582 104 582 150 c 2,20,-1
 582 715 l 1,0,-1
EndSplineSet
EndChar
StartChar: O
Encoding: 79 79 48
Width: 705
VWidth: 1467
Flags: W
HStem: -15.5 37<257.439 454.045> 691 37.5<257.439 454.045>
VStem: 103 45<110.169 601.23> 563 47<109.524 602.831>
Fore
103 541 m 2,0,1
 103 603 103 603 140.5 645 c 128,-1,2
 178 687 178 687 234.5 708 c 128,-1,3
 291 729 291 729 357 728.5 c 128,-1,4
 423 728 423 728 479.5 707.5 c 128,-1,5
 536 687 536 687 573 645 c 128,-1,6
 610 603 610 603 610 541 c 2,7,-1
 610 172 l 2,8,9
 610 109 610 109 573 67.5 c 128,-1,10
 536 26 536 26 479.5 5.5 c 128,-1,11
 423 -15 423 -15 357 -15.5 c 128,-1,12
 291 -16 291 -16 234.5 5 c 128,-1,13
 178 26 178 26 140.5 68 c 128,-1,14
 103 110 103 110 103 172 c 2,15,-1
 103 541 l 2,0,1
148 521 m 2,16,-1
 148 191 l 2,17,18
 148 134 148 134 179 96.5 c 128,-1,19
 210 59 210 59 256 40 c 128,-1,20
 302 21 302 21 355.5 21.5 c 128,-1,21
 409 22 409 22 455.5 40.5 c 128,-1,22
 502 59 502 59 532.5 97 c 128,-1,23
 563 135 563 135 563 191 c 2,24,-1
 563 521 l 2,25,26
 563 578 563 578 532.5 615.5 c 128,-1,27
 502 653 502 653 455.5 672 c 128,-1,28
 409 691 409 691 355.5 691 c 128,-1,29
 302 691 302 691 256 672 c 128,-1,30
 210 653 210 653 179 615 c 128,-1,31
 148 577 148 577 148 521 c 2,16,-1
EndSplineSet
EndChar
StartChar: P
Encoding: 80 80 49
Width: 669
VWidth: 1467
Flags: W
HStem: 0 21G<103 147> 274 40<148 418.969> 673 39<148 395.821>
VStem: 103 485<433 544 0 477 200.485 274> 103 45<0 63.2078 63.2078 200.485 200.485 274 314 673> 544 44<398.534 566.822>
Fore
103 0 m 1,0,-1
 103 712 l 1,1,-1
 359 712 l 2,2,3
 393 712 393 712 432.5 700 c 128,-1,4
 472 688 472 688 506 661 c 128,-1,5
 540 634 540 634 563.5 589 c 128,-1,6
 587 544 587 544 588 477 c 0,7,8
 588 433 588 433 571.5 396 c 128,-1,9
 555 359 555 359 524 332 c 128,-1,10
 493 305 493 305 449.5 289.5 c 128,-1,11
 406 274 406 274 355 274 c 2,12,-1
 148 274 l 1,13,14
 148 200 148 200 147.5 127 c 128,-1,15
 147 54 147 54 147 0 c 1,16,-1
 103 0 l 1,0,-1
355 314 m 2,17,18
 387 317 387 317 420 326 c 128,-1,19
 453 335 453 335 481 352.5 c 128,-1,20
 509 370 509 370 526.5 399 c 128,-1,21
 544 428 544 428 544 472 c 0,22,23
 544 525 544 525 526.5 563.5 c 128,-1,24
 509 602 509 602 482.5 626 c 128,-1,25
 456 650 456 650 424 661.5 c 128,-1,26
 392 673 392 673 364 673 c 2,27,-1
 148 673 l 1,28,-1
 148 314 l 1,29,-1
 355 314 l 2,17,18
EndSplineSet
EndChar
StartChar: Q
Encoding: 81 81 50
Width: 705
VWidth: 1467
Flags: W
HStem: -101 39<562.775 613> 693 36<257.23 460.013>
VStem: 104 47<110.967 602.406> 566 47<110.314 604.036>
Fore
613 -101 m 1,0,1
 588 -101 588 -101 561 -97.5 c 128,-1,2
 534 -94 534 -94 506 -83.5 c 128,-1,3
 478 -73 478 -73 454 -55.5 c 128,-1,4
 430 -38 430 -38 412 -10 c 1,5,6
 359 -18 359 -18 304 -10.5 c 128,-1,7
 249 -3 249 -3 204.5 20.5 c 128,-1,8
 160 44 160 44 132 82 c 128,-1,9
 104 120 104 120 104 173 c 2,10,-1
 104 543 l 2,11,12
 104 604 104 604 141.5 646 c 128,-1,13
 179 688 179 688 236 708.5 c 128,-1,14
 293 729 293 729 358.5 729 c 128,-1,15
 424 729 424 729 481 708.5 c 128,-1,16
 538 688 538 688 575.5 646 c 128,-1,17
 613 604 613 604 613 543 c 2,18,-1
 613 173 l 2,19,20
 613 106 613 106 569 62.5 c 128,-1,21
 525 19 525 19 461 0 c 1,22,23
 489 -37 489 -37 528.5 -50 c 128,-1,24
 568 -63 568 -63 606 -62 c 2,25,-1
 613 -62 l 1,26,-1
 613 -101 l 1,0,1
151 192 m 2,27,28
 151 135 151 135 182 97.5 c 128,-1,29
 213 60 213 60 259 41 c 128,-1,30
 305 22 305 22 358.5 22.5 c 128,-1,31
 412 23 412 23 458.5 41.5 c 128,-1,32
 505 60 505 60 535.5 98 c 128,-1,33
 566 136 566 136 566 192 c 2,34,-1
 566 522 l 2,35,36
 566 580 566 580 535.5 617 c 128,-1,37
 505 654 505 654 458.5 673.5 c 128,-1,38
 412 693 412 693 358.5 693 c 128,-1,39
 305 693 305 693 259 673.5 c 128,-1,40
 213 654 213 654 182 616 c 128,-1,41
 151 578 151 578 151 522 c 2,42,-1
 151 192 l 2,27,28
EndSplineSet
EndChar
StartChar: R
Encoding: 82 82 51
Width: 642
VWidth: 1467
Flags: W
HStem: -3 21G<103 148 514 560> 343 40<148 290.724> 672 38<150 348.86 348.86 351.669 351.669 387.5 395.5 435.405>
VStem: 103 45<-1 343 383 426.942 426.942 505.335 505.335 672> 508 42<441.755 592.995> 514 46<-3 228.873>
Fore
423 357 m 1,0,1
 481 335 481 335 520.5 281 c 128,-1,2
 560 227 560 227 560 123 c 2,3,-1
 560 -3 l 1,4,-1
 514 -3 l 1,5,-1
 515 120 l 2,6,7
 516 194 516 194 489 237 c 128,-1,8
 462 280 462 280 421 303 c 128,-1,9
 380 326 380 326 331 334 c 128,-1,10
 282 342 282 342 239 343 c 2,11,-1
 148 343 l 1,12,-1
 148 -1 l 1,13,-1
 103 -1 l 1,14,-1
 103 710 l 1,15,-1
 321 710 l 2,16,17
 355 710 355 710 395.5 704 c 128,-1,18
 436 698 436 698 469.5 678.5 c 128,-1,19
 503 659 503 659 526.5 620 c 128,-1,20
 550 581 550 581 550 514 c 0,21,22
 552 450 552 450 517.5 411.5 c 128,-1,23
 483 373 483 373 423 357 c 1,0,1
150 672 m 1,24,25
 150 634 150 634 150 603 c 128,-1,26
 150 572 150 572 150 540 c 128,-1,27
 150 508 150 508 149 470.5 c 128,-1,28
 148 433 148 433 148 383 c 1,29,-1
 318 383 l 2,30,31
 351 386 351 386 384 389.5 c 128,-1,32
 417 393 417 393 444.5 405 c 128,-1,33
 472 417 472 417 490 441 c 128,-1,34
 508 465 508 465 508 509 c 0,35,36
 508 562 508 562 490 594 c 128,-1,37
 472 626 472 626 446 644 c 128,-1,38
 420 662 420 662 387.5 667 c 128,-1,39
 355 672 355 672 326 672 c 2,40,-1
 150 672 l 1,24,25
EndSplineSet
EndChar
StartChar: S
Encoding: 83 83 52
Width: 695
VWidth: 1467
Flags: W
HStem: -16 35<294.204 393.408> 582 21G<523.5 575> 701 31<298.36 388.829>
VStem: 103 48<459.906 600.482> 560 44<121.034 266.548>
Fore
560 197 m 0,0,1
 556 255 556 255 522.5 284 c 128,-1,2
 489 313 489 313 439 327.5 c 128,-1,3
 389 342 389 342 331.5 350 c 128,-1,4
 274 358 274 358 224.5 375 c 128,-1,5
 175 392 175 392 140.5 425.5 c 128,-1,6
 106 459 106 459 103 527 c 0,7,8
 100 578 100 578 120.5 617 c 128,-1,9
 141 656 141 656 176 681.5 c 128,-1,10
 211 707 211 707 255 719.5 c 128,-1,11
 299 732 299 732 346 732 c 0,12,13
 383 732 383 732 420.5 723.5 c 128,-1,14
 458 715 458 715 489.5 697 c 128,-1,15
 521 679 521 679 543.5 650.5 c 128,-1,16
 566 622 566 622 575 582 c 1,17,-1
 528 582 l 1,18,19
 519 615 519 615 501 637.5 c 128,-1,20
 483 660 483 660 457 674 c 128,-1,21
 431 688 431 688 401 694.5 c 128,-1,22
 371 701 371 701 340 701 c 0,23,24
 301 701 301 701 265.5 689.5 c 128,-1,25
 230 678 230 678 204.5 656 c 128,-1,26
 179 634 179 634 164.5 601.5 c 128,-1,27
 150 569 150 569 151 527 c 0,28,29
 154 470 154 470 188 443.5 c 128,-1,30
 222 417 222 417 271 403.5 c 128,-1,31
 320 390 320 390 377 383 c 128,-1,32
 434 376 434 376 484 358 c 128,-1,33
 534 340 534 340 568 303.5 c 128,-1,34
 602 267 602 267 604 197 c 0,35,36
 607 141 607 141 584.5 100.5 c 128,-1,37
 562 60 562 60 524.5 34.5 c 128,-1,38
 487 9 487 9 439.5 -3.5 c 128,-1,39
 392 -16 392 -16 343 -16 c 0,40,41
 302 -16 302 -16 259.5 -8 c 128,-1,42
 217 0 217 0 181 19 c 128,-1,43
 145 38 145 38 118 69 c 128,-1,44
 91 100 91 100 82 144 c 1,45,-1
 131 144 l 1,46,47
 139 109 139 109 162.5 84.5 c 128,-1,48
 186 60 186 60 216 46 c 128,-1,49
 246 32 246 32 280.5 25.5 c 128,-1,50
 315 19 315 19 349 19 c 0,51,52
 389 19 389 19 428 30 c 128,-1,53
 467 41 467 41 497 64 c 128,-1,54
 527 87 527 87 544.5 120 c 128,-1,55
 562 153 562 153 560 197 c 0,0,1
EndSplineSet
EndChar
StartChar: T
Encoding: 84 84 53
Width: 689
VWidth: 1467
Flags: W
HStem: 0 21G<320 367> 669 46<79 320 367 610>
VStem: 320 47<0 669>
Fore
610 715 m 1,0,-1
 610 668 l 1,1,-1
 367 669 l 1,2,-1
 367 0 l 1,3,-1
 320 0 l 1,4,-1
 320 669 l 1,5,-1
 79 669 l 1,6,-1
 79 715 l 1,7,-1
 320 715 l 1,8,-1
 368 715 l 1,9,-1
 610 715 l 1,0,-1
EndSplineSet
EndChar
StartChar: U
Encoding: 85 85 54
Width: 705
VWidth: 1467
Flags: W
HStem: -15 37.5<260.439 457.045> 695 20G<104 151 566 613>
VStem: 104 47<110.967 715> 566 47<110.673 713>
Fore
613 715 m 1,0,-1
 613 173 l 2,1,2
 613 110 613 110 575.5 69 c 128,-1,3
 538 28 538 28 481 6.5 c 128,-1,4
 424 -15 424 -15 358.5 -15 c 128,-1,5
 293 -15 293 -15 236 5.5 c 128,-1,6
 179 26 179 26 141.5 68 c 128,-1,7
 104 110 104 110 104 173 c 2,8,-1
 104 715 l 1,9,-1
 151 715 l 1,10,-1
 151 192 l 2,11,12
 151 135 151 135 182 97.5 c 128,-1,13
 213 60 213 60 259 41 c 128,-1,14
 305 22 305 22 358.5 22.5 c 128,-1,15
 412 23 412 23 458.5 41.5 c 128,-1,16
 505 60 505 60 535.5 98 c 128,-1,17
 566 136 566 136 566 192 c 2,18,-1
 566 713 l 1,19,-1
 613 715 l 1,0,-1
EndSplineSet
EndChar
StartChar: V
Encoding: 86 86 55
Width: 685
VWidth: 1467
Flags: W
HStem: -10 21G<328.5 364.5> 695 20G<70 121.231 569.808 621>
Fore
484 170 m 2,0,1
 478 141 478 141 469.5 110 c 128,-1,2
 461 79 461 79 445.5 53.5 c 128,-1,3
 430 28 430 28 406.5 9.5 c 128,-1,4
 383 -9 383 -9 346 -10 c 0,5,6
 311 -9 311 -9 287 7 c 128,-1,7
 263 23 263 23 247.5 48 c 128,-1,8
 232 73 232 73 223 104.5 c 128,-1,9
 214 136 214 136 207 170 c 2,10,-1
 70 715 l 1,11,-1
 116 715 l 1,12,-1
 252 195 l 2,13,14
 260 164 260 164 267 140 c 128,-1,15
 274 116 274 116 286 87 c 0,16,17
 295 65 295 65 310.5 52.5 c 128,-1,18
 326 40 326 40 343.5 38.5 c 128,-1,19
 361 37 361 37 378 47 c 128,-1,20
 395 57 395 57 405 84 c 0,21,22
 418 113 418 113 424.5 137 c 128,-1,23
 431 161 431 161 440 195 c 2,24,-1
 575 715 l 1,25,-1
 621 715 l 1,26,-1
 484 170 l 2,0,1
EndSplineSet
EndChar
StartChar: W
Encoding: 87 87 56
Width: 872
VWidth: 1467
Flags: W
HStem: -1 21G<188.662 250.5 609.5 671.647> 692 20G<73 120.62 747 798>
Fore
192 -1 m 1,0,-1
 73 712 l 1,1,-1
 117 712 l 1,2,-1
 235 60 l 1,3,4
 285 110 285 110 316.5 177 c 128,-1,5
 348 244 348 244 369 313.5 c 128,-1,6
 390 383 390 383 403.5 449 c 128,-1,7
 417 515 417 515 431 566 c 1,8,9
 450 516 450 516 473 437 c 128,-1,10
 496 358 496 358 521 279.5 c 128,-1,11
 546 201 546 201 571.5 138.5 c 128,-1,12
 597 76 597 76 624 62 c 1,13,14
 637 131 637 131 654.5 215 c 128,-1,15
 672 299 672 299 689.5 386.5 c 128,-1,16
 707 474 707 474 724 558.5 c 128,-1,17
 741 643 741 643 753 712 c 1,18,-1
 798 712 l 1,19,-1
 668 -1 l 1,20,-1
 625 -1 l 1,21,22
 594 12 594 12 564 59.5 c 128,-1,23
 534 107 534 107 508.5 171.5 c 128,-1,24
 483 236 483 236 463 307.5 c 128,-1,25
 443 379 443 379 434 437 c 1,26,27
 430 368 430 368 409.5 296 c 128,-1,28
 389 224 389 224 360.5 163.5 c 128,-1,29
 332 103 332 103 299 58 c 128,-1,30
 266 13 266 13 235 -1 c 1,31,-1
 192 -1 l 1,0,-1
EndSplineSet
EndChar
StartChar: X
Encoding: 88 88 57
Width: 786
VWidth: 1467
Flags: W
HStem: -1 21G<100.389 147 641 687.5> 696 20G<87 163.457 622.543 700>
Fore
703 -1 m 1,0,-1
 641 0 l 1,1,-1
 393 320 l 1,2,-1
 147 0 l 1,3,-1
 85 -1 l 1,4,-1
 362 359 l 1,5,-1
 87 716 l 1,6,-1
 148 716 l 1,7,-1
 393 399 l 1,8,-1
 638 716 l 1,9,-1
 700 716 l 1,10,-1
 424 359 l 1,11,-1
 703 -1 l 1,0,-1
EndSplineSet
EndChar
StartChar: Y
Encoding: 89 89 58
Width: 679
VWidth: 1467
Flags: W
HStem: -3 21G<313 359> 692 20G<62 125 538.5 612>
VStem: 313 46<-3 295>
Fore
612 712 m 1,0,1
 563 624 563 624 507.5 524 c 128,-1,2
 452 424 452 424 402 340 c 0,3,4
 384 311 384 311 359 296 c 1,5,-1
 359 -3 l 1,6,-1
 313 -3 l 1,7,-1
 313 295 l 1,8,9
 295 304 295 304 284 320.5 c 128,-1,10
 273 337 273 337 267 345 c 0,11,12
 242 381 242 381 215.5 428 c 128,-1,13
 189 475 189 475 162 524.5 c 128,-1,14
 135 574 135 574 109.5 622.5 c 128,-1,15
 84 671 84 671 62 712 c 1,16,-1
 114 712 l 1,17,18
 136 671 136 671 160.5 626.5 c 128,-1,19
 185 582 185 582 210 537.5 c 128,-1,20
 235 493 235 493 258.5 449.5 c 128,-1,21
 282 406 282 406 302 370 c 0,22,23
 321 336 321 336 332 334.5 c 128,-1,24
 343 333 343 333 362 364 c 0,25,26
 409 443 409 443 462 535.5 c 128,-1,27
 515 628 515 628 562 712 c 1,28,-1
 612 712 l 1,0,1
EndSplineSet
EndChar
StartChar: Z
Encoding: 90 90 59
Width: 752
VWidth: 1467
Flags: W
HStem: -1 49<181.147 654> 668 45<98 581>
Fore
654 48 m 1,0,-1
 654 -1 l 1,1,-1
 230 -1 l 2,2,3
 192 -1 192 -1 165.5 10 c 128,-1,4
 139 21 139 21 122.5 37.5 c 128,-1,5
 106 54 106 54 97.5 75.5 c 128,-1,6
 89 97 89 97 89 117 c 1,7,8
 95 123 95 123 118.5 149 c 128,-1,9
 142 175 142 175 176 212 c 128,-1,10
 210 249 210 249 251.5 296 c 128,-1,11
 293 343 293 343 336.5 391.5 c 128,-1,12
 380 440 380 440 422 487 c 128,-1,13
 464 534 464 534 497.5 571.5 c 128,-1,14
 531 609 531 609 553 634.5 c 128,-1,15
 575 660 575 660 581 666 c 1,16,-1
 98 668 l 1,17,-1
 98 713 l 1,18,-1
 654 713 l 1,19,-1
 654 669 l 1,20,-1
 153 106 l 1,21,22
 160 84 160 84 180.5 66 c 128,-1,23
 201 48 201 48 246 48 c 2,24,-1
 654 48 l 1,0,-1
EndSplineSet
EndChar
StartChar: bracketleft
Encoding: 91 91 60
Width: 286
VWidth: 1467
Flags: W
HStem: -117 30<141 288> -117 840<103 141 103 288 103 103> 694 29<141 288>
VStem: 103 38<-87 694>
Fore
103 -117 m 1,0,-1
 103 723 l 1,1,-1
 288 723 l 1,2,-1
 288 694 l 1,3,-1
 141 694 l 1,4,-1
 141 -87 l 1,5,-1
 288 -87 l 1,6,-1
 288 -117 l 1,7,-1
 103 -117 l 1,0,-1
EndSplineSet
EndChar
StartChar: backslash
Encoding: 92 92 61
Width: 390
VWidth: 1467
Flags: W
HStem: 702 20G<-7 47.765>
VStem: -7 419<-44 722 722 722>
Fore
-7 722 m 1,0,-1
 38 722 l 1,1,-1
 412 -44 l 1,2,-1
 371 -44 l 1,3,-1
 -7 722 l 1,0,-1
EndSplineSet
EndChar
StartChar: bracketright
Encoding: 93 93 62
Width: 284
VWidth: 1467
Flags: W
HStem: -117 30<0 147> 694 29<0 147>
VStem: 0 185<-117 -87 694 723 -117 723 -117 -117> 147 38<-87 694>
Fore
0 -117 m 1,0,-1
 0 -87 l 1,1,-1
 147 -87 l 1,2,-1
 147 694 l 1,3,-1
 0 694 l 1,4,-1
 0 723 l 1,5,-1
 185 723 l 1,6,-1
 185 -117 l 1,7,-1
 0 -117 l 1,0,-1
EndSplineSet
EndChar
StartChar: asciicircum
Encoding: 94 94 63
Width: 629
VWidth: 1467
Flags: W
HStem: 697 20G<309.5 322>
VStem: 85 462<210 210 210 210>
Fore
85 210 m 1,0,1
 126 255 126 255 163 317.5 c 128,-1,2
 200 380 200 380 230 448 c 128,-1,3
 260 516 260 516 282 586 c 128,-1,4
 304 656 304 656 315 717 c 1,5,6
 329 656 329 656 351 588.5 c 128,-1,7
 373 521 373 521 402 453.5 c 128,-1,8
 431 386 431 386 468 323 c 128,-1,9
 505 260 505 260 547 210 c 1,10,-1
 492 210 l 1,11,12
 437 289 437 289 388.5 385 c 128,-1,13
 340 481 340 481 318 588 c 1,14,15
 298 484 298 484 249 386.5 c 128,-1,16
 200 289 200 289 139 210 c 1,17,-1
 85 210 l 1,0,1
EndSplineSet
EndChar
StartChar: underscore
Encoding: 95 95 64
Width: 528
VWidth: 1467
Flags: W
HStem: -248 32<0 528>
Fore
0 -248 m 1,0,-1
 0 -216 l 1,1,-1
 528 -216 l 1,2,-1
 528 -248 l 1,3,-1
 0 -248 l 1,0,-1
EndSplineSet
EndChar
StartChar: grave
Encoding: 96 96 65
Width: 316
VWidth: 1467
Flags: W
HStem: 527 207<180 182 107 226 107 107>
Fore
107 734 m 1,0,-1
 182 734 l 1,1,-1
 226 527 l 1,2,-1
 180 527 l 1,3,-1
 107 734 l 1,0,-1
EndSplineSet
EndChar
StartChar: a
Encoding: 97 97 66
Width: 560
VWidth: 1467
Flags: W
HStem: -6 21G<458.5 471.5> 476 39.5<193.066 297.827>
VStem: 54 44<65.416 181.686> 421 47<106 299 334.922 386.238>
Fore
421 299 m 1,0,1
 393 279 393 279 367.5 266.5 c 128,-1,2
 342 254 342 254 308 248 c 0,3,4
 276 242 276 242 239 234.5 c 128,-1,5
 202 227 202 227 170.5 214.5 c 128,-1,6
 139 202 139 202 118.5 181.5 c 128,-1,7
 98 161 98 161 98 129 c 0,8,9
 98 89 98 89 122.5 62 c 128,-1,10
 147 35 147 35 185 31 c 0,11,12
 235 23 235 23 271 29 c 128,-1,13
 307 35 307 35 334.5 47.5 c 128,-1,14
 362 60 362 60 382.5 76 c 128,-1,15
 403 92 403 92 421 106 c 1,16,-1
 421 109 l 1,17,-1
 421 299 l 1,0,1
468 -6 m 1,18,19
 449 1 449 1 436.5 18 c 128,-1,20
 424 35 424 35 421 56 c 1,21,22
 408 45 408 45 383.5 30.5 c 128,-1,23
 359 16 359 16 327 5 c 128,-1,24
 295 -6 295 -6 255.5 -11 c 128,-1,25
 216 -16 216 -16 173 -7 c 0,26,27
 117 4 117 4 85.5 37 c 128,-1,28
 54 70 54 70 54 129 c 0,29,30
 54 179 54 179 79 206 c 128,-1,31
 104 233 104 233 142 247 c 128,-1,32
 180 261 180 261 225 267.5 c 128,-1,33
 270 274 270 274 308 283 c 0,34,35
 321 286 321 286 339.5 292.5 c 128,-1,36
 358 299 358 299 375 310 c 128,-1,37
 392 321 392 321 404.5 334.5 c 128,-1,38
 417 348 417 348 417 364 c 0,39,40
 417 384 417 384 405 407.5 c 128,-1,41
 393 431 393 431 370 447 c 0,42,43
 343 467 343 467 305.5 473.5 c 128,-1,44
 268 480 268 480 226.5 476 c 128,-1,45
 185 472 185 472 144 459.5 c 128,-1,46
 103 447 103 447 70 431 c 1,47,-1
 79 478 l 1,48,49
 116 496 116 496 157 505.5 c 128,-1,50
 198 515 198 515 240 515.5 c 128,-1,51
 282 516 282 516 321.5 508 c 128,-1,52
 361 500 361 500 395 484 c 0,53,54
 428 470 428 470 448 436.5 c 128,-1,55
 468 403 468 403 468 362 c 2,56,-1
 468 101 l 2,57,58
 468 78 468 78 472.5 60.5 c 128,-1,59
 477 43 477 43 502 23 c 1,60,61
 493 13 493 13 484 6.5 c 128,-1,62
 475 0 475 0 468 -6 c 1,18,19
EndSplineSet
Substitution2: "Single Substitution lookup 22 subtable" uni0E38
Substitution2: "Single Substitution lookup 22 subtable" uni0E38
EndChar
StartChar: b
Encoding: 98 98 67
Width: 630
VWidth: 1467
Flags: W
HStem: -6 38<301.375 413.546> 475.5 36<253.327 296.5 296.5 318.911 318.911 319.015 319.015 407.719> 684 20G<120 166>
VStem: 87 476<25 223 63.359 67.0934> 120 46<107 109 109 354 354 386 446 704> 516 47<155.579 265.359 265.359 269.093 269.093 312.5 323.5 365.773>
Fore
336 514 m 0,0,1
 399 509 399 509 444 482 c 128,-1,2
 489 455 489 455 516.5 414.5 c 128,-1,3
 544 374 544 374 556 323.5 c 128,-1,4
 568 273 568 273 563 223 c 0,5,6
 559 179 559 179 544.5 137 c 128,-1,7
 530 95 530 95 503.5 63.5 c 128,-1,8
 477 32 477 32 440 13 c 128,-1,9
 403 -6 403 -6 358 -6 c 0,10,11
 315 -6 315 -6 286 0 c 128,-1,12
 257 6 257 6 236.5 14.5 c 128,-1,13
 216 23 216 23 199.5 34 c 128,-1,14
 183 45 183 45 166 57 c 1,15,-1
 164 57 l 1,16,17
 161 37 161 37 150 19 c 128,-1,18
 139 1 139 1 120 -6 c 1,19,20
 113 1 113 1 104 8 c 128,-1,21
 95 15 95 15 87 25 c 1,22,23
 112 44 112 44 116 61.5 c 128,-1,24
 120 79 120 79 120 103 c 2,25,-1
 120 157 l 1,26,-1
 120 354 l 1,27,-1
 120 704 l 1,28,-1
 166 704 l 1,29,-1
 166 446 l 1,30,31
 179 465 179 465 202.5 478.5 c 128,-1,32
 226 492 226 492 252.5 500 c 128,-1,33
 279 508 279 508 301.5 511.5 c 128,-1,34
 324 515 324 515 336 514 c 0,0,1
516 227 m 0,35,36
 521 270 521 270 512 312.5 c 128,-1,37
 503 355 503 355 481 390 c 128,-1,38
 459 425 459 425 423 449.5 c 128,-1,39
 387 474 387 474 337 480 c 0,40,41
 320 481 320 481 296.5 475.5 c 128,-1,42
 273 470 273 470 248.5 458 c 128,-1,43
 224 446 224 446 202 427.5 c 128,-1,44
 180 409 180 409 166 386 c 1,45,-1
 166 354 l 1,46,-1
 164 354 l 1,47,-1
 164 109 l 1,48,-1
 166 109 l 1,49,-1
 166 107 l 1,50,51
 200 75 200 75 242.5 52 c 128,-1,52
 285 29 285 29 348 32 c 0,53,54
 384 34 384 34 414.5 50 c 128,-1,55
 445 66 445 66 466 93 c 128,-1,56
 487 120 487 120 500.5 154.5 c 128,-1,57
 514 189 514 189 516 227 c 0,35,36
EndSplineSet
Substitution2: "Single Substitution lookup 22 subtable" uni0E39
Substitution2: "Single Substitution lookup 22 subtable" uni0E39
EndChar
StartChar: c
Encoding: 99 99 68
Width: 619
VWidth: 1467
Flags: W
VStem: 101 47<104.876 407.124>
Fore
101 367 m 2,0,1
 101 405 101 405 126 433.5 c 128,-1,2
 151 462 151 462 185 483 c 0,3,4
 222 505 222 505 274.5 513 c 128,-1,5
 327 521 327 521 380.5 513.5 c 128,-1,6
 434 506 434 506 479.5 481 c 128,-1,7
 525 456 525 456 547 412 c 1,8,-1
 508 396 l 1,9,10
 492 434 492 434 456 454.5 c 128,-1,11
 420 475 420 475 376.5 480.5 c 128,-1,12
 333 486 333 486 290.5 479 c 128,-1,13
 248 472 248 472 219 455 c 0,14,15
 189 436 189 436 168.5 408 c 128,-1,16
 148 380 148 380 148 348 c 2,17,-1
 148 164 l 2,18,19
 148 132 148 132 168.5 104 c 128,-1,20
 189 76 189 76 219 57 c 0,21,22
 248 40 248 40 290.5 33 c 128,-1,23
 333 26 333 26 376.5 31.5 c 128,-1,24
 420 37 420 37 456 57.5 c 128,-1,25
 492 78 492 78 508 116 c 1,26,-1
 547 100 l 1,27,28
 525 56 525 56 479.5 31 c 128,-1,29
 434 6 434 6 380.5 -1.5 c 128,-1,30
 327 -9 327 -9 274.5 -1 c 128,-1,31
 222 7 222 7 185 29 c 0,32,33
 151 50 151 50 126 78.5 c 128,-1,34
 101 107 101 107 101 145 c 2,35,-1
 101 367 l 2,0,1
EndSplineSet
Substitution2: "Single Substitution lookup 22 subtable" uni0E3A
Substitution2: "Single Substitution lookup 22 subtable" uni0E3A
EndChar
StartChar: d
Encoding: 100 100 69
Width: 595
VWidth: 1467
Flags: W
HStem: -6 38<219.94 333.844> 480 34<224.668 315.573 315.573 315.787 315.787 381.704> 684 20G<470 514>
VStem: 72 45<155.579 265.359 265.359 266.435 266.435 312.5 323.5 362.881> 470 44<107 386 446 704>
Fore
514 103 m 2,0,1
 514 79 514 79 518 61.5 c 128,-1,2
 522 44 522 44 547 25 c 1,3,4
 537 15 537 15 528 8 c 128,-1,5
 519 1 519 1 512 -6 c 1,6,7
 494 1 494 1 484 19 c 128,-1,8
 474 37 474 37 470 57 c 1,9,10
 452 45 452 45 436 34 c 128,-1,11
 420 23 420 23 399.5 14.5 c 128,-1,12
 379 6 379 6 349.5 0 c 128,-1,13
 320 -6 320 -6 276 -6 c 0,14,15
 229 -6 229 -6 193 13 c 128,-1,16
 157 32 157 32 131.5 63.5 c 128,-1,17
 106 95 106 95 90.5 137 c 128,-1,18
 75 179 75 179 72 223 c 0,19,20
 67 273 67 273 79 323.5 c 128,-1,21
 91 374 91 374 118 414.5 c 128,-1,22
 145 455 145 455 190 482 c 128,-1,23
 235 509 235 509 298 514 c 0,24,25
 310 515 310 515 333.5 511.5 c 128,-1,26
 357 508 357 508 382.5 500 c 128,-1,27
 408 492 408 492 432 478.5 c 128,-1,28
 456 465 456 465 470 446 c 1,29,-1
 470 704 l 1,30,-1
 514 704 l 1,31,-1
 514 354 l 1,32,-1
 514 157 l 1,33,-1
 514 103 l 2,0,1
470 354 m 1,34,-1
 470 386 l 1,35,36
 455 409 455 409 432 427.5 c 128,-1,37
 409 446 409 446 385 458 c 128,-1,38
 361 470 361 470 338 475.5 c 128,-1,39
 315 481 315 481 298 480 c 0,40,41
 246 474 246 474 210.5 449.5 c 128,-1,42
 175 425 175 425 153 390 c 128,-1,43
 131 355 131 355 122 312.5 c 128,-1,44
 113 270 113 270 117 227 c 0,45,46
 120 189 120 189 133.5 154.5 c 128,-1,47
 147 120 147 120 168 93 c 128,-1,48
 189 66 189 66 219 50 c 128,-1,49
 249 34 249 34 288 32 c 0,50,51
 351 29 351 29 393.5 52 c 128,-1,52
 436 75 436 75 470 107 c 1,53,-1
 470 109 l 1,54,-1
 470 354 l 1,34,-1
EndSplineSet
EndChar
StartChar: e
Encoding: 101 101 70
Width: 619
VWidth: 1467
Flags: W
HStem: 220 40<150 376.215 376.215 432.539> 478 36<284.637 368.734>
VStem: 103 47<100.876 220 260 402.639> 508 44<309.546 346 346 401.125>
Fore
103 362 m 2,0,1
 103 401 103 401 128 429.5 c 128,-1,2
 153 458 153 458 186 478 c 0,3,4
 214 494 214 494 249.5 504 c 128,-1,5
 285 514 285 514 322 514 c 128,-1,6
 359 514 359 514 396 505 c 128,-1,7
 433 496 433 496 467 477 c 0,8,9
 499 458 499 458 524 424 c 128,-1,10
 549 390 549 390 552 351 c 0,11,12
 553 308 553 308 544.5 282.5 c 128,-1,13
 536 257 536 257 511 243 c 128,-1,14
 486 229 486 229 443.5 224.5 c 128,-1,15
 401 220 401 220 337 220 c 2,16,-1
 150 220 l 1,17,-1
 150 160 l 2,18,19
 150 128 150 128 171 100 c 128,-1,20
 192 72 192 72 222 53 c 0,21,22
 251 35 251 35 293.5 28.5 c 128,-1,23
 336 22 336 22 379.5 27 c 128,-1,24
 423 32 423 32 458 52.5 c 128,-1,25
 493 73 493 73 509 112 c 1,26,-1
 549 95 l 1,27,28
 527 51 527 51 481.5 26 c 128,-1,29
 436 1 436 1 382.5 -6 c 128,-1,30
 329 -13 329 -13 276 -5 c 128,-1,31
 223 3 223 3 186 25 c 0,32,33
 153 45 153 45 128 74 c 128,-1,34
 103 103 103 103 103 141 c 2,35,-1
 103 362 l 2,0,1
447 445 m 0,36,37
 421 462 421 462 391 470 c 128,-1,38
 361 478 361 478 331 478 c 128,-1,39
 301 478 301 478 272.5 471 c 128,-1,40
 244 464 244 464 222 450 c 0,41,42
 192 431 192 431 171 403.5 c 128,-1,43
 150 376 150 376 150 343 c 2,44,-1
 150 260 l 1,45,-1
 337 260 l 2,46,47
 383 260 383 260 415 260.5 c 128,-1,48
 447 261 447 261 468.5 270 c 128,-1,49
 490 279 490 279 499.5 296.5 c 128,-1,50
 509 314 509 314 508 346 c 0,51,52
 506 374 506 374 488 402 c 128,-1,53
 470 430 470 430 447 445 c 0,36,37
EndSplineSet
EndChar
StartChar: f
Encoding: 102 102 71
Width: 369
VWidth: 1467
Flags: W
HStem: -25 21G<99 112.5> 465 40<150 264> 668 38<234.328 315>
VStem: 103 47<45.5781 465 505 566.591>
Fore
315 706 m 1,0,-1
 315 668 l 1,1,-1
 289 668 l 2,2,3
 242 668 242 668 214 657 c 128,-1,4
 186 646 186 646 171.5 625 c 128,-1,5
 157 604 157 604 152.5 574 c 128,-1,6
 148 544 148 544 150 505 c 1,7,-1
 264 505 l 1,8,-1
 264 465 l 1,9,-1
 150 465 l 1,10,-1
 150 122 l 1,11,-1
 150 37 l 1,12,13
 147 16 147 16 134.5 -1 c 128,-1,14
 122 -18 122 -18 103 -25 c 1,15,16
 95 -19 95 -19 86.5 -12.5 c 128,-1,17
 78 -6 78 -6 69 4 c 1,18,19
 94 23 94 23 98.5 41 c 128,-1,20
 103 59 103 59 103 82 c 2,21,-1
 103 499 l 2,22,23
 103 558 103 558 111.5 597.5 c 128,-1,24
 120 637 120 637 141.5 661 c 128,-1,25
 163 685 163 685 199 695.5 c 128,-1,26
 235 706 235 706 291 706 c 2,27,-1
 315 706 l 1,0,-1
EndSplineSet
EndChar
StartChar: g
Encoding: 103 103 72
Width: 595
VWidth: 1467
Flags: W
HStem: -224 36<277 377.25> -9 21G<252.5 289> 474 37<205.939 321.917>
VStem: 455 45<-90.7271 -19 -19 59 120 399>
Fore
500 511 m 1,0,1
 512 500 512 500 534 481 c 1,2,3
 509 462 509 462 504.5 444.5 c 128,-1,4
 500 427 500 427 500 403 c 2,5,-1
 500 349 l 1,6,-1
 500 151 l 1,7,-1
 500 -19 l 1,8,-1
 500 -23 l 2,9,10
 500 -81 500 -81 492 -119.5 c 128,-1,11
 484 -158 484 -158 463.5 -181.5 c 128,-1,12
 443 -205 443 -205 408.5 -214.5 c 128,-1,13
 374 -224 374 -224 320 -224 c 2,14,-1
 277 -224 l 1,15,-1
 277 -188 l 1,16,-1
 323 -188 l 2,17,18
 368 -188 368 -188 394.5 -177 c 128,-1,19
 421 -166 421 -166 435.5 -145.5 c 128,-1,20
 450 -125 450 -125 454 -95.5 c 128,-1,21
 458 -66 458 -66 456 -26 c 2,22,-1
 456 -19 l 1,23,-1
 455 -19 l 1,24,-1
 455 59 l 1,25,26
 442 40 442 40 417.5 26.5 c 128,-1,27
 393 13 393 13 367.5 5 c 128,-1,28
 342 -3 342 -3 318.5 -6 c 128,-1,29
 295 -9 295 -9 283 -9 c 0,30,31
 222 -4 222 -4 177 23 c 128,-1,32
 132 50 132 50 104 91 c 128,-1,33
 76 132 76 132 64.5 182 c 128,-1,34
 53 232 53 232 57 283 c 0,35,36
 60 327 60 327 75.5 369 c 128,-1,37
 91 411 91 411 116.5 442.5 c 128,-1,38
 142 474 142 474 178 492.5 c 128,-1,39
 214 511 214 511 261 511 c 0,40,41
 305 511 305 511 334.5 505.5 c 128,-1,42
 364 500 364 500 384.5 491.5 c 128,-1,43
 405 483 405 483 421 472 c 128,-1,44
 437 461 437 461 455 447 c 1,45,-1
 455 449 l 1,46,47
 459 470 459 470 470 486.5 c 128,-1,48
 481 503 481 503 500 511 c 1,0,1
455 399 m 1,49,50
 421 430 421 430 378.5 453.5 c 128,-1,51
 336 477 336 477 273 474 c 0,52,53
 235 472 235 472 205 456 c 128,-1,54
 175 440 175 440 153.5 413 c 128,-1,55
 132 386 132 386 119 350.5 c 128,-1,56
 106 315 106 315 103 279 c 0,57,58
 98 236 98 236 107 193.5 c 128,-1,59
 116 151 116 151 138 116 c 128,-1,60
 160 81 160 81 196 56.5 c 128,-1,61
 232 32 232 32 283 26 c 0,62,63
 301 23 301 23 323.5 29 c 128,-1,64
 346 35 346 35 370.5 47.5 c 128,-1,65
 395 60 395 60 417.5 78.5 c 128,-1,66
 440 97 440 97 455 120 c 1,67,-1
 455 399 l 1,49,50
EndSplineSet
EndChar
StartChar: h
Encoding: 104 104 73
Width: 591
VWidth: 1467
Flags: W
HStem: 1 21G<104 151 464 508> 470 45<262.547 407.578> 686 20G<100.5 113.5>
VStem: 104 47<0 314.656 361 635.039> 464 44<1 343.387>
Fore
349 515 m 0,0,1
 390 515 390 515 419.5 499 c 128,-1,2
 449 483 449 483 469 455 c 128,-1,3
 489 427 489 427 498.5 389 c 128,-1,4
 508 351 508 351 508 308 c 2,5,-1
 508 1 l 1,6,-1
 464 1 l 1,7,-1
 464 286 l 2,8,9
 464 324 464 324 458.5 357 c 128,-1,10
 453 390 453 390 440 415 c 128,-1,11
 427 440 427 440 403 455 c 128,-1,12
 379 470 379 470 339 470 c 0,13,14
 295 470 295 470 262 449 c 128,-1,15
 229 428 229 428 206 393.5 c 128,-1,16
 183 359 183 359 169.5 316 c 128,-1,17
 156 273 156 273 151 229 c 2,18,-1
 151 0 l 1,19,-1
 104 0 l 1,20,-1
 104 1 l 1,21,-1
 104 403 l 1,22,-1
 104 544 l 1,23,-1
 104 599 l 2,24,25
 104 622 104 622 99.5 639.5 c 128,-1,26
 95 657 95 657 70 676 c 1,27,28
 79 687 79 687 88 693.5 c 128,-1,29
 97 700 97 700 104 706 c 1,30,31
 123 698 123 698 135.5 681.5 c 128,-1,32
 148 665 148 665 151 644 c 1,33,-1
 151 577 l 1,34,-1
 151 361 l 1,35,36
 173 440 173 440 220 477.5 c 128,-1,37
 267 515 267 515 349 515 c 0,0,1
EndSplineSet
EndChar
StartChar: i
Encoding: 105 105 74
Width: 246
VWidth: 1467
Flags: W
HStem: -26 21G<141 153.5> 584 21G<118.5 136.5>
VStem: 85 85<616.412 682.467> 103 48<40.0485 499>
Fore
151 81 m 2,0,1
 151 57 151 57 154.5 39.5 c 128,-1,2
 158 22 158 22 183 3 c 1,3,4
 175 -7 175 -7 166 -14 c 128,-1,5
 157 -21 157 -21 150 -26 c 1,6,7
 132 -19 132 -19 119 -2 c 128,-1,8
 106 15 106 15 103 35 c 1,9,-1
 103 120 l 1,10,-1
 103 499 l 1,11,-1
 151 499 l 1,12,-1
 151 120 l 1,13,-1
 151 81 l 2,0,1
128 698 m 1,14,15
 145 700 145 700 157.5 683 c 128,-1,16
 170 666 170 666 170 641 c 0,17,18
 170 618 170 618 157.5 601 c 128,-1,19
 145 584 145 584 128 584 c 0,20,21
 109 584 109 584 96.5 601 c 128,-1,22
 84 618 84 618 85 641 c 0,23,24
 85 666 85 666 97.5 683 c 128,-1,25
 110 700 110 700 128 698 c 1,14,15
EndSplineSet
EndChar
StartChar: j
Encoding: 106 106 75
Width: 313
VWidth: 1467
Flags: W
HStem: -226 40<6 19.4529 19.5468 79.0215> 584 21G<184.5 202.5>
VStem: 151 85<616.412 682.467> 172 48<-82.1891 499>
Fore
220 499 m 1,0,-1
 220 -18 l 2,1,2
 220 -76 220 -76 211 -116.5 c 128,-1,3
 202 -157 202 -157 181 -181 c 128,-1,4
 160 -205 160 -205 123.5 -214.5 c 128,-1,5
 87 -224 87 -224 31 -224 c 0,6,7
 23 -224 23 -224 22 -224 c 128,-1,8
 21 -224 21 -224 19.5 -225 c 128,-1,9
 18 -226 18 -226 15.5 -226 c 128,-1,10
 13 -226 13 -226 6 -226 c 1,11,-1
 6 -186 l 1,12,-1
 32 -186 l 2,13,14
 79 -186 79 -186 107.5 -175 c 128,-1,15
 136 -164 136 -164 150 -143 c 128,-1,16
 164 -122 164 -122 168.5 -91 c 128,-1,17
 173 -60 173 -60 172 -19 c 2,18,-1
 172 499 l 1,19,-1
 220 499 l 1,0,-1
194 698 m 1,20,21
 211 700 211 700 223.5 683 c 128,-1,22
 236 666 236 666 236 641 c 0,23,24
 236 618 236 618 223.5 601 c 128,-1,25
 211 584 211 584 194 584 c 0,26,27
 175 584 175 584 162.5 601 c 128,-1,28
 150 618 150 618 151 641 c 0,29,30
 151 666 151 666 163.5 683 c 128,-1,31
 176 700 176 700 194 698 c 1,20,21
EndSplineSet
EndChar
StartChar: k
Encoding: 107 107 76
Width: 559
VWidth: 1467
Flags: W
HStem: 1 21G<101 148 431 480> 482 20G<391.213 471> 687 20G<97.5 110.5>
VStem: 101 47<0 185 248 637.023> 431 49<1 205.989>
Fore
314 348 m 1,0,1
 346 343 346 343 376 332 c 128,-1,2
 406 321 406 321 429 300 c 128,-1,3
 452 279 452 279 466 245 c 128,-1,4
 480 211 480 211 480 161 c 2,5,-1
 480 1 l 1,6,-1
 431 1 l 1,7,-1
 431 160 l 2,8,9
 433 202 433 202 419.5 230 c 128,-1,10
 406 258 406 258 385 275.5 c 128,-1,11
 364 293 364 293 337 302 c 128,-1,12
 310 311 310 311 282 314 c 1,13,-1
 148 185 l 1,14,-1
 148 0 l 1,15,-1
 101 0 l 1,16,-1
 101 546 l 1,17,-1
 101 600 l 2,18,19
 101 624 101 624 96.5 641.5 c 128,-1,20
 92 659 92 659 67 678 c 1,21,22
 76 688 76 688 85 694.5 c 128,-1,23
 94 701 94 701 101 707 c 1,24,25
 120 700 120 700 132.5 683 c 128,-1,26
 145 666 145 666 148 646 c 1,27,-1
 148 574 l 1,28,-1
 148 248 l 1,29,-1
 412 502 l 1,30,-1
 471 502 l 1,31,-1
 314 348 l 1,0,1
EndSplineSet
EndChar
StartChar: l
Encoding: 108 108 77
Width: 240
VWidth: 1467
Flags: W
HStem: -26 21G<139.5 152> 684 20G<99 112.5>
VStem: 101 49<41.5637 637.952>
Fore
150 82 m 1,0,1
 150 59 150 59 153.5 41 c 128,-1,2
 157 23 157 23 182 4 c 1,3,4
 173 -6 173 -6 164.5 -12.5 c 128,-1,5
 156 -19 156 -19 148 -26 c 1,6,7
 131 -19 131 -19 117.5 -1.5 c 128,-1,8
 104 16 104 16 101 37 c 1,9,-1
 101 120 l 1,10,-1
 101 597 l 2,11,12
 101 621 101 621 97.5 638.5 c 128,-1,13
 94 656 94 656 69 675 c 1,14,15
 78 685 78 685 86.5 691.5 c 128,-1,16
 95 698 95 698 103 704 c 1,17,18
 122 697 122 697 134.5 680 c 128,-1,19
 147 663 147 663 150 643 c 1,20,-1
 150 580 l 1,21,-1
 150 82 l 1,0,1
EndSplineSet
EndChar
StartChar: m
Encoding: 109 109 78
Width: 724
VWidth: 1467
Flags: W
HStem: -29 21<103 151 346 390 626 637.5> 470.5 40<226.101 315.242>
VStem: 103 48<-1 232.938 377 431.039> 346 44<-1 57 57 239.034> 590 45<35.6868 363.625>
Fore
635 72 m 1,0,1
 635 50 635 50 639 33 c 128,-1,2
 643 16 643 16 666 -1 c 1,3,4
 657 -10 657 -10 649 -16.5 c 128,-1,5
 641 -23 641 -23 634 -29 c 1,6,7
 618 -22 618 -22 605.5 -6.5 c 128,-1,8
 593 9 593 9 590 28 c 1,9,-1
 590 122 l 1,10,-1
 590 283 l 2,11,12
 590 345 590 345 584 385 c 128,-1,13
 578 425 578 425 562 446 c 0,14,15
 543 471 543 471 513.5 469.5 c 128,-1,16
 484 468 484 468 465 443 c 0,17,18
 450 424 450 424 437 400.5 c 128,-1,19
 424 377 424 377 413.5 342.5 c 128,-1,20
 403 308 403 308 397.5 259.5 c 128,-1,21
 392 211 392 211 392 144 c 2,22,-1
 392 57 l 1,23,-1
 390 57 l 1,24,-1
 390 -1 l 1,25,-1
 346 -1 l 1,26,-1
 346 283 l 2,27,28
 346 345 346 345 340.5 385 c 128,-1,29
 335 425 335 425 318 446 c 0,30,31
 299 471 299 471 269 470.5 c 128,-1,32
 239 470 239 470 222 443 c 0,33,34
 208 424 208 424 195.5 394.5 c 128,-1,35
 183 365 183 365 173 329 c 128,-1,36
 163 293 163 293 157 253 c 128,-1,37
 151 213 151 213 151 172 c 2,38,-1
 151 151 l 1,39,-1
 151 -1 l 1,40,-1
 103 -1 l 1,41,-1
 103 57 l 1,42,-1
 103 395 l 2,43,44
 103 418 103 418 98.5 435.5 c 128,-1,45
 94 453 94 453 69 474 c 1,46,47
 78 483 78 483 86.5 490 c 128,-1,48
 95 497 95 497 103 503 c 1,49,50
 122 496 122 496 134.5 479 c 128,-1,51
 147 462 147 462 151 442 c 1,52,-1
 151 379 l 1,53,-1
 151 377 l 1,54,55
 163 420 163 420 178.5 449 c 128,-1,56
 194 478 194 478 213 493 c 0,57,58
 236 512 236 512 271.5 510.5 c 128,-1,59
 307 509 307 509 330 493 c 256,60,61
 354 477 354 477 366.5 451 c 128,-1,62
 379 425 379 425 384 392 c 1,63,64
 399 430 399 430 419.5 455.5 c 128,-1,65
 440 481 440 481 456 493 c 0,66,67
 481 509 481 509 515.5 509 c 128,-1,68
 550 509 550 509 574 493 c 0,69,70
 610 468 610 468 622.5 418 c 128,-1,71
 635 368 635 368 635 307 c 2,72,-1
 635 95 l 1,73,-1
 635 72 l 1,0,1
EndSplineSet
EndChar
StartChar: n
Encoding: 110 110 79
Width: 600
VWidth: 1467
Flags: W
HStem: -28 21<101 150 499 511.5> 468 47<272.113 408.057>
VStem: 101 49<0 283.953 318 436.952> 464 44<36.0487 342.705>
Fore
508 78 m 1,0,1
 508 53 508 53 511.5 35.5 c 128,-1,2
 515 18 515 18 538 0 c 1,3,4
 531 -9 531 -9 523 -15.5 c 128,-1,5
 515 -22 515 -22 508 -28 c 1,6,7
 490 -21 490 -21 478.5 -5.5 c 128,-1,8
 467 10 467 10 464 29 c 1,9,-1
 464 285 l 2,10,11
 464 323 464 323 458.5 356.5 c 128,-1,12
 453 390 453 390 440 415 c 128,-1,13
 427 440 427 440 403 454 c 128,-1,14
 379 468 379 468 339 468 c 0,15,16
 295 468 295 468 262 442.5 c 128,-1,17
 229 417 229 417 205.5 376 c 128,-1,18
 182 335 182 335 169 285.5 c 128,-1,19
 156 236 156 236 150 188 c 2,20,-1
 150 0 l 1,21,-1
 103 0 l 1,22,-1
 101 0 l 1,23,-1
 101 396 l 2,24,25
 101 420 101 420 97.5 437.5 c 128,-1,26
 94 455 94 455 69 475 c 1,27,28
 87 493 87 493 103 505 c 1,29,30
 120 497 120 497 133.5 480.5 c 128,-1,31
 147 464 147 464 150 443 c 1,32,-1
 150 318 l 1,33,34
 160 359 160 359 177.5 395 c 128,-1,35
 195 431 195 431 219.5 457.5 c 128,-1,36
 244 484 244 484 276 499.5 c 128,-1,37
 308 515 308 515 349 515 c 256,38,39
 390 515 390 515 419.5 499 c 128,-1,40
 449 483 449 483 469 455 c 128,-1,41
 489 427 489 427 498.5 389 c 128,-1,42
 508 351 508 351 508 308 c 2,43,-1
 508 78 l 1,0,1
EndSplineSet
EndChar
StartChar: o
Encoding: 111 111 80
Width: 604
VWidth: 1467
Flags: W
HStem: -13 36<214.2 391.285> 474 35<212.692 391.733>
VStem: 75.5 47<110.468 172 172 203.635 203.635 209.846 209.846 233.485 233.485 267.031 267.031 286.154 286.154 295.365 290.76 390.655> 486 45<110.468 387.105>
Fore
75 324 m 0,0,1
 75 386 75 386 108.5 427 c 128,-1,2
 142 468 142 468 193 488.5 c 128,-1,3
 244 509 244 509 303 509 c 128,-1,4
 362 509 362 509 413 488.5 c 128,-1,5
 464 468 464 468 497.5 427 c 128,-1,6
 531 386 531 386 531 324 c 2,7,-1
 531 172 l 2,8,9
 531 110 531 110 498 69 c 128,-1,10
 465 28 465 28 415 7.5 c 128,-1,11
 365 -13 365 -13 306.5 -13 c 128,-1,12
 248 -13 248 -13 198 7.5 c 128,-1,13
 148 28 148 28 113.5 69 c 128,-1,14
 79 110 79 110 78 172 c 0,15,16
 76 205 76 205 75.5 248 c 128,-1,17
 75 291 75 291 75 324 c 0,0,1
120 307 m 0,18,19
 120 299 120 299 121 283.5 c 128,-1,20
 122 268 122 268 122 250.5 c 128,-1,21
 122 233 122 233 122.5 216.5 c 128,-1,22
 123 200 123 200 123 191 c 0,23,24
 123 135 123 135 149.5 97.5 c 128,-1,25
 176 60 176 60 216.5 41.5 c 128,-1,26
 257 23 257 23 303 23 c 128,-1,27
 349 23 349 23 389.5 42.5 c 128,-1,28
 430 62 430 62 457 98.5 c 128,-1,29
 484 135 484 135 486 191 c 0,30,31
 486 213 486 213 486 221 c 128,-1,32
 486 229 486 229 486 236.5 c 128,-1,33
 486 244 486 244 486 257.5 c 128,-1,34
 486 271 486 271 486 305 c 0,35,36
 484 361 484 361 457 398.5 c 128,-1,37
 430 436 430 436 389.5 455 c 128,-1,38
 349 474 349 474 302 474 c 128,-1,39
 255 474 255 474 215 455.5 c 128,-1,40
 175 437 175 437 147.5 399.5 c 128,-1,41
 120 362 120 362 120 307 c 0,18,19
EndSplineSet
EndChar
StartChar: p
Encoding: 112 112 81
Width: 619
VWidth: 1467
Flags: W
HStem: -6 21G<315.5 352.5> 477 37<282.4 399.061>
VStem: 101 49<-186 62 123 402> 497.5 42.5<143.949 185 196.5 241.235 241.235 243.312 243.312 282 282 352.391>
Fore
547 286 m 0,0,1
 552 235 552 235 540 185 c 128,-1,2
 528 135 528 135 501 94 c 128,-1,3
 474 53 474 53 429 26 c 128,-1,4
 384 -1 384 -1 321 -6 c 0,5,6
 310 -6 310 -6 286.5 -3 c 128,-1,7
 263 0 263 0 237 8 c 128,-1,8
 211 16 211 16 187 29.5 c 128,-1,9
 163 43 163 43 150 62 c 1,10,-1
 150 -186 l 1,11,-1
 101 -186 l 1,12,-1
 101 154 l 1,13,-1
 101 352 l 1,14,-1
 101 406 l 2,15,16
 101 428 101 428 96.5 446.5 c 128,-1,17
 92 465 92 465 67 484 c 1,18,19
 78 493 78 493 86.5 500.5 c 128,-1,20
 95 508 95 508 103 514 c 1,21,22
 120 506 120 506 133.5 489 c 128,-1,23
 147 472 147 472 150 452 c 1,24,-1
 150 450 l 1,25,26
 167 464 167 464 183.5 475 c 128,-1,27
 200 486 200 486 220.5 494.5 c 128,-1,28
 241 503 241 503 270 508.5 c 128,-1,29
 299 514 299 514 343 514 c 0,30,31
 389 514 389 514 425.5 495.5 c 128,-1,32
 462 477 462 477 488 445.5 c 128,-1,33
 514 414 514 414 529 372 c 128,-1,34
 544 330 544 330 547 286 c 0,0,1
321 29 m 0,35,36
 373 35 373 35 409 59.5 c 128,-1,37
 445 84 445 84 467 119 c 128,-1,38
 489 154 489 154 497.5 196.5 c 128,-1,39
 506 239 506 239 502 282 c 0,40,41
 499 318 499 318 485.5 353.5 c 128,-1,42
 472 389 472 389 451 416 c 128,-1,43
 430 443 430 443 400 459 c 128,-1,44
 370 475 370 475 333 477 c 0,45,46
 268 478 268 478 225.5 455.5 c 128,-1,47
 183 433 183 433 150 402 c 1,48,-1
 150 123 l 1,49,50
 164 100 164 100 186 81.5 c 128,-1,51
 208 63 208 63 232.5 50.5 c 128,-1,52
 257 38 257 38 280.5 32 c 128,-1,53
 304 26 304 26 321 29 c 0,35,36
EndSplineSet
EndChar
StartChar: q
Encoding: 113 113 82
Width: 611
VWidth: 1467
Flags: W
HStem: -213 21G<507.5 520> -6 21G<266.5 304> 477 37<219.424 336.917>
VStem: 79 43<145.86 185 196.5 242.565 242.565 243.312 243.312 352.391> 470 48<-144.952 62 123 402>
Fore
518 -104 m 2,0,1
 518 -128 518 -128 521.5 -145.5 c 128,-1,2
 525 -163 525 -163 550 -182 c 1,3,4
 541 -192 541 -192 532.5 -198.5 c 128,-1,5
 524 -205 524 -205 516 -213 c 1,6,7
 499 -205 499 -205 485.5 -187.5 c 128,-1,8
 472 -170 472 -170 470 -150 c 1,9,-1
 470 -98 l 1,10,-1
 470 62 l 1,11,12
 456 43 456 43 432 29.5 c 128,-1,13
 408 16 408 16 382.5 8 c 128,-1,14
 357 0 357 0 333.5 -3 c 128,-1,15
 310 -6 310 -6 298 -6 c 0,16,17
 235 -1 235 -1 190 26 c 128,-1,18
 145 53 145 53 118 94 c 128,-1,19
 91 135 91 135 79 185 c 128,-1,20
 67 235 67 235 72 286 c 0,21,22
 75 330 75 330 90.5 372 c 128,-1,23
 106 414 106 414 131.5 445.5 c 128,-1,24
 157 477 157 477 193 495.5 c 128,-1,25
 229 514 229 514 276 514 c 0,26,27
 320 514 320 514 349.5 508.5 c 128,-1,28
 379 503 379 503 399.5 494.5 c 128,-1,29
 420 486 420 486 436 475 c 128,-1,30
 452 464 452 464 470 450 c 1,31,-1
 470 452 l 1,32,33
 472 472 472 472 485.5 489 c 128,-1,34
 499 506 499 506 516 514 c 1,35,36
 531 502 531 502 550 484 c 1,37,38
 525 465 525 465 521.5 446.5 c 128,-1,39
 518 428 518 428 518 406 c 2,40,-1
 518 -104 l 2,0,1
298 29 m 0,41,42
 315 26 315 26 338 32 c 128,-1,43
 361 38 361 38 385 50.5 c 128,-1,44
 409 63 409 63 432 81.5 c 128,-1,45
 455 100 455 100 470 123 c 1,46,-1
 470 154 l 1,47,-1
 470 399 l 1,48,-1
 470 402 l 1,49,50
 436 433 436 433 392.5 455.5 c 128,-1,51
 349 478 349 478 286 477 c 0,52,53
 248 475 248 475 218.5 459 c 128,-1,54
 189 443 189 443 168 416 c 128,-1,55
 147 389 147 389 133.5 353.5 c 128,-1,56
 120 318 120 318 117 282 c 0,57,58
 113 239 113 239 122 196.5 c 128,-1,59
 131 154 131 154 153 119 c 128,-1,60
 175 84 175 84 210.5 59.5 c 128,-1,61
 246 35 246 35 298 29 c 0,41,42
EndSplineSet
EndChar
StartChar: r
Encoding: 114 114 83
Width: 365
VWidth: 1467
Flags: W
HStem: -26 21G<99 112.5> 467 36<223.595 302.969 303.031 315>
VStem: 103 47<43.9766 81 81 269.47 408 503>
Fore
291 503 m 0,0,1
 298 503 298 503 300 503 c 128,-1,2
 302 503 302 503 303 504 c 128,-1,3
 304 505 304 505 306 505 c 128,-1,4
 308 505 308 505 315 505 c 1,5,-1
 315 467 l 1,6,-1
 289 467 l 2,7,8
 242 467 242 467 214 436.5 c 128,-1,9
 186 406 186 406 171.5 363 c 128,-1,10
 157 320 157 320 152.5 271 c 128,-1,11
 148 222 148 222 150 180 c 2,12,-1
 150 35 l 1,13,14
 147 15 147 15 134.5 -2 c 128,-1,15
 122 -19 122 -19 103 -26 c 1,16,17
 95 -21 95 -21 86.5 -14 c 128,-1,18
 78 -7 78 -7 69 3 c 1,19,20
 94 22 94 22 98.5 39.5 c 128,-1,21
 103 57 103 57 103 81 c 2,22,-1
 100 503 l 1,23,-1
 144 503 l 1,24,-1
 144 408 l 1,25,26
 166 450 166 450 202 477.5 c 128,-1,27
 238 505 238 505 291 503 c 0,0,1
EndSplineSet
EndChar
StartChar: s
Encoding: 115 115 84
Width: 490
VWidth: 1467
Flags: W
HStem: -12 37.5<164.11 189 206.5 226.234 226.234 230.242 228.238 294.333> 475 43<187.445 291.258>
VStem: 78 50<313.461 414.713> 389 48<97.4038 191.758>
Fore
389 134 m 0,0,1
 386 176 386 176 362.5 196.5 c 128,-1,2
 339 217 339 217 305 227.5 c 128,-1,3
 271 238 271 238 232.5 243.5 c 128,-1,4
 194 249 194 249 160 261.5 c 128,-1,5
 126 274 126 274 102.5 298.5 c 128,-1,6
 79 323 79 323 78 371 c 0,7,8
 75 408 75 408 89.5 436 c 128,-1,9
 104 464 104 464 129 482 c 128,-1,10
 154 500 154 500 185.5 509 c 128,-1,11
 217 518 217 518 251 518 c 0,12,13
 277 518 277 518 306 512 c 128,-1,14
 335 506 335 506 359 493 c 128,-1,15
 383 480 383 480 401.5 459.5 c 128,-1,16
 420 439 420 439 425 411 c 1,17,-1
 381 411 l 1,18,19
 376 434 376 434 362.5 446.5 c 128,-1,20
 349 459 349 459 331 465.5 c 128,-1,21
 313 472 313 472 291.5 473.5 c 128,-1,22
 270 475 270 475 248 475 c 0,23,24
 191 475 191 475 158 449 c 128,-1,25
 125 423 125 423 128 371 c 0,26,27
 129 330 129 330 152.5 311 c 128,-1,28
 176 292 176 292 210 282.5 c 128,-1,29
 244 273 244 273 282.5 268 c 128,-1,30
 321 263 321 263 354 249.5 c 128,-1,31
 387 236 387 236 410.5 210.5 c 128,-1,32
 434 185 434 185 437 134 c 0,33,34
 439 94 439 94 422.5 65.5 c 128,-1,35
 406 37 406 37 379 18.5 c 128,-1,36
 352 0 352 0 318.5 -9 c 128,-1,37
 285 -18 285 -18 249 -18 c 0,38,39
 220 -18 220 -18 189 -12 c 128,-1,40
 158 -6 158 -6 131 7.5 c 128,-1,41
 104 21 104 21 83.5 43 c 128,-1,42
 63 65 63 65 57 97 c 1,43,-1
 107 97 l 1,44,45
 114 72 114 72 129 57.5 c 128,-1,46
 144 43 144 43 163.5 35.5 c 128,-1,47
 183 28 183 28 206.5 25.5 c 128,-1,48
 230 23 230 23 254 23 c 0,49,50
 282 23 282 23 307 28.5 c 128,-1,51
 332 34 332 34 351 47 c 128,-1,52
 370 60 370 60 380 81.5 c 128,-1,53
 390 103 390 103 389 134 c 0,0,1
EndSplineSet
EndChar
StartChar: t
Encoding: 116 116 85
Width: 360
VWidth: 1467
Flags: W
HStem: -3 38<234.328 315> 464 38<150 264>
VStem: 103 47<136.538 464 502 622.023>
Fore
315 35 m 1,0,-1
 315 -3 l 1,1,-1
 291 -3 l 2,2,3
 235 -3 235 -3 199 7.5 c 128,-1,4
 163 18 163 18 141.5 42 c 128,-1,5
 120 66 120 66 111.5 105.5 c 128,-1,6
 103 145 103 145 103 205 c 2,7,-1
 103 585 l 2,8,9
 103 609 103 609 98.5 626.5 c 128,-1,10
 94 644 94 644 69 665 c 1,11,12
 87 682 87 682 103 694 c 1,13,14
 122 687 122 687 134.5 670 c 128,-1,15
 147 653 147 653 150 632 c 1,16,-1
 150 582 l 1,17,-1
 150 502 l 1,18,-1
 264 502 l 1,19,-1
 264 464 l 1,20,-1
 150 464 l 1,21,-1
 150 202 l 2,22,23
 148 163 148 163 152.5 131.5 c 128,-1,24
 157 100 157 100 171.5 79.5 c 128,-1,25
 186 59 186 59 214 47 c 128,-1,26
 242 35 242 35 289 35 c 2,27,-1
 315 35 l 1,0,-1
EndSplineSet
EndChar
StartChar: u
Encoding: 117 117 86
Width: 592
VWidth: 1467
Flags: W
HStem: -16 37<266.712 366.335> 483 20G<103 150 452 499>
VStem: 103 47<119.034 503> 452 47<122.002 145 160.219 502>
Fore
499 92 m 1,0,1
 499 70 499 70 502.5 52.5 c 128,-1,2
 506 35 506 35 531 16 c 1,3,4
 522 7 522 7 513.5 0.5 c 128,-1,5
 505 -6 505 -6 497 -12 c 1,6,7
 480 -4 480 -4 467.5 12 c 128,-1,8
 455 28 455 28 452 48 c 1,9,10
 423 16 423 16 383 0 c 128,-1,11
 343 -16 343 -16 301 -16 c 0,12,13
 264 -16 264 -16 228 -3.5 c 128,-1,14
 192 9 192 9 164 33 c 128,-1,15
 136 57 136 57 119.5 92.5 c 128,-1,16
 103 128 103 128 103 175 c 2,17,-1
 103 503 l 1,18,-1
 150 503 l 1,19,-1
 150 194 l 2,20,21
 150 151 150 151 163 118 c 128,-1,22
 176 85 176 85 198 63 c 128,-1,23
 220 41 220 41 247 31 c 128,-1,24
 274 21 274 21 304 21 c 0,25,26
 332 22 332 22 358 33.5 c 128,-1,27
 384 45 384 45 405.5 67 c 128,-1,28
 427 89 427 89 439.5 121 c 128,-1,29
 452 153 452 153 452 194 c 2,30,-1
 452 502 l 1,31,-1
 499 502 l 1,32,-1
 499 175 l 2,33,34
 499 167 499 167 498 160 c 128,-1,35
 497 153 497 153 496 145 c 1,36,-1
 499 145 l 1,37,-1
 499 92 l 1,0,1
EndSplineSet
EndChar
StartChar: v
Encoding: 118 118 87
Width: 473
VWidth: 1467
Flags: W
HStem: -10 38<214.798 238> 482 20G<57 108.633 363.601 415>
VStem: 57 358<486.75 502 502 502 771.105 865.295>
Fore
335 153 m 2,0,1
 327 123 327 123 321 94 c 128,-1,2
 315 65 315 65 305 41.5 c 128,-1,3
 295 18 295 18 279 4 c 128,-1,4
 263 -10 263 -10 238 -10 c 256,5,6
 213 -10 213 -10 198 0 c 128,-1,7
 183 10 183 10 173.5 29 c 128,-1,8
 164 48 164 48 157 75.5 c 128,-1,9
 150 103 150 103 141 136 c 2,10,-1
 57 502 l 1,11,-1
 104 502 l 1,12,-1
 183 161 l 2,13,14
 185 154 185 154 188.5 132 c 128,-1,15
 192 110 192 110 198.5 86.5 c 128,-1,16
 205 63 205 63 214.5 45.5 c 128,-1,17
 224 28 224 28 238 28 c 0,18,19
 251 29 251 29 260.5 47 c 128,-1,20
 270 65 270 65 276.5 87 c 128,-1,21
 283 109 283 109 287 131 c 128,-1,22
 291 153 291 153 293 161 c 2,23,-1
 368 502 l 1,24,-1
 415 502 l 1,25,-1
 335 153 l 2,0,1
EndSplineSet
EndChar
StartChar: w
Encoding: 119 119 88
Width: 682
VWidth: 1467
Flags: W
HStem: 0 21G<141.62 216 457 533.618> 483 20G<60 110.608 563.5 621>
Fore
145 0 m 1,0,-1
 60 503 l 1,1,-1
 107 503 l 1,2,-1
 188 54 l 1,3,4
 211 69 211 69 232.5 105 c 128,-1,5
 254 141 254 141 272.5 188 c 128,-1,6
 291 235 291 235 307.5 289 c 128,-1,7
 324 343 324 343 339 393 c 1,8,9
 357 343 357 343 372 290.5 c 128,-1,10
 387 238 387 238 404 190 c 128,-1,11
 421 142 421 142 441 107 c 128,-1,12
 461 72 461 72 486 57 c 1,13,14
 503 150 503 150 527.5 269.5 c 128,-1,15
 552 389 552 389 575 503 c 1,16,-1
 621 503 l 1,17,-1
 530 0 l 1,18,-1
 487 0 l 1,19,20
 427 32 427 32 397.5 102 c 128,-1,21
 368 172 368 172 340 266 c 1,22,23
 313 172 313 172 278.5 103 c 128,-1,24
 244 34 244 34 188 0 c 1,25,-1
 145 0 l 1,0,-1
EndSplineSet
EndChar
StartChar: x
Encoding: 120 120 89
Width: 536
VWidth: 1467
Flags: W
HStem: 0 21G<41 116.64 412.645 489> 482 20G<41 116.64 412.645 490>
VStem: 41 449<0 502 1.53064e-18 1.53064e-18>
Fore
101 502 m 1,0,-1
 266 291 l 1,1,-1
 428 502 l 1,2,-1
 490 502 l 1,3,-1
 295 251 l 1,4,-1
 489 0 l 1,5,-1
 428 0 l 1,6,-1
 266 211 l 1,7,-1
 101 0 l 1,8,-1
 41 0 l 1,9,-1
 235 251 l 1,10,-1
 41 502 l 1,11,-1
 101 502 l 1,0,-1
EndSplineSet
EndChar
StartChar: y
Encoding: 121 121 90
Width: 592
VWidth: 1467
Flags: W
HStem: -226 40<283 296.453 296.547 367.625> -15 37<266.458 375.914> 483 20G<101 148>
VStem: 101 47<121.033 176 176 503> 449 48<-85.1305 48 98.5 464.307>
Fore
530 503 m 1,0,1
 505 484 505 484 501 467 c 128,-1,2
 497 450 497 450 497 427 c 2,3,-1
 497 -18 l 2,4,5
 497 -76 497 -76 488.5 -116.5 c 128,-1,6
 480 -157 480 -157 458.5 -181 c 128,-1,7
 437 -205 437 -205 400.5 -214.5 c 128,-1,8
 364 -224 364 -224 308 -224 c 0,9,10
 301 -224 301 -224 299.5 -224 c 128,-1,11
 298 -224 298 -224 296.5 -225 c 128,-1,12
 295 -226 295 -226 293 -226 c 128,-1,13
 291 -226 291 -226 283 -226 c 1,14,-1
 283 -186 l 1,15,16
 291 -186 291 -186 293 -186 c 128,-1,17
 295 -186 295 -186 296.5 -186 c 128,-1,18
 298 -186 298 -186 300 -186 c 128,-1,19
 302 -186 302 -186 311 -186 c 0,20,21
 358 -186 358 -186 386 -175 c 128,-1,22
 414 -164 414 -164 428.5 -143.5 c 128,-1,23
 443 -123 443 -123 446.5 -91.5 c 128,-1,24
 450 -60 450 -60 449 -21 c 2,25,-1
 449 48 l 1,26,27
 420 18 420 18 381 1.5 c 128,-1,28
 342 -15 342 -15 299 -15 c 0,29,30
 263 -15 263 -15 227 -2.5 c 128,-1,31
 191 10 191 10 163 34.5 c 128,-1,32
 135 59 135 59 118 94 c 128,-1,33
 101 129 101 129 101 176 c 2,34,-1
 101 503 l 1,35,-1
 148 503 l 1,36,-1
 148 195 l 2,37,38
 148 153 148 153 161.5 120 c 128,-1,39
 175 87 175 87 197 65 c 128,-1,40
 219 43 219 43 246.5 32.5 c 128,-1,41
 274 22 274 22 304 22 c 0,42,43
 355 23 355 23 397.5 60 c 128,-1,44
 440 97 440 97 449 166 c 2,45,-1
 450 472 l 1,46,47
 455 492 455 492 466.5 508.5 c 128,-1,48
 478 525 478 525 497 533 c 1,49,50
 505 527 505 527 513 519.5 c 128,-1,51
 521 512 521 512 530 503 c 1,0,1
EndSplineSet
EndChar
StartChar: z
Encoding: 122 122 91
Width: 619
VWidth: 1467
Flags: W
HStem: -1 49<181.147 534> 458 44<98 461>
VStem: 98 436<459 502 48 116 458 458>
Fore
534 48 m 1,0,-1
 534 -1 l 1,1,-1
 230 -1 l 2,2,3
 192 -1 192 -1 166.5 10 c 128,-1,4
 141 21 141 21 124 37.5 c 128,-1,5
 107 54 107 54 99 74.5 c 128,-1,6
 91 95 91 95 91 116 c 1,7,8
 98 123 98 123 127 149.5 c 128,-1,9
 156 176 156 176 194.5 211 c 128,-1,10
 233 246 233 246 277 286 c 128,-1,11
 321 326 321 326 359.5 361 c 128,-1,12
 398 396 398 396 425.5 421.5 c 128,-1,13
 453 447 453 447 461 456 c 1,14,-1
 98 458 l 1,15,-1
 98 503 l 1,16,-1
 534 502 l 1,17,-1
 534 459 l 1,18,-1
 154 104 l 1,19,20
 160 84 160 84 180.5 66 c 128,-1,21
 201 48 201 48 246 48 c 2,22,-1
 534 48 l 1,0,-1
EndSplineSet
EndChar
StartChar: braceleft
Encoding: 123 123 92
Width: 255
VWidth: 1467
Flags: W
HStem: 715 35<186.573 249.094>
VStem: 6 251<-116 310 521 783.422> 104 41<14.2916 260 362 624.422>
Fore
257 -116 m 1,0,1
 188 -100 188 -100 146 -38.5 c 128,-1,2
 104 23 104 23 104 151 c 2,3,-1
 104 260 l 1,4,5
 79 276 79 276 54 288.5 c 128,-1,6
 29 301 29 301 6 310 c 1,7,8
 29 318 29 318 54 332 c 128,-1,9
 79 346 79 346 104 362 c 1,10,-1
 104 484 l 2,11,12
 104 610 104 610 146 672 c 128,-1,13
 188 734 188 734 257 750 c 1,14,-1
 257 715 l 1,15,16
 202 698 202 698 173 640 c 128,-1,17
 144 582 144 582 145 486 c 2,18,-1
 145 370 l 1,19,-1
 145 364 l 2,20,21
 145 361 145 361 144.5 359.5 c 0,22,-1
 141 352 l 0,23,24
 138 348 138 348 132 342 c 0,25,26
 129 339 129 339 126 337 c 0,27,28
 100 320 100 320 78 313 c 1,29,30
 100 305 100 305 126 288 c 0,31,32
 128 286 128 286 131 285 c 256,33,34
 134 283 134 283 135 281 c 128,-1,35
 136 279 136 279 139 276 c 1,36,-1
 144 263 l 2,37,38
 145 258 145 258 145 255 c 2,39,-1
 145 150 l 2,40,41
 144 53 144 53 174.5 -3.5 c 128,-1,42
 205 -60 205 -60 257 -78 c 1,43,-1
 257 -116 l 1,0,1
EndSplineSet
EndChar
StartChar: bar
Encoding: 124 124 93
Width: 231
VWidth: 1467
Flags: W
HStem: -261 1052<104 139 104 139 104 104>
VStem: 104 35<-261 791>
Fore
104 -261 m 1,0,-1
 104 791 l 1,1,-1
 139 791 l 1,2,-1
 139 -261 l 1,3,-1
 104 -261 l 1,0,-1
EndSplineSet
EndChar
StartChar: braceright
Encoding: 125 125 94
Width: 262
VWidth: 1467
Flags: W
HStem: 715 35<11.0164 39.3116>
VStem: 3 251<-78 310 134 321.812> 116 41<14.2916 260 362 549.812>
Fore
3 -78 m 1,0,1
 56 -60 56 -60 86.5 -3.5 c 128,-1,2
 117 53 117 53 116 150 c 2,3,-1
 116 255 l 1,4,5
 114 258 114 258 116 263 c 2,6,7
 116 267 116 267 122 276 c 2,8,9
 125 283 125 283 129 285 c 0,10,11
 132 286 132 286 134 288 c 0,12,13
 158 304 158 304 183 313 c 1,14,15
 158 321 158 321 134 337 c 1,16,-1
 129 342 l 2,17,18
 126 345 126 345 124 347 c 128,-1,19
 122 349 122 349 120 352 c 0,20,21
 116 358 116 358 116 364 c 2,22,-1
 116 370 l 1,23,-1
 116 486 l 2,24,25
 117 582 117 582 88 640 c 128,-1,26
 59 698 59 698 3 715 c 1,27,-1
 3 750 l 1,28,29
 37 742 37 742 65.5 723 c 128,-1,30
 94 704 94 704 114.5 672.5 c 128,-1,31
 135 641 135 641 146 594 c 128,-1,32
 157 547 157 547 157 484 c 2,33,-1
 157 362 l 1,34,35
 182 346 182 346 207 332 c 128,-1,36
 232 318 232 318 254 310 c 1,37,38
 232 301 232 301 207 288.5 c 128,-1,39
 182 276 182 276 157 260 c 1,40,-1
 157 151 l 2,41,42
 157 23 157 23 113.5 -38.5 c 128,-1,43
 70 -100 70 -100 3 -116 c 1,44,-1
 3 -78 l 1,0,1
EndSplineSet
EndChar
StartChar: asciitilde
Encoding: 126 126 95
Width: 658
VWidth: 1467
Flags: W
HStem: 227 43<432.098 529.548> 332 42<125.459 248.453>
VStem: 62 29<227 296.441> 574 30<302.135 374>
Fore
604 374 m 1,0,-1
 604 364 l 2,1,2
 604 326 604 326 594 300 c 128,-1,3
 584 274 584 274 567 258 c 128,-1,4
 550 242 550 242 529.5 234.5 c 128,-1,5
 509 227 509 227 487 227 c 0,6,7
 459 227 459 227 424.5 236 c 128,-1,8
 390 245 390 245 324 274 c 0,9,10
 289 291 289 291 254 311.5 c 128,-1,11
 219 332 219 332 180 332 c 0,12,13
 145 332 145 332 118 303 c 128,-1,14
 91 274 91 274 91 227 c 1,15,-1
 62 227 l 1,16,-1
 62 238 l 2,17,18
 62 302 62 302 98 338 c 128,-1,19
 134 374 134 374 180 374 c 0,20,21
 213 374 213 374 245 359.5 c 128,-1,22
 277 345 277 345 337 317 c 0,23,24
 373 301 373 301 412.5 285.5 c 128,-1,25
 452 270 452 270 490 270 c 0,26,27
 525 270 525 270 549.5 298.5 c 128,-1,28
 574 327 574 327 574 374 c 1,29,-1
 604 374 l 1,0,-1
EndSplineSet
EndChar
StartChar: uni0E33.alt1
Encoding: 65539 -1 96
Width: 462
VWidth: 1467
Flags: W
HStem: 555 38<127.059 237.295> 619 25<-322.554 -289.719> 766 23<-348.498 -268.949>
VStem: -402 37<675.389 746.893> -249 35<673.222 744.189> 323 44<12 445.513>
Fore
154 593 m 0,0,1
 200 593 200 593 238.5 578 c 128,-1,2
 277 563 277 563 306 537.5 c 128,-1,3
 335 512 335 512 351 477 c 128,-1,4
 367 442 367 442 367 402 c 2,5,-1
 367 12 l 1,6,-1
 323 12 l 1,7,-1
 323 373 l 2,8,9
 323 415 323 415 311 446.5 c 128,-1,10
 299 478 299 478 279 505 c 0,11,12
 236 555 236 555 160 555 c 0,13,14
 131 555 131 555 101 544 c 1,15,-1
 110 590 l 1,16,17
 122 593 122 593 132 593 c 128,-1,18
 142 593 142 593 154 593 c 0,0,1
-307 789 m 2,19,20
 -268 789 -268 789 -241 764 c 128,-1,21
 -214 739 -214 739 -214 704 c 256,22,23
 -214 669 -214 669 -241 644 c 128,-1,24
 -268 619 -268 619 -307 619 c 2,25,-1
 -308 619 l 2,26,27
 -346 619 -346 619 -374 644 c 128,-1,28
 -402 669 -402 669 -402 704 c 0,29,30
 -402 741 -402 741 -374 765 c 128,-1,31
 -346 789 -346 789 -308 789 c 2,32,-1
 -307 789 l 2,19,20
-305 644 m 2,33,34
 -295 644 -295 644 -284.5 650 c 128,-1,35
 -274 656 -274 656 -266 664.5 c 128,-1,36
 -258 673 -258 673 -253.5 684 c 128,-1,37
 -249 695 -249 695 -249 704 c 0,38,39
 -249 722 -249 722 -267 742.5 c 128,-1,40
 -285 763 -285 763 -307 766 c 2,41,-1
 -308 766 l 2,42,43
 -333 766 -333 766 -349 744 c 128,-1,44
 -365 722 -365 722 -365 704 c 0,45,46
 -365 695 -365 695 -360 685 c 128,-1,47
 -355 675 -355 675 -347 666 c 128,-1,48
 -339 657 -339 657 -328.5 650.5 c 128,-1,49
 -318 644 -318 644 -307 644 c 2,50,-1
 -305 644 l 2,33,34
EndSplineSet
EndChar
StartChar: quotedbl
Encoding: 34 34 97
Width: 318
VWidth: 1467
Flags: W
HStem: 525 207<72 117 204 249>
VStem: 57 207<685.233 732 732 734 732 732>
Fore
249 525 m 1,0,-1
 204 525 l 1,1,-1
 189 732 l 1,2,-1
 264 734 l 1,3,-1
 249 525 l 1,0,-1
117 525 m 1,4,-1
 72 525 l 1,5,-1
 57 732 l 1,6,-1
 132 734 l 1,7,-1
 117 525 l 1,4,-1
EndSplineSet
EndChar
StartChar: exclam
Encoding: 33 33 98
Width: 227
VWidth: 1467
Flags: W
HStem: 0 139<81.9855 153.014> 705 20G<84 153>
VStem: 66 103<21.6272 118.888> 84 69<573.042 725> 94 47<204 355.958>
Fore
117 139 m 0,0,1
 139 139 139 139 154 119.5 c 128,-1,2
 169 100 169 100 169 70 c 256,3,4
 169 41 169 41 153.5 21 c 128,-1,5
 138 1 138 1 117 0 c 0,6,7
 95 1 95 1 80 21 c 128,-1,8
 65 41 65 41 66 70 c 0,9,10
 66 100 66 100 81.5 119.5 c 128,-1,11
 97 139 97 139 117 139 c 0,0,1
94 204 m 1,12,-1
 84 725 l 1,13,-1
 153 725 l 1,14,-1
 141 204 l 1,15,-1
 94 204 l 1,12,-1
EndSplineSet
EndChar
StartChar: uni0E4E.alt1
Encoding: 65540 -1 99
Width: 0
VWidth: 1467
Flags: W
HStem: 651 31<-318.901 -242.298> 803 19<-262.514 -222> 933 34<-236.719 -157.247>
VStem: -393 60<688.089 769.777> -326 55<838.129 923.285>
Fore
-151 967 m 1,0,-1
 -163 933 l 1,1,2
 -271 951 -271 951 -271 873 c 0,3,4
 -271 828 -271 828 -211 826 c 1,5,-1
 -222 803 l 1,6,7
 -333 792 -333 792 -333 717 c 0,8,9
 -330 671 -330 671 -229 682 c 1,10,-1
 -239 651 l 1,11,12
 -390 629 -390 629 -393 709 c 0,13,14
 -393 808 -393 808 -277 822 c 1,15,16
 -326 842 -326 842 -326 883 c 0,17,18
 -320 998 -320 998 -151 967 c 1,0,-1
EndSplineSet
EndChar
StartChar: exclamdown
Encoding: 161 161 100
Width: 217
VWidth: 1467
Flags: W
HStem: 373 139<66.9857 138.015>
VStem: 51 103<393.112 471.777> 70 69<-210 -59.2083> 82 47<156.208 307>
Fore
70 -210 m 1,0,-1
 82 307 l 1,1,-1
 129 307 l 1,2,-1
 139 -210 l 1,3,-1
 70 -210 l 1,0,-1
103 373 m 0,4,5
 81 373 81 373 66 392.5 c 128,-1,6
 51 412 51 412 51 442 c 256,7,8
 51 471 51 471 66.5 491 c 128,-1,9
 82 511 82 511 103 512 c 0,10,11
 125 511 125 511 140.5 491 c 128,-1,12
 156 471 156 471 154 442 c 0,13,14
 154 412 154 412 138.5 392.5 c 128,-1,15
 123 373 123 373 103 373 c 0,4,5
EndSplineSet
EndChar
StartChar: cent
Encoding: 162 162 101
Width: 626
VWidth: 1467
Flags: W
HStem: -18 21G<304 339> 91 35<231.759 304 339 438.983> 575 35<234.214 304 339 438.983> 700 20G<304 339>
VStem: 101 47<198.876 501.124> 304 35<-18 89 126 575 612 720>
Fore
339 123 m 1,0,1
 392 123 392 123 440.5 143 c 128,-1,2
 489 163 489 163 508 210 c 1,3,-1
 547 194 l 1,4,5
 521 141 521 141 462 116 c 128,-1,6
 403 91 403 91 339 89 c 1,7,-1
 339 -18 l 1,8,-1
 304 -18 l 1,9,-1
 304 91 l 1,10,11
 236 95 236 95 185 123 c 0,12,13
 151 144 151 144 126 172.5 c 128,-1,14
 101 201 101 201 101 239 c 2,15,-1
 101 461 l 2,16,17
 101 499 101 499 126 527.5 c 128,-1,18
 151 556 151 556 185 577 c 0,19,20
 235 606 235 606 304 610 c 1,21,-1
 304 720 l 1,22,-1
 339 720 l 1,23,-1
 339 612 l 1,24,25
 403 610 403 610 462 585 c 128,-1,26
 521 560 521 560 547 506 c 1,27,-1
 508 490 l 1,28,29
 489 537 489 537 440.5 557.5 c 128,-1,30
 392 578 392 578 339 578 c 1,31,-1
 339 123 l 1,0,1
219 151 m 0,32,33
 255 131 255 131 304 126 c 1,34,-1
 304 575 l 1,35,36
 254 568 254 568 219 549 c 0,37,38
 189 530 189 530 168.5 502 c 128,-1,39
 148 474 148 474 148 442 c 2,40,-1
 148 258 l 2,41,42
 148 226 148 226 168.5 198 c 128,-1,43
 189 170 189 170 219 151 c 0,32,33
EndSplineSet
EndChar
StartChar: sterling
Encoding: 163 163 102
Width: 560
VWidth: 1467
Flags: W
HStem: -1 44<172 541> 321 41<98 217 264 434> 662 35<313.599 437.749>
VStem: 97 444<-1 31> 205.5 40.5<362.784 421 424 462.31 462.31 465.917 464.113 580.531> 231 39.5<192.426 251.335 251.335 255 255 291.365 291.365 302.521 302.521 321>
Fore
97 -1 m 1,0,-1
 97 31 l 1,1,2
 169 70 169 70 200.5 123 c 128,-1,3
 232 176 232 176 232 235 c 0,4,5
 232 255 232 255 231 275 c 128,-1,6
 230 295 230 295 226 321 c 1,7,-1
 98 321 l 1,8,-1
 97 362 l 1,9,-1
 217 362 l 1,10,11
 211 387 211 387 205.5 424 c 128,-1,12
 200 461 200 461 200 494 c 0,13,14
 200 538 200 538 214.5 575.5 c 128,-1,15
 229 613 229 613 254.5 639.5 c 128,-1,16
 280 666 280 666 315.5 681.5 c 128,-1,17
 351 697 351 697 393 697 c 0,18,19
 439 697 439 697 467.5 687.5 c 128,-1,20
 496 678 496 678 516 669 c 1,21,-1
 499 637 l 1,22,23
 483 644 483 644 456.5 653 c 128,-1,24
 430 662 430 662 392 662 c 0,25,26
 321 662 321 662 281 614 c 128,-1,27
 241 566 241 566 241 493 c 0,28,29
 241 455 241 455 246 421 c 128,-1,30
 251 387 251 387 257 362 c 1,31,-1
 434 362 l 1,32,-1
 436 321 l 1,33,-1
 264 321 l 1,34,35
 266 308 l 2,36,37
 268 295 268 295 269.5 274.5 c 128,-1,38
 271 254 271 254 270.5 228 c 128,-1,39
 270 202 270 202 264 178 c 0,40,41
 257 135 257 135 228.5 98.5 c 128,-1,42
 200 62 200 62 172 43 c 1,43,-1
 541 43 l 1,44,-1
 541 -1 l 1,45,-1
 97 -1 l 1,0,-1
EndSplineSet
EndChar
StartChar: currency
Encoding: 164 164 103
Width: 664
VWidth: 1467
Flags: W
HStem: 31 36<245.103 418.872> 518 36<284.136 416.233>
VStem: 103.5 47<149.411 247.635 247.635 253.846 253.846 277.727 277.727 311.546 311.546 330.154 330.154 339.608 334.881 437.208> 514 45<185.296 399.168>
Fore
568 34 m 1,0,-1
 509 94 l 1,1,2
 477 63 477 63 431.5 47 c 128,-1,3
 386 31 386 31 337.5 31 c 128,-1,4
 289 31 289 31 243 45.5 c 128,-1,5
 197 60 197 60 163 89 c 1,6,-1
 106 31 l 1,7,-1
 79 57 l 1,8,-1
 136 119 l 1,9,10
 106 161 106 161 106 216 c 0,11,12
 104 249 104 249 103.5 292 c 128,-1,13
 103 335 103 335 103 368 c 0,14,15
 103 431 103 431 139 475 c 1,16,-1
 88 528 l 1,17,-1
 116 558 l 1,18,-1
 169 503 l 1,19,20
 202 530 202 530 246.5 542.5 c 128,-1,21
 291 555 291 555 336 554 c 128,-1,22
 381 553 381 553 424.5 539 c 128,-1,23
 468 525 468 525 500 497 c 1,24,-1
 559 556 l 1,25,-1
 587 528 l 1,26,-1
 528 468 l 1,27,28
 543 447 543 447 551 422.5 c 128,-1,29
 559 398 559 398 559 368 c 2,30,-1
 559 216 l 2,31,32
 559 188 559 188 551.5 165 c 128,-1,33
 544 142 544 142 533 123 c 1,34,-1
 594 60 l 1,35,-1
 568 34 l 1,0,-1
151 235 m 0,36,37
 151 179 151 179 177.5 141.5 c 128,-1,38
 204 104 204 104 244.5 85.5 c 128,-1,39
 285 67 285 67 331 67 c 128,-1,40
 377 67 377 67 417.5 86.5 c 128,-1,41
 458 106 458 106 485 142.5 c 128,-1,42
 512 179 512 179 514 235 c 0,43,44
 514 257 514 257 514 265 c 128,-1,45
 514 273 514 273 514 280.5 c 128,-1,46
 514 288 514 288 514 301.5 c 128,-1,47
 514 315 514 315 514 349 c 0,48,49
 512 405 512 405 485 442.5 c 128,-1,50
 458 480 458 480 417.5 499 c 128,-1,51
 377 518 377 518 330 518 c 128,-1,52
 283 518 283 518 242.5 499.5 c 128,-1,53
 202 481 202 481 175 443.5 c 128,-1,54
 148 406 148 406 148 351 c 0,55,56
 148 343 148 343 149 328 c 128,-1,57
 150 313 150 313 150 295 c 128,-1,58
 150 277 150 277 150.5 260.5 c 128,-1,59
 151 244 151 244 151 235 c 0,36,37
EndSplineSet
EndChar
StartChar: yen
Encoding: 165 165 104
Width: 693
VWidth: 1467
Flags: W
HStem: -1 21G<324 371> 85 47<73 324 371 618> 251 47<73 321 371 618>
VStem: 324 47<-1 85 132 251>
Fore
414 342 m 0,0,1
 396 313 396 313 371 298 c 1,2,-1
 618 298 l 1,3,-1
 618 251 l 1,4,-1
 371 251 l 1,5,-1
 371 132 l 1,6,-1
 618 132 l 1,7,-1
 618 85 l 1,8,-1
 371 85 l 1,9,-1
 371 -1 l 1,10,-1
 324 -1 l 1,11,-1
 324 85 l 1,12,-1
 73 85 l 1,13,-1
 73 132 l 1,14,-1
 324 132 l 1,15,-1
 324 251 l 1,16,-1
 73 251 l 1,17,-1
 73 298 l 1,18,-1
 321 298 l 1,19,20
 305 307 305 307 295 323 c 128,-1,21
 285 339 285 339 279 346 c 0,22,23
 254 383 254 383 227.5 427.5 c 128,-1,24
 201 472 201 472 174 519 c 128,-1,25
 147 566 147 566 121 612.5 c 128,-1,26
 95 659 95 659 73 700 c 1,27,-1
 126 700 l 1,28,29
 169 618 169 618 221 532 c 128,-1,30
 273 446 273 446 314 371 c 0,31,32
 333 337 333 337 344 336 c 128,-1,33
 355 335 355 335 374 365 c 0,34,35
 421 445 421 445 474 530.5 c 128,-1,36
 527 616 527 616 574 700 c 1,37,-1
 624 700 l 1,38,39
 575 612 575 612 519.5 518.5 c 128,-1,40
 464 425 464 425 414 342 c 0,0,1
EndSplineSet
EndChar
StartChar: brokenbar
Encoding: 166 166 105
Width: 224
VWidth: 1467
Flags: W
HStem: 343 372<94 136 94 136 94 94>
VStem: 94 42<-180 192 343 715>
Fore
94 343 m 1,0,-1
 94 715 l 1,1,-1
 136 715 l 1,2,-1
 136 343 l 1,3,-1
 94 343 l 1,0,-1
94 -180 m 1,4,-1
 94 192 l 1,5,-1
 136 192 l 1,6,-1
 136 -180 l 1,7,-1
 94 -180 l 1,4,-1
EndSplineSet
EndChar
StartChar: section
Encoding: 167 167 106
Width: 544
VWidth: 1467
Flags: W
HStem: -63 41<229.805 318.301> 430 42<254.22 318.25> 671 42<206.445 310.258>
VStem: 412 49<49.3501 145.17>
Fore
461 88 m 0,0,1
 462 48 462 48 446 19.5 c 128,-1,2
 430 -9 430 -9 403 -27 c 128,-1,3
 376 -45 376 -45 342 -54 c 128,-1,4
 308 -63 308 -63 273 -63 c 0,5,6
 244 -63 244 -63 213 -57 c 128,-1,7
 182 -51 182 -51 155 -38 c 128,-1,8
 128 -25 128 -25 107.5 -3 c 128,-1,9
 87 19 87 19 81 51 c 1,10,-1
 131 51 l 1,11,12
 138 26 138 26 152.5 11.5 c 128,-1,13
 167 -3 167 -3 187 -10.5 c 128,-1,14
 207 -18 207 -18 230.5 -20 c 128,-1,15
 254 -22 254 -22 277 -22 c 0,16,17
 305 -22 305 -22 330 -17 c 128,-1,18
 355 -12 355 -12 374 1.5 c 128,-1,19
 393 15 393 15 403.5 36 c 128,-1,20
 414 57 414 57 412 88 c 0,21,22
 409 131 409 131 384 151.5 c 128,-1,23
 359 172 359 172 324 183 c 0,24,25
 291 194 291 194 252.5 199.5 c 128,-1,26
 214 205 214 205 181 217 c 128,-1,27
 148 229 148 229 125.5 254 c 128,-1,28
 103 279 103 279 101 326 c 0,29,30
 98 373 98 373 122.5 406 c 128,-1,31
 147 439 147 439 185 455 c 1,32,33
 148 467 148 467 124 491 c 128,-1,34
 100 515 100 515 97 566 c 0,35,36
 94 603 94 603 108.5 631 c 128,-1,37
 123 659 123 659 148 677 c 128,-1,38
 173 695 173 695 204.5 704 c 128,-1,39
 236 713 236 713 270 713 c 0,40,41
 296 713 296 713 325 707 c 128,-1,42
 354 701 354 701 378 688 c 128,-1,43
 402 675 402 675 420.5 654.5 c 128,-1,44
 439 634 439 634 445 606 c 1,45,-1
 401 606 l 1,46,47
 395 629 395 629 381.5 641.5 c 128,-1,48
 368 654 368 654 350 661 c 128,-1,49
 332 668 332 668 310.5 669.5 c 128,-1,50
 289 671 289 671 267 671 c 0,51,52
 210 671 210 671 177 644.5 c 128,-1,53
 144 618 144 618 147 566 c 0,54,55
 150 518 150 518 180.5 499 c 128,-1,56
 211 480 211 480 254 471 c 1,57,58
 261 472 261 472 274 472 c 0,59,60
 298 472 298 472 322 468 c 128,-1,61
 346 464 346 464 368 454.5 c 128,-1,62
 390 445 390 445 408.5 429.5 c 128,-1,63
 427 414 427 414 439 393 c 0,64,65
 455 367 455 367 456 329 c 0,66,67
 459 282 459 282 437 251 c 128,-1,68
 415 220 415 220 381 202 c 1,69,70
 414 189 414 189 436 163.5 c 128,-1,71
 458 138 458 138 461 88 c 0,0,1
151 326 m 0,72,73
 153 295 153 295 167.5 276.5 c 128,-1,74
 182 258 182 258 204 247 c 128,-1,75
 226 236 226 236 254 231 c 128,-1,76
 282 226 282 226 311 222 c 1,77,78
 354 227 354 227 382.5 252 c 128,-1,79
 411 277 411 277 408 329 c 0,80,81
 405 379 405 379 372.5 399.5 c 128,-1,82
 340 420 340 420 298 430 c 1,83,-1
 271 430 l 2,84,85
 214 430 214 430 181 403.5 c 128,-1,86
 148 377 148 377 151 326 c 0,72,73
EndSplineSet
EndChar
StartChar: dieresis
Encoding: 168 168 107
Width: 316
VWidth: 1467
Flags: W
HStem: 587 108<46.6963 92.139 234.696 268.098>
VStem: 23 81<618.732 663.567> 211 81<616.416 679.468>
Fore
251 695 m 1,0,1
 268 697 268 697 280 680 c 128,-1,2
 292 663 292 663 292 641 c 256,3,4
 292 619 292 619 280 603 c 128,-1,5
 268 587 268 587 251 587 c 256,6,7
 233 587 233 587 221.5 603 c 128,-1,8
 210 619 210 619 211 641 c 0,9,10
 211 663 211 663 223 680 c 128,-1,11
 235 697 235 697 251 695 c 1,0,1
63 695 m 1,12,13
 81 697 81 697 92.5 680 c 128,-1,14
 104 663 104 663 104 641 c 256,15,16
 104 619 104 619 92.5 603 c 128,-1,17
 81 587 81 587 63 587 c 256,18,19
 45 587 45 587 33.5 603 c 128,-1,20
 22 619 22 619 23 641 c 0,21,22
 23 663 23 663 35 680 c 128,-1,23
 47 697 47 697 63 695 c 1,12,13
EndSplineSet
EndChar
StartChar: copyright
Encoding: 169 169 108
Width: 831
VWidth: 1467
Flags: W
HStem: -20 37<289.393 544.123> 687 37<289.393 544.123>
VStem: 103 45<112.798 588.812> 205 44<207.329 493.671> 685 47<114.117 590.132>
Fore
103 537 m 2,0,1
 103 600 103 600 150 641 c 128,-1,2
 197 682 197 682 266.5 703.5 c 128,-1,3
 336 725 336 725 417.5 724 c 128,-1,4
 499 723 499 723 568.5 702.5 c 128,-1,5
 638 682 638 682 685 640.5 c 128,-1,6
 732 599 732 599 732 537 c 2,7,-1
 732 167 l 2,8,9
 732 106 732 106 685 64 c 128,-1,10
 638 22 638 22 568.5 1.5 c 128,-1,11
 499 -19 499 -19 417.5 -20 c 128,-1,12
 336 -21 336 -21 266.5 0.5 c 128,-1,13
 197 22 197 22 150 63 c 128,-1,14
 103 104 103 104 103 167 c 2,15,-1
 103 537 l 2,0,1
685 516 m 2,16,17
 685 574 685 574 645.5 611.5 c 128,-1,18
 606 649 606 649 546 668 c 128,-1,19
 486 687 486 687 417 687 c 128,-1,20
 348 687 348 687 287.5 668 c 128,-1,21
 227 649 227 649 187.5 610.5 c 128,-1,22
 148 572 148 572 148 516 c 2,23,-1
 148 186 l 2,24,25
 148 129 148 129 187.5 91.5 c 128,-1,26
 227 54 227 54 287.5 35 c 128,-1,27
 348 16 348 16 417 17 c 128,-1,28
 486 18 486 18 546 36 c 128,-1,29
 606 54 606 54 645.5 92.5 c 128,-1,30
 685 131 685 131 685 186 c 2,31,-1
 685 516 l 2,16,17
317 538 m 0,32,33
 288 521 288 521 268.5 494.5 c 128,-1,34
 249 468 249 468 249 437 c 2,35,-1
 249 264 l 2,36,37
 249 233 249 233 268.5 206.5 c 128,-1,38
 288 180 288 180 317 163 c 0,39,40
 345 147 345 147 385 139.5 c 128,-1,41
 425 132 425 132 465.5 138 c 128,-1,42
 506 144 506 144 540.5 163 c 128,-1,43
 575 182 575 182 590 219 c 1,44,-1
 628 202 l 1,45,46
 607 160 607 160 564 136.5 c 128,-1,47
 521 113 521 113 470.5 106.5 c 128,-1,48
 420 100 420 100 370 108 c 128,-1,49
 320 116 320 116 285 136 c 0,50,51
 252 156 252 156 228.5 183 c 128,-1,52
 205 210 205 210 205 245 c 2,53,-1
 205 456 l 2,54,55
 205 492 205 492 228.5 519 c 128,-1,56
 252 546 252 546 285 565 c 0,57,58
 320 585 320 585 370 593.5 c 128,-1,59
 420 602 420 602 470.5 595 c 128,-1,60
 521 588 521 588 564 564.5 c 128,-1,61
 607 541 607 541 628 499 c 1,62,-1
 590 483 l 1,63,64
 575 519 575 519 540.5 538.5 c 128,-1,65
 506 558 506 558 465.5 563.5 c 128,-1,66
 425 569 425 569 385 562 c 128,-1,67
 345 555 345 555 317 538 c 0,32,33
EndSplineSet
EndChar
StartChar: ordfeminine
Encoding: 170 170 109
Width: 369
VWidth: 1467
Flags: W
HStem: 590.5 30.5<102.844 206.218>
VStem: 43 33<325.168 410.108> 280 33<359 474 509.306 563.438>
Fore
280 474 m 1,0,1
 263 461 263 461 246.5 451.5 c 128,-1,2
 230 442 230 442 208 439 c 0,3,4
 139 427 139 427 107.5 415 c 128,-1,5
 76 403 76 403 76 362 c 0,6,7
 76 337 76 337 95 325.5 c 128,-1,8
 114 314 114 314 128 311 c 0,9,10
 160 307 160 307 185.5 311 c 128,-1,11
 211 315 211 315 229.5 324 c 128,-1,12
 248 333 248 333 260.5 343.5 c 128,-1,13
 273 354 273 354 280 359 c 1,14,-1
 280 362 l 1,15,-1
 280 472 l 1,16,-1
 280 474 l 1,0,1
313 282 m 1,17,18
 301 286 301 286 293 297 c 128,-1,19
 285 308 285 308 282 321 c 1,20,21
 273 314 273 314 257.5 305 c 128,-1,22
 242 296 242 296 221 289 c 128,-1,23
 200 282 200 282 174 278 c 128,-1,24
 148 274 148 274 120 280 c 0,25,26
 85 288 85 288 64.5 310 c 128,-1,27
 44 332 44 332 43 370 c 0,28,29
 43 401 43 401 59 418.5 c 128,-1,30
 75 436 75 436 100 445.5 c 128,-1,31
 125 455 125 455 154 459.5 c 128,-1,32
 183 464 183 464 208 470 c 0,33,34
 217 471 217 471 229 475.5 c 128,-1,35
 241 480 241 480 252 487 c 128,-1,36
 263 494 263 494 271 503 c 128,-1,37
 279 512 279 512 279 522 c 0,38,39
 279 550 279 550 248 572 c 0,40,41
 232 585 232 585 207 589 c 128,-1,42
 182 593 182 593 155.5 590.5 c 128,-1,43
 129 588 129 588 102 580 c 128,-1,44
 75 572 75 572 54 562 c 1,45,-1
 59 597 l 1,46,47
 106 621 106 621 164 621 c 128,-1,48
 222 621 222 621 264 600 c 0,49,50
 286 591 286 591 299.5 569 c 128,-1,51
 313 547 313 547 313 521 c 2,52,-1
 313 351 l 2,53,54
 313 336 313 336 315.5 324.5 c 128,-1,55
 318 313 318 313 335 301 c 1,56,57
 329 293 329 293 323 289 c 128,-1,58
 317 285 317 285 313 282 c 1,17,18
EndSplineSet
EndChar
StartChar: guillemotleft
Encoding: 171 171 110
Width: 648
VWidth: 1467
Flags: W
HStem: 32 464<354 354 354 354>
Fore
354 32 m 1,0,1
 324 73 324 73 283 110.5 c 128,-1,2
 242 148 242 148 197.5 177.5 c 128,-1,3
 153 207 153 207 107.5 229 c 128,-1,4
 62 251 62 251 22 263 c 1,5,6
 62 277 62 277 106 299 c 128,-1,7
 150 321 150 321 194 350.5 c 128,-1,8
 238 380 238 380 279 416.5 c 128,-1,9
 320 453 320 453 354 496 c 1,10,-1
 354 439 l 1,11,12
 302 386 302 386 240 337.5 c 128,-1,13
 178 289 178 289 107 266 c 1,14,15
 175 245 175 245 238.5 196.5 c 128,-1,16
 302 148 302 148 354 88 c 1,17,-1
 354 32 l 1,0,1
578 32 m 1,18,19
 549 73 549 73 508.5 110.5 c 128,-1,20
 468 148 468 148 423.5 177.5 c 128,-1,21
 379 207 379 207 333.5 229 c 128,-1,22
 288 251 288 251 248 263 c 1,23,24
 288 277 288 277 332 299 c 128,-1,25
 376 321 376 321 420 350.5 c 128,-1,26
 464 380 464 380 504 416.5 c 128,-1,27
 544 453 544 453 578 496 c 1,28,-1
 578 439 l 1,29,30
 527 386 527 386 464.5 337.5 c 128,-1,31
 402 289 402 289 332 266 c 1,32,33
 399 245 399 245 463 196.5 c 128,-1,34
 527 148 527 148 578 88 c 1,35,-1
 578 32 l 1,18,19
EndSplineSet
EndChar
StartChar: logicalnot
Encoding: 172 172 111
Width: 629
VWidth: 1467
Flags: W
HStem: 136 272<547 585 41 547 585 585> 370 38<41 547>
VStem: 547 38<136 370>
Fore
547 136 m 1,0,-1
 547 370 l 1,1,-1
 41 370 l 1,2,-1
 41 408 l 1,3,-1
 585 408 l 1,4,-1
 585 136 l 1,5,-1
 547 136 l 1,0,-1
EndSplineSet
EndChar
StartChar: registered
Encoding: 174 174 112
Width: 538
VWidth: 1467
Flags: W
HStem: 204 36<183.799 360.717> 599 29<279 306.984> 695 31<178.969 366.516>
VStem: 44.5 40.5<320.016 427.119 427.119 503.396 503.396 611.819> 354 32<361 410.403 502.234 585.95> 459 41<314.398 615.934>
Fore
44 541 m 0,0,1
 44 603 44 603 78 644 c 128,-1,2
 112 685 112 685 162.5 705.5 c 128,-1,3
 213 726 213 726 272.5 726 c 128,-1,4
 332 726 332 726 382.5 705.5 c 128,-1,5
 433 685 433 685 466.5 644 c 128,-1,6
 500 603 500 603 500 541 c 2,7,-1
 500 389 l 2,8,9
 500 327 500 327 467 286 c 128,-1,10
 434 245 434 245 384.5 224.5 c 128,-1,11
 335 204 335 204 276 204 c 128,-1,12
 217 204 217 204 167 224.5 c 128,-1,13
 117 245 117 245 82.5 286 c 128,-1,14
 48 327 48 327 47 389 c 0,15,16
 45 423 45 423 44.5 465.5 c 128,-1,17
 44 508 44 508 44 541 c 0,0,1
85 534 m 2,18,-1
 85 398 l 2,19,20
 85 346 85 346 113 311 c 128,-1,21
 141 276 141 276 182.5 258.5 c 128,-1,22
 224 241 224 241 272.5 240 c 128,-1,23
 321 239 321 239 362 255 c 128,-1,24
 403 271 403 271 431 305.5 c 128,-1,25
 459 340 459 340 459 392 c 2,26,-1
 459 536 l 2,27,28
 459 588 459 588 432 624 c 128,-1,29
 405 660 405 660 363 677.5 c 128,-1,30
 321 695 321 695 272.5 695 c 128,-1,31
 224 695 224 695 183 677.5 c 128,-1,32
 142 660 142 660 114.5 624 c 128,-1,33
 87 588 87 588 85 534 c 2,18,-1
323 467 m 1,34,35
 381 483 381 483 381 538 c 0,36,37
 381 569 381 569 370 586.5 c 128,-1,38
 359 604 359 604 344 613 c 128,-1,39
 329 622 329 622 310.5 625 c 128,-1,40
 292 628 292 628 277 628 c 2,41,-1
 178 628 l 1,42,-1
 178 304 l 1,43,-1
 211 304 l 1,44,-1
 211 453 l 1,45,-1
 239 453 l 2,46,47
 258 453 258 453 279.5 450 c 128,-1,48
 301 447 301 447 317 438.5 c 128,-1,49
 333 430 333 430 343.5 411 c 128,-1,50
 354 392 354 392 354 359 c 2,51,-1
 354 304 l 1,52,-1
 386 304 l 1,53,-1
 386 361 l 2,54,55
 386 408 386 408 367.5 432 c 128,-1,56
 349 456 349 456 323 467 c 1,34,35
211 599 m 1,57,-1
 279 599 l 2,58,59
 305 599 305 599 327 588 c 128,-1,60
 349 577 349 577 349 538 c 0,61,62
 351 509 351 509 328 501.5 c 128,-1,63
 305 494 305 494 276 492 c 2,64,-1
 211 492 l 1,65,66
 211 515 211 515 211 528 c 128,-1,67
 211 541 211 541 211 550.5 c 128,-1,68
 211 560 211 560 211 570.5 c 128,-1,69
 211 581 211 581 211 599 c 1,57,-1
EndSplineSet
EndChar
StartChar: macron
Encoding: 175 175 113
Width: 316
VWidth: 1467
Flags: W
HStem: 625 41<41 274 41 274 41 41>
Fore
41 625 m 1,0,-1
 41 666 l 1,1,-1
 274 666 l 1,2,-1
 274 625 l 1,3,-1
 41 625 l 1,0,-1
EndSplineSet
EndChar
StartChar: degree
Encoding: 176 176 114
Width: 267
VWidth: 1467
Flags: W
HStem: 549 25<123.446 157.255> 695 24<97.5022 177.871>
VStem: 44 37<605.217 675.959> 197 35<603.222 673.488>
Fore
139 719 m 2,0,1
 178 719 178 719 205 694 c 128,-1,2
 232 669 232 669 232 634 c 256,3,4
 232 599 232 599 205 574 c 128,-1,5
 178 549 178 549 139 549 c 2,6,-1
 138 549 l 2,7,8
 100 549 100 549 72 574 c 128,-1,9
 44 599 44 599 44 634 c 0,10,11
 44 671 44 671 72 695 c 128,-1,12
 100 719 100 719 138 719 c 2,13,-1
 139 719 l 2,0,1
141 574 m 2,14,15
 151 574 151 574 161.5 579.5 c 128,-1,16
 172 585 172 585 180 594 c 128,-1,17
 188 603 188 603 192.5 614 c 128,-1,18
 197 625 197 625 197 634 c 0,19,20
 197 651 197 651 179 672 c 128,-1,21
 161 693 161 693 139 695 c 2,22,-1
 138 695 l 2,23,24
 113 695 113 695 97 673 c 128,-1,25
 81 651 81 651 81 634 c 0,26,27
 81 625 81 625 86 614.5 c 128,-1,28
 91 604 91 604 99 595.5 c 128,-1,29
 107 587 107 587 117.5 580.5 c 128,-1,30
 128 574 128 574 139 574 c 2,31,-1
 141 574 l 2,14,15
EndSplineSet
EndChar
StartChar: plusminus
Encoding: 177 177 115
Width: 629
VWidth: 1467
Flags: W
HStem: 0 48<41 585> 335 46<41 288 332 585> 579 20G<288 332>
VStem: 288 44<110 335 381 599>
Fore
332 335 m 1,0,-1
 332 110 l 1,1,-1
 288 110 l 1,2,-1
 288 335 l 1,3,-1
 41 335 l 1,4,-1
 41 381 l 1,5,-1
 288 381 l 1,6,-1
 288 599 l 1,7,-1
 332 599 l 1,8,-1
 332 381 l 1,9,-1
 585 381 l 1,10,-1
 585 335 l 1,11,-1
 332 335 l 1,0,-1
41 0 m 1,12,-1
 41 48 l 1,13,-1
 585 48 l 1,14,-1
 585 0 l 1,15,-1
 41 0 l 1,12,-1
EndSplineSet
EndChar
StartChar: twosuperior
Encoding: 178 178 116
Width: 380
VWidth: 1467
Flags: W
HStem: 274 427<167 252 197 318 353.458 373> 274 39<103.717 242.065 242.065 298.458 298.458 318> 662 39<165.664 242.861>
VStem: 47 279<311 607 311 432>
Fore
47 311 m 1,0,1
 60 324 60 324 83 347 c 128,-1,2
 106 370 106 370 128.5 394 c 128,-1,3
 151 418 151 418 171.5 438.5 c 128,-1,4
 192 459 192 459 201 470 c 0,5,6
 220 490 220 490 235.5 510 c 128,-1,7
 251 530 251 530 266 549 c 0,8,9
 279 566 279 566 283.5 583 c 128,-1,10
 288 600 288 600 285 614 c 128,-1,11
 282 628 282 628 274 638.5 c 128,-1,12
 266 649 266 649 257 653 c 0,13,14
 239 662 239 662 220.5 662 c 128,-1,15
 202 662 202 662 192 662 c 0,16,17
 166 662 166 662 131.5 643.5 c 128,-1,18
 97 625 97 625 66 600 c 1,19,-1
 66 643 l 1,20,21
 104 675 104 675 135.5 688 c 128,-1,22
 167 701 167 701 197 701 c 0,23,24
 252 701 252 701 287.5 680.5 c 128,-1,25
 323 660 323 660 326 607 c 0,26,27
 327 588 327 588 317.5 559 c 128,-1,28
 308 530 308 530 266 480 c 0,29,30
 257 470 257 470 231 442 c 128,-1,31
 205 414 205 414 177.5 385.5 c 128,-1,32
 150 357 150 357 127 334 c 128,-1,33
 104 311 104 311 103 311 c 1,34,35
 126 313 126 313 142 313 c 0,36,-1
 205 313 l 0,37,38
 252 313 252 313 278.5 312 c 128,-1,39
 305 311 305 311 318 311 c 1,40,-1
 318 274 l 1,41,-1
 47 274 l 1,42,-1
 47 311 l 1,0,1
EndSplineSet
EndChar
StartChar: threesuperior
Encoding: 179 179 117
Width: 377
VWidth: 1467
Flags: W
HStem: 274 34<137.889 201.557> 483 39<117 130.265 130.733 175.406> 656 38<98.85 109 116 132.399 132.399 140.455 136.427 181.758 177.788 185.727 185.727 222.813>
VStem: 56 266.5<332 412.5 332 371.983> 285 37.5<370.801 401 401 440.983>
Fore
112 522 m 1,0,1
 123 522 123 522 130.5 523 c 128,-1,2
 138 524 138 524 141 524 c 0,3,4
 166 524 166 524 185.5 530 c 128,-1,5
 205 536 205 536 222 543 c 0,6,7
 257 559 257 559 265.5 588.5 c 128,-1,8
 274 618 274 618 254 641 c 0,9,10
 242 656 242 656 213.5 659.5 c 128,-1,11
 185 663 185 663 158 663 c 0,12,13
 129 662 129 662 109 656 c 128,-1,14
 89 650 89 650 65 643 c 1,15,-1
 67 684 l 1,16,17
 97 690 97 690 116 694 c 128,-1,18
 135 698 135 698 156 700 c 0,19,20
 179 700 179 700 199.5 698.5 c 128,-1,21
 220 697 220 697 236 691 c 0,22,23
 266 679 266 679 284 663 c 128,-1,24
 302 647 302 647 307 612 c 0,25,26
 313 565 313 565 284 539.5 c 128,-1,27
 255 514 255 514 202 503 c 1,28,-1
 202 502 l 1,29,30
 258 502 258 502 286 478 c 0,31,32
 318 449 318 449 322.5 412.5 c 128,-1,33
 327 376 327 376 308 343.5 c 128,-1,34
 289 311 289 311 250 290.5 c 128,-1,35
 211 270 211 270 157 274 c 0,36,37
 150 274 150 274 137.5 275 c 128,-1,38
 125 276 125 276 111 278 c 128,-1,39
 97 280 97 280 82 284 c 128,-1,40
 67 288 67 288 59 292 c 1,41,-1
 56 332 l 1,42,43
 85 320 85 320 108 312.5 c 128,-1,44
 131 305 131 305 161 308 c 2,45,46
 191 307 191 307 214.5 315 c 128,-1,47
 238 323 238 323 254.5 336 c 128,-1,48
 271 349 271 349 279.5 366 c 128,-1,49
 288 383 288 383 285 401 c 0,50,51
 280 425 280 425 265.5 441.5 c 128,-1,52
 251 458 251 458 229 467.5 c 128,-1,53
 207 477 207 477 178.5 480.5 c 128,-1,54
 150 484 150 484 117 483 c 1,55,-1
 112 522 l 1,0,1
EndSplineSet
EndChar
StartChar: acute
Encoding: 180 180 118
Width: 311
VWidth: 1467
Flags: W
HStem: 518 207<145 147 101 220 145 145>
Fore
147 518 m 1,0,-1
 101 518 l 1,1,-1
 145 725 l 1,2,-1
 220 725 l 1,3,-1
 147 518 l 1,0,-1
EndSplineSet
EndChar
StartChar: mu
Encoding: 181 181 119
AltUni2: 0003bc.ffffffff.0
Width: 619
VWidth: 1467
Flags: W
HStem: -4 36<238.72 364.107> 489 20G<103 142 468 509>
VStem: 103 409<-246 0 172.827 509> 103 39<-246 72 172.827 509> 472 37<0 80.6318 80.6318 98 139.938 509>
Fore
475 0 m 1,0,-1
 472 98 l 1,1,2
 447 60 447 60 398 28 c 128,-1,3
 349 -4 349 -4 282 -4 c 0,4,5
 270 -4 270 -4 253 -2 c 128,-1,6
 236 0 236 0 217 7.5 c 128,-1,7
 198 15 198 15 179 30 c 128,-1,8
 160 45 160 45 142 72 c 1,9,-1
 142 -246 l 1,10,-1
 103 -246 l 1,11,-1
 103 509 l 1,12,-1
 142 509 l 1,13,-1
 142 219 l 2,14,15
 142 183 142 183 150 149.5 c 128,-1,16
 158 116 158 116 176 90.5 c 128,-1,17
 194 65 194 65 223 48.5 c 128,-1,18
 252 32 252 32 295 32 c 0,19,20
 327 32 327 32 358.5 47 c 128,-1,21
 390 62 390 62 414.5 85.5 c 128,-1,22
 439 109 439 109 453.5 139 c 128,-1,23
 468 169 468 169 468 200 c 2,24,-1
 468 509 l 1,25,-1
 509 509 l 1,26,-1
 509 125 l 2,27,28
 509 94 509 94 510 62.5 c 128,-1,29
 511 31 511 31 512 0 c 1,30,-1
 475 0 l 1,0,-1
EndSplineSet
EndChar
StartChar: paragraph
Encoding: 182 182 120
Width: 560
VWidth: 1467
Flags: W
HStem: 663 50<326 439>
VStem: 55 423<399 435 435 471 435 713 435 435> 285 41<-51 335> 439 39<-51 663>
Fore
478 713 m 1,0,-1
 478 -51 l 1,1,-1
 439 -51 l 1,2,-1
 439 663 l 1,3,-1
 326 663 l 1,4,-1
 326 -51 l 1,5,-1
 285 -51 l 1,6,-1
 285 335 l 1,7,8
 244 310 244 310 200.5 305.5 c 128,-1,9
 157 301 157 301 120 321 c 0,10,11
 91 339 91 339 75 369 c 128,-1,12
 59 399 59 399 55 435 c 128,-1,13
 51 471 51 471 60 511.5 c 128,-1,14
 69 552 69 552 92 590 c 0,15,16
 128 651 128 651 180.5 683 c 128,-1,17
 233 715 233 715 285 712 c 1,18,-1
 285 713 l 1,19,-1
 478 713 l 1,0,-1
EndSplineSet
EndChar
StartChar: periodcentered
Encoding: 183 183 121
Width: 337
VWidth: 1467
Flags: W
HStem: 252 190<109.391 228.828>
VStem: 73 191<287.462 405.888>
Fore
264 346 m 256,0,1
 264 307 264 307 236 279.5 c 128,-1,2
 208 252 208 252 169 252 c 0,3,4
 131 252 131 252 102 279.5 c 128,-1,5
 73 307 73 307 73 346 c 256,6,7
 73 386 73 386 102 414 c 128,-1,8
 131 442 131 442 169 442 c 0,9,10
 208 442 208 442 236 414 c 128,-1,11
 264 386 264 386 264 346 c 256,0,1
EndSplineSet
EndChar
StartChar: cedilla
Encoding: 184 184 122
Width: 313
VWidth: 1467
Flags: W
HStem: -192 28<70.2671 103.605> -19 20G<147 169.815>
VStem: 62 167<-192 -95 -192 -192>
Fore
229 -95 m 0,0,1
 238 -128 238 -128 215 -157 c 128,-1,2
 192 -186 192 -186 150 -198 c 0,3,4
 100 -211 100 -211 62 -192 c 1,5,-1
 69 -164 l 1,6,7
 85 -172 85 -172 105 -170.5 c 128,-1,8
 125 -169 125 -169 141 -164 c 0,9,10
 151 -161 151 -161 163.5 -155.5 c 128,-1,11
 176 -150 176 -150 185.5 -142 c 128,-1,12
 195 -134 195 -134 201 -124 c 128,-1,13
 207 -114 207 -114 205 -104 c 256,14,15
 204 -94 204 -94 194.5 -88 c 128,-1,16
 185 -82 185 -82 171.5 -80 c 128,-1,17
 158 -78 158 -78 143.5 -79.5 c 128,-1,18
 129 -81 129 -81 117 -82 c 1,19,20
 106 -87 106 -87 87 -97 c 1,21,-1
 87 -95 l 1,22,-1
 87 -97 l 1,23,-1
 87 -95 l 1,24,-1
 88 -92 l 1,25,-1
 92 -88 l 1,26,-1
 147 0 l 1,27,-1
 185 1 l 1,28,-1
 144 -53 l 1,29,30
 175 -50 175 -50 198.5 -61 c 128,-1,31
 222 -72 222 -72 229 -95 c 0,0,1
EndSplineSet
EndChar
StartChar: onesuperior
Encoding: 185 185 123
Width: 242
VWidth: 1467
Flags: W
HStem: 280 411<135 160 135 160 135 135>
VStem: 126 34<280 663>
Fore
128 663 m 1,0,-1
 85 638 l 1,1,-1
 85 663 l 1,2,-1
 135 691 l 1,3,-1
 160 691 l 1,4,-1
 160 280 l 1,5,-1
 126 280 l 1,6,-1
 128 663 l 1,0,-1
EndSplineSet
EndChar
StartChar: ordmasculine
Encoding: 186 186 124
Width: 369
VWidth: 1467
Flags: W
HStem: 267 31<129.7 233.013> 594 28<128.712 233.288>
VStem: 27 35<346.268 418.635 418.635 444.656 445.344 470.85 470.85 543.216> 302 34<347.237 543.216>
Fore
26 497 m 0,0,1
 26 538 26 538 49 566 c 128,-1,2
 72 594 72 594 106.5 608 c 128,-1,3
 141 622 141 622 181.5 622 c 128,-1,4
 222 622 222 622 256.5 608 c 128,-1,5
 291 594 291 594 313.5 566 c 128,-1,6
 336 538 336 538 336 497 c 2,7,-1
 336 393 l 2,8,9
 336 351 336 351 313.5 323.5 c 128,-1,10
 291 296 291 296 257 281.5 c 128,-1,11
 223 267 223 267 183.5 267 c 128,-1,12
 144 267 144 267 110 281 c 128,-1,13
 76 295 76 295 52.5 323.5 c 128,-1,14
 29 352 29 352 29 393 c 0,15,16
 28 415 28 415 27 444.5 c 128,-1,17
 26 474 26 474 26 497 c 0,0,1
60 481 m 0,18,19
 60 477 60 477 60 466.5 c 128,-1,20
 60 456 60 456 61 445 c 128,-1,21
 62 434 62 434 62 423 c 128,-1,22
 62 412 62 412 62 406 c 0,23,24
 62 370 62 370 79.5 345.5 c 128,-1,25
 97 321 97 321 123.5 309.5 c 128,-1,26
 150 298 150 298 180.5 298 c 128,-1,27
 211 298 211 298 238.5 310.5 c 128,-1,28
 266 323 266 323 284 346.5 c 128,-1,29
 302 370 302 370 302 406 c 0,30,31
 302 421 302 421 302 426 c 128,-1,32
 302 431 302 431 302 435.5 c 128,-1,33
 302 440 302 440 302 449 c 128,-1,34
 302 458 302 458 302 481 c 0,35,36
 302 519 302 519 284 544 c 128,-1,37
 266 569 266 569 238.5 581.5 c 128,-1,38
 211 594 211 594 180.5 594 c 128,-1,39
 150 594 150 594 122.5 581.5 c 128,-1,40
 95 569 95 569 77.5 544 c 128,-1,41
 60 519 60 519 60 481 c 0,18,19
EndSplineSet
EndChar
StartChar: guillemotright
Encoding: 187 187 125
Width: 432
VWidth: 1467
Flags: W
HStem: 72 390<173 236 173 173>
VStem: 16 387<266 462 462 462>
Fore
236 72 m 1,0,-1
 175 72 l 1,1,-1
 339 266 l 1,2,3
 301 313 301 313 256 364 c 128,-1,4
 211 415 211 415 173 462 c 1,5,-1
 236 462 l 1,6,-1
 403 266 l 1,7,-1
 236 72 l 1,0,-1
79 72 m 1,8,-1
 18 72 l 1,9,-1
 182 266 l 1,10,11
 144 313 144 313 99 364 c 128,-1,12
 54 415 54 415 16 462 c 1,13,-1
 79 462 l 1,14,-1
 246 266 l 1,15,-1
 79 72 l 1,8,-1
EndSplineSet
EndChar
StartChar: onequarter
Encoding: 188 188 126
Width: 802
VWidth: 1467
Flags: W
HStem: -15 21G<129 177.994> 117 31<500 650 682 731>
VStem: 136 34<279 662> 650 32<3 39.0308 39.0308 96.4307 96.4307 117 148 207.15 207.15 302.727 302.727 323.427 323.427 377.577 377.577 380>
Fore
138 662 m 1,0,-1
 95 637 l 1,1,-1
 95 662 l 1,2,-1
 144 690 l 1,3,-1
 170 690 l 1,4,-1
 170 279 l 1,5,-1
 136 279 l 1,6,-1
 138 662 l 1,0,-1
593 697 m 1,7,-1
 166 -15 l 1,8,-1
 129 -15 l 1,9,-1
 555 697 l 1,10,-1
 593 697 l 1,7,-1
731 117 m 1,11,-1
 682 117 l 1,12,13
 682 110 682 110 681.5 75 c 128,-1,14
 681 40 681 40 682 3 c 1,15,-1
 650 3 l 1,16,17
 650 35 650 35 650 52 c 128,-1,18
 650 69 650 69 650 78.5 c 128,-1,19
 650 88 650 88 650 95.5 c 128,-1,20
 650 103 650 103 650 117 c 1,21,-1
 461 117 l 1,22,-1
 461 139 l 1,23,24
 509 214 509 214 556 284.5 c 128,-1,25
 603 355 603 355 640 414 c 1,26,-1
 684 414 l 1,27,28
 684 380 684 380 683 341 c 128,-1,29
 682 302 682 302 682 264.5 c 128,-1,30
 682 227 682 227 682 196.5 c 128,-1,31
 682 166 682 166 682 148 c 1,32,-1
 731 148 l 1,33,-1
 731 117 l 1,11,-1
650 148 m 1,34,35
 649 204 649 204 651 266.5 c 128,-1,36
 653 329 653 329 651 380 c 1,37,-1
 500 148 l 1,38,-1
 650 148 l 1,34,35
EndSplineSet
Ligature2: "'frac' Diagonal Fractions in Latin lookup 0 subtable" one fraction four
Ligature2: "'frac' Diagonal Fractions in Latin lookup 0 subtable" one slash four
EndChar
StartChar: onehalf
Encoding: 189 189 127
Width: 884
VWidth: 1467
Flags: W
HStem: 3 37<563.748 702.823 702.823 759.458 759.458 779> 390 40<627.375 703.49>
VStem: 148 34<263 646>
Fore
150 646 m 1,0,-1
 107 621 l 1,1,-1
 107 646 l 1,2,-1
 156 673 l 1,3,-1
 182 673 l 1,4,-1
 182 263 l 1,5,-1
 148 263 l 1,6,-1
 150 646 l 1,0,-1
604 681 m 1,7,-1
 178 -31 l 1,8,-1
 141 -31 l 1,9,-1
 566 681 l 1,10,-1
 604 681 l 1,7,-1
508 40 m 1,11,12
 521 53 521 53 543.5 75.5 c 128,-1,13
 566 98 566 98 589 122.5 c 128,-1,14
 612 147 612 147 632.5 167.5 c 128,-1,15
 653 188 653 188 662 198 c 0,16,17
 681 219 681 219 696.5 238.5 c 128,-1,18
 712 258 712 258 726 277 c 0,19,20
 739 295 739 295 743.5 312 c 128,-1,21
 748 329 748 329 745 343 c 128,-1,22
 742 357 742 357 734 367 c 128,-1,23
 726 377 726 377 717 381 c 0,24,25
 700 390 700 390 681.5 390 c 128,-1,26
 663 390 663 390 653 390 c 0,27,28
 626 390 626 390 592 372 c 128,-1,29
 558 354 558 354 527 329 c 1,30,-1
 527 371 l 1,31,32
 565 403 565 403 596.5 416.5 c 128,-1,33
 628 430 628 430 657 430 c 0,34,35
 713 430 713 430 748 409.5 c 128,-1,36
 783 389 783 389 786 336 c 0,37,38
 788 317 788 317 778.5 287.5 c 128,-1,39
 769 258 769 258 726 208 c 0,40,41
 717 198 717 198 691.5 170 c 128,-1,42
 666 142 666 142 638 113.5 c 128,-1,43
 610 85 610 85 587.5 62.5 c 128,-1,44
 565 40 565 40 563 40 c 1,45,46
 587 41 587 41 602.5 41 c 0,47,-1
 665.5 41 l 0,48,49
 713 41 713 41 739.5 40.5 c 128,-1,50
 766 40 766 40 779 40 c 1,51,-1
 779 3 l 1,52,-1
 508 3 l 1,53,-1
 508 40 l 1,11,12
EndSplineSet
Ligature2: "'frac' Diagonal Fractions in Latin lookup 0 subtable" one fraction two
Ligature2: "'frac' Diagonal Fractions in Latin lookup 0 subtable" one slash two
EndChar
StartChar: threequarters
Encoding: 190 190 128
Width: 802
VWidth: 1467
Flags: W
HStem: -15 21G<200 247.994> 117 31<500 650 682 731> 278 28.5<99.4097 115 118 131.273 131.273 141.877 141.877 154.335 154.335 218.796> 480 42<119 137.78 138.218 181.516> 656 38<106.2 116.5 123 139.399 139.399 148.106 143.753 189.363 184.788 193.938 193.938 230.185>
VStem: 295 35.5<376.944 440.983> 650 32<3 39.0308 39.0308 96.4307 96.4307 117 148 207.15 207.15 302.727 302.727 323.427 323.427 377.577 377.577 380>
Fore
663 697 m 1,0,-1
 236 -15 l 1,1,-1
 200 -15 l 1,2,-1
 625 697 l 1,3,-1
 663 697 l 1,0,-1
731 117 m 1,4,-1
 682 117 l 1,5,6
 682 110 682 110 681.5 75 c 128,-1,7
 681 40 681 40 682 3 c 1,8,-1
 650 3 l 1,9,10
 650 35 650 35 650 52 c 128,-1,11
 650 69 650 69 650 78.5 c 128,-1,12
 650 88 650 88 650 95.5 c 128,-1,13
 650 103 650 103 650 117 c 1,14,-1
 461 117 l 1,15,-1
 461 139 l 1,16,17
 509 214 509 214 556 284.5 c 128,-1,18
 603 355 603 355 640 414 c 1,19,-1
 684 414 l 1,20,21
 684 380 684 380 683 341 c 128,-1,22
 682 302 682 302 682 264.5 c 128,-1,23
 682 227 682 227 682 196.5 c 128,-1,24
 682 166 682 166 682 148 c 1,25,-1
 731 148 l 1,26,-1
 731 117 l 1,4,-1
650 148 m 1,27,28
 649 204 649 204 651 266.5 c 128,-1,29
 653 329 653 329 651 380 c 1,30,-1
 500 148 l 1,31,-1
 650 148 l 1,27,28
119 522 m 1,32,33
 131 522 131 522 138 523 c 128,-1,34
 145 524 145 524 148 524 c 0,35,36
 200 524 200 524 229 538 c 0,37,38
 264 555 264 555 274.5 586.5 c 128,-1,39
 285 618 285 618 264 641 c 0,40,41
 252 656 252 656 222 659.5 c 128,-1,42
 192 663 192 663 166 663 c 0,43,44
 136 662 136 662 116.5 656 c 128,-1,45
 97 650 97 650 72 643 c 1,46,-1
 75 684 l 1,47,48
 104 690 104 690 123 694 c 128,-1,49
 142 698 142 698 163 700 c 0,50,51
 186 700 186 700 206.5 698.5 c 128,-1,52
 227 697 227 697 244 691 c 0,53,54
 273 679 273 679 291.5 663 c 128,-1,55
 310 647 310 647 314 612 c 0,56,57
 320 565 320 565 291.5 539.5 c 128,-1,58
 263 514 263 514 210 503 c 1,59,-1
 210 502 l 1,60,61
 266 502 266 502 293 478 c 0,62,63
 326 449 326 449 330.5 412.5 c 128,-1,64
 335 376 335 376 315.5 343.5 c 128,-1,65
 296 311 296 311 257.5 290.5 c 128,-1,66
 219 270 219 270 164 274 c 0,67,68
 157 274 157 274 144.5 275 c 128,-1,69
 132 276 132 276 118 278 c 128,-1,70
 104 280 104 280 89.5 284 c 128,-1,71
 75 288 75 288 66 292 c 1,72,-1
 63 323 l 1,73,74
 92 311 92 311 115 306.5 c 128,-1,75
 138 302 138 302 169 305 c 2,76,77
 197 302 197 302 219.5 308.5 c 128,-1,78
 242 315 242 315 259 329 c 128,-1,79
 276 343 276 343 285.5 361.5 c 128,-1,80
 295 380 295 380 295 401 c 0,81,82
 295 425 295 425 279.5 441.5 c 128,-1,83
 264 458 264 458 239 466.5 c 128,-1,84
 214 475 214 475 182.5 478 c 128,-1,85
 151 481 151 481 119 480 c 1,86,-1
 119 522 l 1,32,33
EndSplineSet
Ligature2: "'frac' Diagonal Fractions in Latin lookup 0 subtable" three fraction four
Ligature2: "'frac' Diagonal Fractions in Latin lookup 0 subtable" three slash four
EndChar
StartChar: questiondown
Encoding: 191 191 129
Width: 544
VWidth: 1467
Flags: W
HStem: 386 114<276.957 324.624>
VStem: 252 85<401.533 470.672> 276 38<213.687 251 254.5 275.646 291.531 321>
Fore
310 -34 m 0,0,1
 323 13 323 13 353.5 41 c 128,-1,2
 384 69 384 69 417 60 c 256,3,4
 449 51 449 51 462 11.5 c 128,-1,5
 475 -28 475 -28 464 -76 c 0,6,7
 455 -101 455 -101 439 -128 c 0,8,9
 418 -161 418 -161 383.5 -185.5 c 128,-1,10
 349 -210 349 -210 311 -217 c 0,11,12
 241 -233 241 -233 186.5 -206 c 128,-1,13
 132 -179 132 -179 105.5 -129 c 128,-1,14
 79 -79 79 -79 85.5 -18 c 128,-1,15
 92 43 92 43 145 95 c 0,16,17
 150 100 150 100 166 111 c 128,-1,18
 182 122 182 122 200.5 138 c 128,-1,19
 219 154 219 154 235.5 173 c 128,-1,20
 252 192 252 192 260 213 c 0,21,22
 267 235 267 235 270.5 254.5 c 128,-1,23
 274 274 274 274 276 291 c 0,24,25
 277 308 277 308 276 323 c 1,26,-1
 314 321 l 1,27,28
 317 307 317 307 315 289 c 0,29,30
 314 273 314 273 310.5 251 c 128,-1,31
 307 229 307 229 298 200 c 0,32,33
 291 179 291 179 272.5 157.5 c 128,-1,34
 254 136 254 136 235 119 c 0,35,36
 211 98 211 98 186 78 c 0,37,38
 145 41 145 41 133.5 -6.5 c 128,-1,39
 122 -54 122 -54 135 -96 c 128,-1,40
 148 -138 148 -138 186 -164.5 c 128,-1,41
 224 -191 224 -191 282 -185 c 0,42,43
 311 -182 311 -182 345 -164 c 1,44,45
 320 -151 320 -151 309 -114.5 c 128,-1,46
 298 -78 298 -78 310 -34 c 0,0,1
428 -66 m 0,47,48
 431 -53 431 -53 432.5 -37 c 128,-1,49
 434 -21 434 -21 432 -6 c 128,-1,50
 430 9 430 9 425 20.5 c 128,-1,51
 420 32 420 32 409 35 c 256,52,53
 399 38 399 38 389 31.5 c 128,-1,54
 379 25 379 25 370 12.5 c 128,-1,55
 361 0 361 0 354.5 -14.5 c 128,-1,56
 348 -29 348 -29 345 -43 c 0,57,58
 340 -56 340 -56 338.5 -72 c 128,-1,59
 337 -88 337 -88 339.5 -103.5 c 128,-1,60
 342 -119 342 -119 348 -130 c 128,-1,61
 354 -141 354 -141 364 -145 c 0,62,63
 374 -148 374 -148 384.5 -141 c 128,-1,64
 395 -134 395 -134 403 -121.5 c 128,-1,65
 411 -109 411 -109 417.5 -94 c 128,-1,66
 424 -79 424 -79 428 -66 c 0,47,48
295 386 m 1,67,68
 277 384 277 384 264.5 401 c 128,-1,69
 252 418 252 418 252 443 c 0,70,71
 252 467 252 467 264.5 483.5 c 128,-1,72
 277 500 277 500 295 500 c 0,73,74
 314 500 314 500 326.5 483.5 c 128,-1,75
 339 467 339 467 337 443 c 0,76,77
 337 418 337 418 325 401 c 128,-1,78
 313 384 313 384 295 386 c 1,67,68
EndSplineSet
EndChar
StartChar: Aring
Encoding: 197 197 134
Width: 676
VWidth: 1467
Flags: W
HStem: 1 21G<66 117.24 565.76 616> 230 40<182 500>
VStem: 249 40<791.984 842.167> 383 38<787.015 844.016>
Fore
616 1 m 1,0,-1
 571 1 l 1,1,-1
 511 230 l 1,2,-1
 172 230 l 1,3,-1
 112 1 l 1,4,-1
 66 1 l 1,5,-1
 202 546 l 2,6,7
 214 602 214 602 233 648 c 128,-1,8
 252 694 252 694 295 715 c 1,9,10
 273 731 273 731 260.5 759.5 c 128,-1,11
 248 788 248 788 249 822 c 0,12,13
 252 870 252 870 278 902.5 c 128,-1,14
 304 935 304 935 340 933 c 256,15,16
 377 932 377 932 400.5 896.5 c 128,-1,17
 424 861 424 861 421 813 c 0,18,19
 421 782 421 782 409.5 758 c 128,-1,20
 398 734 398 734 379 717 c 1,21,22
 403 709 403 709 421 690 c 128,-1,23
 439 671 439 671 450 646.5 c 128,-1,24
 461 622 461 622 468 595.5 c 128,-1,25
 475 569 475 569 480 546 c 2,26,-1
 616 1 l 1,0,-1
337 907 m 256,27,28
 326 908 326 908 317 899.5 c 128,-1,29
 308 891 308 891 302 877.5 c 128,-1,30
 296 864 296 864 293.5 848.5 c 128,-1,31
 291 833 291 833 289 820 c 0,32,33
 289 807 289 807 291 791.5 c 128,-1,34
 293 776 293 776 298.5 762 c 128,-1,35
 304 748 304 748 312 738 c 128,-1,36
 320 728 320 728 332 726 c 0,37,38
 345 726 345 726 353.5 735 c 128,-1,39
 362 744 362 744 369 757 c 128,-1,40
 376 770 376 770 379.5 786.5 c 128,-1,41
 383 803 383 803 383 816 c 256,42,43
 383 829 383 829 381 844.5 c 128,-1,44
 379 860 379 860 373 873 c 128,-1,45
 367 886 367 886 358 895.5 c 128,-1,46
 349 905 349 905 337 907 c 256,27,28
500 270 m 1,47,-1
 436 521 l 2,48,49
 427 553 427 553 420.5 578 c 128,-1,50
 414 603 414 603 401 632 c 0,51,52
 390 659 390 659 373.5 669 c 128,-1,53
 357 679 357 679 339 677.5 c 128,-1,54
 321 676 321 676 305 663.5 c 128,-1,55
 289 651 289 651 282 629 c 0,56,57
 270 600 270 600 262.5 576 c 128,-1,58
 255 552 255 552 246 521 c 2,59,-1
 182 270 l 1,60,-1
 500 270 l 1,47,-1
EndSplineSet
EndChar
StartChar: AE
Encoding: 198 198 135
Width: 1115
VWidth: 1467
Flags: W
HStem: -10 36<745.766 1030> 219 39<248 566> 317 40<616 918> 671 38<474.594 511.5 521 534.328 776.948 1030>
VStem: 566 50<-10 67 174.135 219 258 317 357 525.511 525.511 566 566 578.791>
Fore
828 671 m 2,0,1
 789 671 789 671 753 663.5 c 128,-1,2
 717 656 717 656 688.5 636 c 128,-1,3
 660 616 660 616 641 581 c 128,-1,4
 622 546 622 546 618 489 c 2,5,-1
 616 357 l 1,6,-1
 918 357 l 1,7,-1
 918 317 l 1,8,-1
 616 317 l 1,9,-1
 616 251 l 2,10,11
 612 183 612 183 629 140 c 128,-1,12
 646 97 646 97 675 72.5 c 128,-1,13
 704 48 704 48 744.5 38 c 128,-1,14
 785 28 785 28 828 26 c 2,15,-1
 1030 26 l 1,16,-1
 1030 -10 l 1,17,-1
 830 -10 l 2,18,19
 761 -9 761 -9 705 5 c 128,-1,20
 649 19 649 19 613 67 c 1,21,-1
 613 -10 l 1,22,-1
 568 -10 l 1,23,-1
 566 219 l 1,24,-1
 227 219 l 1,25,-1
 109 -10 l 1,26,-1
 63 -10 l 1,27,-1
 340 534 l 2,28,29
 357 568 357 568 374.5 601 c 128,-1,30
 392 634 392 634 413 659.5 c 128,-1,31
 434 685 434 685 460.5 700.5 c 128,-1,32
 487 716 487 716 521 715 c 0,33,34
 563 712 563 712 583 686 c 128,-1,35
 603 660 603 660 610 626 c 1,36,37
 644 675 644 675 702.5 691 c 128,-1,38
 761 707 761 707 830 709 c 2,39,-1
 1030 709 l 1,40,-1
 1030 671 l 1,41,-1
 828 671 l 2,0,1
568 509 m 2,42,43
 566 541 566 541 566 566 c 128,-1,44
 566 591 566 591 560 621 c 0,45,46
 558 647 558 647 544 657.5 c 128,-1,47
 530 668 530 668 511.5 666.5 c 128,-1,48
 493 665 493 665 474 652.5 c 128,-1,49
 455 640 455 640 442 618 c 0,50,51
 423 588 423 588 409 564 c 128,-1,52
 395 540 395 540 379 509 c 2,53,-1
 248 258 l 1,54,-1
 566 258 l 1,55,-1
 568 509 l 2,42,43
EndSplineSet
EndChar
StartChar: Eth
Encoding: 208 208 145
Width: 683
VWidth: 1467
Flags: W
HStem: -4 36<148 282.142> 327 40<4 104 148 358> 676 37<148 218.247>
VStem: 104 44<32 327 367 676> 544 44<201.007 499.172>
Fore
104 713 m 1,0,1
 207 713 207 713 295.5 703 c 128,-1,2
 384 693 384 693 449 655.5 c 128,-1,3
 514 618 514 618 550.5 546.5 c 128,-1,4
 587 475 587 475 588 355 c 0,5,6
 587 260 587 260 568 196 c 128,-1,7
 549 132 549 132 515 91.5 c 128,-1,8
 481 51 481 51 435.5 31.5 c 128,-1,9
 390 12 390 12 336.5 4 c 128,-1,10
 283 -4 283 -4 223.5 -4 c 128,-1,11
 164 -4 164 -4 104 -4 c 1,12,-1
 104 327 l 1,13,-1
 4 327 l 1,14,-1
 4 367 l 1,15,-1
 104 367 l 1,16,-1
 104 713 l 1,0,1
148 32 m 1,17,18
 263 28 263 28 339 44 c 128,-1,19
 415 60 415 60 461.5 99 c 128,-1,20
 508 138 508 138 526 202 c 128,-1,21
 544 266 544 266 544 355 c 0,22,23
 544 439 544 439 522 500.5 c 128,-1,24
 500 562 500 562 453 601.5 c 128,-1,25
 406 641 406 641 330.5 659.5 c 128,-1,26
 255 678 255 678 148 676 c 1,27,-1
 148 367 l 1,28,-1
 358 367 l 1,29,-1
 358 327 l 1,30,-1
 148 327 l 1,31,-1
 148 32 l 1,17,18
EndSplineSet
EndChar
StartChar: multiply
Encoding: 215 215 152
Width: 629
VWidth: 1467
Flags: W
HStem: 0 21G<56.8571 106 529.498 569.571>
Fore
549 0 m 1,0,-1
 314 241 l 1,1,2
 258 185 258 185 196 121 c 128,-1,3
 134 57 134 57 78 0 c 1,4,-1
 41 35 l 1,5,-1
 277 277 l 1,6,-1
 41 521 l 1,7,-1
 78 556 l 1,8,-1
 314 314 l 1,9,-1
 549 556 l 1,10,-1
 585 521 l 1,11,-1
 349 277 l 1,12,-1
 585 35 l 1,13,-1
 549 0 l 1,0,-1
EndSplineSet
EndChar
StartChar: Oslash
Encoding: 216 216 153
Width: 696
VWidth: 1467
Flags: W
HStem: -7 29<272.316 405.572> 685 30<272.55 407.25>
VStem: 107 39<184.533 285 285 332.819 332.819 348.185 348.185 422.938> 558 43.5<247.547 349.119 349.119 365.635 365.635 527.885>
Fore
600 403 m 0,0,1
 603 345 603 345 601.5 295.5 c 128,-1,2
 600 246 600 246 588 200 c 0,3,4
 575 144 575 144 549.5 104.5 c 128,-1,5
 524 65 524 65 492.5 39 c 128,-1,6
 461 13 461 13 426.5 2 c 128,-1,7
 392 -9 392 -9 364 -7 c 0,8,9
 288 -4 288 -4 224 40 c 1,10,-1
 191 -31 l 1,11,-1
 144 -31 l 1,12,-1
 192 67 l 1,13,14
 156 104 156 104 133 158.5 c 128,-1,15
 110 213 110 213 107 285 c 0,16,17
 104 354 104 354 108 411 c 128,-1,18
 112 468 112 468 125 515 c 0,19,20
 153 612 153 612 208 660 c 0,21,22
 233 682 233 682 267 697.5 c 128,-1,23
 301 713 301 713 349 715 c 0,24,25
 398 713 398 713 431.5 705 c 128,-1,26
 465 697 465 697 490 676 c 1,27,-1
 518 735 l 1,28,-1
 563 735 l 1,29,-1
 519 646 l 1,30,31
 524 640 524 640 528.5 634.5 c 128,-1,32
 533 629 533 629 536 624 c 0,33,34
 565 581 565 581 580.5 529.5 c 128,-1,35
 596 478 596 478 600 403 c 0,0,1
147 288 m 0,36,37
 150 232 150 232 164 183 c 128,-1,38
 178 134 178 134 207 97 c 1,39,-1
 474 646 l 1,40,41
 453 666 453 666 423 677 c 128,-1,42
 393 688 393 688 351 685 c 0,43,44
 305 685 305 685 271.5 665.5 c 128,-1,45
 238 646 238 646 213.5 613.5 c 128,-1,46
 189 581 189 581 174.5 540.5 c 128,-1,47
 160 500 160 500 154 459 c 0,48,49
 148 420 148 420 146 377.5 c 128,-1,50
 144 335 144 335 147 288 c 0,36,37
556 241 m 0,51,52
 560 283 560 283 560 322.5 c 128,-1,53
 560 362 560 362 558 409 c 0,54,55
 553 487 553 487 531 552 c 0,56,57
 524 568 524 568 516.5 582.5 c 128,-1,58
 509 597 509 597 502 609 c 1,59,-1
 238 66 l 1,60,61
 289 23 289 23 365 22 c 0,62,63
 408 21 408 21 441.5 41.5 c 128,-1,64
 475 62 475 62 499.5 94 c 128,-1,65
 524 126 524 126 538 165 c 128,-1,66
 552 204 552 204 556 241 c 0,51,52
EndSplineSet
EndChar
StartChar: Thorn
Encoding: 222 222 159
Width: 622
VWidth: 1467
Flags: W
HStem: 1 21G<103 151> 89 39<287.031 399.061> 571 35.5<238.327 281.5 281.5 303.064 303.064 304.185 304.185 394.332>
VStem: 103 48<1 153 202 481 541 697> 502 47<251.579 398.323>
Fore
321 609 m 0,0,1
 384 604 384 604 429 577 c 128,-1,2
 474 550 474 550 502 510 c 128,-1,3
 530 470 530 470 541.5 419 c 128,-1,4
 553 368 553 368 549 318 c 0,5,6
 544 274 544 274 529.5 232.5 c 128,-1,7
 515 191 515 191 488.5 159.5 c 128,-1,8
 462 128 462 128 425.5 108.5 c 128,-1,9
 389 89 389 89 343 89 c 0,10,11
 301 89 301 89 271.5 95 c 128,-1,12
 242 101 242 101 221.5 110 c 128,-1,13
 201 119 201 119 185 130 c 128,-1,14
 169 141 169 141 151 153 c 1,15,-1
 151 1 l 1,16,-1
 103 1 l 1,17,-1
 103 697 l 1,18,-1
 151 697 l 1,19,-1
 151 541 l 1,20,21
 164 560 164 560 187.5 573.5 c 128,-1,22
 211 587 211 587 237.5 595 c 128,-1,23
 264 603 264 603 287 606.5 c 128,-1,24
 310 610 310 610 321 609 c 0,0,1
502 323 m 0,25,26
 506 365 506 365 497.5 407.5 c 128,-1,27
 489 450 489 450 467 485.5 c 128,-1,28
 445 521 445 521 409 545 c 128,-1,29
 373 569 373 569 323 575 c 0,30,31
 305 577 305 577 281.5 571 c 128,-1,32
 258 565 258 565 234 553 c 128,-1,33
 210 541 210 541 188 523 c 128,-1,34
 166 505 166 505 151 481 c 1,35,-1
 151 202 l 1,36,37
 185 170 185 170 227.5 147.5 c 128,-1,38
 270 125 270 125 333 128 c 0,39,40
 370 129 370 129 400 145 c 128,-1,41
 430 161 430 161 451 188.5 c 128,-1,42
 472 216 472 216 485.5 250.5 c 128,-1,43
 499 285 499 285 502 323 c 0,25,26
EndSplineSet
EndChar
StartChar: uni00DF
Encoding: 223 223 160
Width: 715
VWidth: 1467
Flags: W
HStem: -141 38<0 81.5918> -19 38<298 459.64> 389 41<336 434.596> 656 37<239.422 486.646>
VStem: 158 43.5<-57.8567 -33 -6.5 17.9619 17.9619 29.1193 29.1193 185.269 185.269 305.362 305.362 532.239 532.239 612.032> 527 42<503.72 615.112> 600 47<111.098 275.42>
Fore
461 408 m 1,0,1
 487 402 487 402 520 388 c 128,-1,2
 553 374 553 374 581.5 349 c 128,-1,3
 610 324 610 324 629.5 286 c 128,-1,4
 649 248 649 248 647 194 c 0,5,6
 647 126 647 126 623 84.5 c 128,-1,7
 599 43 599 43 563.5 20 c 128,-1,8
 528 -3 528 -3 487 -11 c 128,-1,9
 446 -19 446 -19 412 -19 c 2,10,-1
 298 -19 l 1,11,-1
 298 19 l 1,12,-1
 423 19 l 2,13,14
 452 19 452 19 483.5 27 c 128,-1,15
 515 35 515 35 540.5 55 c 128,-1,16
 566 75 566 75 583 110 c 128,-1,17
 600 145 600 145 600 198 c 0,18,19
 600 242 600 242 581 276.5 c 128,-1,20
 562 311 562 311 533.5 335 c 128,-1,21
 505 359 505 359 471 372.5 c 128,-1,22
 437 386 437 386 409 389 c 2,23,-1
 336 389 l 1,24,-1
 336 430 l 1,25,-1
 409 430 l 2,26,27
 431 430 431 430 451.5 439.5 c 128,-1,28
 472 449 472 449 489 466 c 128,-1,29
 506 483 506 483 516.5 504 c 128,-1,30
 527 525 527 525 527 547 c 0,31,32
 527 593 527 593 497.5 625 c 128,-1,33
 468 657 468 657 423 656 c 2,34,-1
 307 656 l 2,35,36
 251 657 251 657 226 619 c 128,-1,37
 201 581 201 581 201 508 c 0,38,39
 201 442 201 442 201 371.5 c 128,-1,40
 201 301 201 301 201.5 239.5 c 128,-1,41
 202 178 202 178 202 131.5 c 128,-1,42
 202 85 202 85 202 67 c 0,43,44
 205 7 205 7 198 -33 c 128,-1,45
 191 -73 191 -73 169.5 -97.5 c 128,-1,46
 148 -122 148 -122 113 -131.5 c 128,-1,47
 78 -141 78 -141 25 -141 c 2,48,-1
 0 -141 l 1,49,-1
 0 -103 l 1,50,-1
 25 -103 l 2,51,52
 69 -103 69 -103 96 -91 c 128,-1,53
 123 -79 123 -79 137 -58.5 c 128,-1,54
 151 -38 151 -38 154.5 -6.5 c 128,-1,55
 158 25 158 25 158 65 c 2,56,-1
 157 512 l 2,57,58
 158 524 158 524 159 553 c 128,-1,59
 160 582 160 582 172.5 613 c 128,-1,60
 185 644 185 644 213 668.5 c 128,-1,61
 241 693 241 693 296 693 c 2,62,-1
 424 693 l 2,63,64
 490 693 490 693 529.5 652.5 c 128,-1,65
 569 612 569 612 569 550 c 0,66,67
 569 502 569 502 538.5 461.5 c 128,-1,68
 508 421 508 421 461 408 c 1,0,1
EndSplineSet
EndChar
StartChar: ae
Encoding: 230 230 167
Width: 962
VWidth: 1467
Flags: W
HStem: 238 39<490 715.215 715.215 775.159> 492.5 39.5<217.657 321.083 623.865 708.891>
VStem: 76 44<82.124 198.74> 442 48<156 238 277 313 350.922 402.877> 847 44<327.32 364 364 418.641>
Fore
560 70 m 0,0,1
 590 53 590 53 632.5 46.5 c 128,-1,2
 675 40 675 40 718 45 c 128,-1,3
 761 50 761 50 796.5 70.5 c 128,-1,4
 832 91 832 91 848 129 c 1,5,-1
 888 113 l 1,6,7
 866 69 866 69 820.5 44 c 128,-1,8
 775 19 775 19 721.5 11.5 c 128,-1,9
 668 4 668 4 615 12.5 c 128,-1,10
 562 21 562 21 525 43 c 0,11,12
 524 44 524 44 516.5 49 c 128,-1,13
 509 54 509 54 500.5 61.5 c 128,-1,14
 492 69 492 69 483.5 77 c 128,-1,15
 475 85 475 85 472 92 c 1,16,17
 472 94 472 94 443 72 c 0,18,19
 430 62 430 62 405.5 47 c 128,-1,20
 381 32 381 32 349 21 c 128,-1,21
 317 10 317 10 277.5 5 c 128,-1,22
 238 0 238 0 195 9 c 0,23,24
 139 21 139 21 107.5 54 c 128,-1,25
 76 87 76 87 76 145 c 0,26,27
 76 195 76 195 101 222 c 128,-1,28
 126 249 126 249 164 263 c 128,-1,29
 202 277 202 277 247 284 c 128,-1,30
 292 291 292 291 330 299 c 0,31,32
 343 302 343 302 361.5 308.5 c 128,-1,33
 380 315 380 315 397 326 c 128,-1,34
 414 337 414 337 426.5 350.5 c 128,-1,35
 439 364 439 364 439 380 c 0,36,37
 439 401 439 401 427 424 c 128,-1,38
 415 447 415 447 392 464 c 0,39,40
 365 483 365 483 328 489.5 c 128,-1,41
 291 496 291 496 249 492.5 c 128,-1,42
 207 489 207 489 166 476.5 c 128,-1,43
 125 464 125 464 92 447 c 1,44,-1
 101 494 l 1,45,46
 138 512 138 512 179 521.5 c 128,-1,47
 220 531 220 531 262 532 c 128,-1,48
 304 533 304 533 343.5 524.5 c 128,-1,49
 383 516 383 516 417 500 c 0,50,51
 452 484 452 484 471 452 c 1,52,53
 492 477 492 477 525 496 c 0,54,55
 553 512 553 512 588.5 521.5 c 128,-1,56
 624 531 624 531 661 531 c 128,-1,57
 698 531 698 531 735 522.5 c 128,-1,58
 772 514 772 514 805 494 c 0,59,60
 838 475 838 475 863 441.5 c 128,-1,61
 888 408 888 408 891 368 c 0,62,63
 892 326 892 326 883 300 c 128,-1,64
 874 274 874 274 849.5 260 c 128,-1,65
 825 246 825 246 782 242 c 128,-1,66
 739 238 739 238 676 238 c 2,67,-1
 490 238 l 1,68,-1
 490 156 l 1,69,70
 497 131 497 131 516.5 109 c 128,-1,71
 536 87 536 87 560 70 c 0,0,1
560 468 m 0,72,73
 536 452 536 452 516.5 430.5 c 128,-1,74
 497 409 497 409 490 383 c 1,75,-1
 490 379 l 1,76,-1
 490 277 l 1,77,-1
 676 277 l 2,78,79
 722 277 722 277 754 278 c 128,-1,80
 786 279 786 279 807.5 287.5 c 128,-1,81
 829 296 829 296 838.5 314 c 128,-1,82
 848 332 848 332 847 364 c 0,83,84
 845 392 845 392 826.5 419.5 c 128,-1,85
 808 447 808 447 786 462 c 0,86,87
 760 480 760 480 730 488 c 128,-1,88
 700 496 700 496 670 496 c 128,-1,89
 640 496 640 496 611 488.5 c 128,-1,90
 582 481 582 481 560 468 c 0,72,73
442 313 m 1,91,92
 414 292 414 292 389 281 c 128,-1,93
 364 270 364 270 330 264 c 0,94,95
 298 258 298 258 261 251 c 128,-1,96
 224 244 224 244 192.5 231.5 c 128,-1,97
 161 219 161 219 140.5 198.5 c 128,-1,98
 120 178 120 178 120 145 c 0,99,100
 120 106 120 106 144.5 78.5 c 128,-1,101
 169 51 169 51 207 47 c 0,102,103
 257 40 257 40 293 45.5 c 128,-1,104
 329 51 329 51 356 63.5 c 128,-1,105
 383 76 383 76 403.5 92.5 c 128,-1,106
 424 109 424 109 442 122 c 1,107,-1
 442 313 l 1,91,92
EndSplineSet
EndChar
StartChar: igrave
Encoding: 236 236 173
Width: 286
VWidth: 1467
Flags: W
HStem: 591 21G<119.961 185>
VStem: 0 185<591 744 744 744>
Fore
103 0 m 1,0,-1
 151 0 l 1,1,-1
 151 497 l 1,2,-1
 103 497 l 1,3,-1
 103 0 l 1,0,-1
138 591 m 1,4,-1
 0 744 l 1,5,-1
 70 744 l 1,6,-1
 185 591 l 1,7,-1
 138 591 l 1,4,-1
EndSplineSet
Ligature2: "'liga' Standard Ligatures in Latin lookup 19 subtable" i gravecomb
EndChar
StartChar: iacute
Encoding: 237 237 174
Width: 286
VWidth: 1467
Flags: W
HStem: 591 21G<101 165.17>
VStem: 101 185<591 744 591 591>
Fore
103 0 m 1,0,-1
 151 0 l 1,1,-1
 151 497 l 1,2,-1
 103 497 l 1,3,-1
 103 0 l 1,0,-1
147 591 m 1,4,-1
 101 591 l 1,5,-1
 214 744 l 1,6,-1
 286 744 l 1,7,-1
 147 591 l 1,4,-1
EndSplineSet
Ligature2: "'liga' Standard Ligatures in Latin lookup 19 subtable" i acutecomb
EndChar
StartChar: icircumflex
Encoding: 238 238 175
Width: 286
VWidth: 1467
Flags: W
HStem: 0 21G<103 151> 590 21G<1 77 206.5 285>
VStem: 103 48<0 497>
Fore
103 497 m 1,0,-1
 151 497 l 1,1,-1
 151 0 l 1,2,-1
 103 0 l 1,3,-1
 103 497 l 1,0,-1
1 590 m 1,4,5
 13 597 13 597 34.5 614.5 c 128,-1,6
 56 632 56 632 77 655 c 128,-1,7
 98 678 98 678 116.5 703 c 128,-1,8
 135 728 135 728 142 750 c 1,9,10
 160 712 160 712 200.5 668 c 128,-1,11
 241 624 241 624 285 590 c 1,12,-1
 222 590 l 1,13,14
 191 613 191 613 172 639.5 c 128,-1,15
 153 666 153 666 144 682 c 1,16,17
 136 666 136 666 112.5 637.5 c 128,-1,18
 89 609 89 609 65 590 c 1,19,-1
 1 590 l 1,4,5
EndSplineSet
EndChar
StartChar: idieresis
Encoding: 239 239 176
Width: 278
VWidth: 1467
Flags: W
HStem: 0 21G<103 151> 590 108<11.8607 57.0984 210.846 256.139>
VStem: 0 81<619.416 666.567> 103 48<0 497> 188 80<621.732 666.567>
Fore
103 497 m 1,0,-1
 151 497 l 1,1,-1
 151 0 l 1,2,-1
 103 0 l 1,3,-1
 103 497 l 1,0,-1
227 698 m 1,4,5
 245 700 245 700 256.5 683 c 128,-1,6
 268 666 268 666 268 644 c 256,7,8
 268 622 268 622 256.5 606 c 128,-1,9
 245 590 245 590 227 590 c 256,10,11
 210 590 210 590 198 606 c 128,-1,12
 186 622 186 622 188 644 c 0,13,14
 188 666 188 666 199.5 683 c 128,-1,15
 211 700 211 700 227 698 c 1,4,5
40 698 m 1,16,17
 57 700 57 700 69 683 c 128,-1,18
 81 666 81 666 81 644 c 256,19,20
 81 622 81 622 69 606 c 128,-1,21
 57 590 57 590 40 590 c 256,22,23
 22 590 22 590 10.5 606 c 128,-1,24
 -1 622 -1 622 0 644 c 0,25,26
 0 666 0 666 11.5 683 c 128,-1,27
 23 700 23 700 40 698 c 1,16,17
EndSplineSet
EndChar
StartChar: eth
Encoding: 240 240 177
Width: 664
VWidth: 1467
Flags: W
HStem: -9 30<264.065 440.477> 370 36<268.723 419.983> 684 20G<255 328>
VStem: 88 43<146.595 274.414> 537 45<110.854 238.939>
Fore
571 286 m 0,0,1
 578 261 578 261 580 237.5 c 128,-1,2
 582 214 582 214 582 192 c 0,3,4
 582 119 582 119 544 72 c 0,5,6
 508 29 508 29 449 9 c 0,7,8
 396 -9 396 -9 332 -9 c 0,9,10
 257 -9 257 -9 202 21 c 0,11,12
 147 48 147 48 117 101 c 0,13,14
 104 126 104 126 96 152.5 c 128,-1,15
 88 179 88 179 88 210 c 0,16,17
 88 236 88 236 94 260.5 c 128,-1,18
 100 285 100 285 110 307 c 0,19,20
 135 354 135 354 180 376 c 0,21,22
 205 389 205 389 242 397.5 c 128,-1,23
 279 406 279 406 317 406 c 0,24,25
 373 408 373 408 421.5 391 c 128,-1,26
 470 374 470 374 499 357 c 1,27,28
 492 373 492 373 483 390.5 c 128,-1,29
 474 408 474 408 464 425 c 0,30,31
 449 450 449 450 433.5 476.5 c 128,-1,32
 418 503 418 503 399 530 c 1,33,-1
 261 468 l 1,34,-1
 244 509 l 1,35,-1
 373 565 l 1,36,37
 348 600 348 600 318.5 634.5 c 128,-1,38
 289 669 289 669 255 704 c 1,39,-1
 314 704 l 1,40,41
 342 671 342 671 366 640.5 c 128,-1,42
 390 610 390 610 411 582 c 1,43,-1
 536 637 l 1,44,-1
 553 597 l 1,45,-1
 437 546 l 1,46,47
 440 540 440 540 446 531 c 0,48,49
 474 493 474 493 494.5 459 c 128,-1,50
 515 425 515 425 528 396 c 0,51,52
 559 333 559 333 571 286 c 0,0,1
511 103 m 0,53,54
 537 144 537 144 537 198 c 0,55,56
 537 238 537 238 524 285 c 1,57,58
 483 326 483 326 424 347 c 128,-1,59
 365 368 365 368 314 370 c 0,60,61
 267 371 267 371 231 361.5 c 128,-1,62
 195 352 195 352 175 329 c 0,63,64
 131 285 131 285 131 216 c 0,65,66
 131 166 131 166 154 119 c 0,67,68
 166 97 166 97 183.5 79.5 c 128,-1,69
 201 62 201 62 224 47 c 0,70,71
 248 35 248 35 277.5 28 c 128,-1,72
 307 21 307 21 342 21 c 0,73,74
 396 21 396 21 440 41 c 0,75,76
 484 63 484 63 511 103 c 0,53,54
EndSplineSet
EndChar
StartChar: divide
Encoding: 247 247 184
Width: 629
VWidth: 1467
Flags: W
HStem: 51 115<288.892 348.108> 261 44<41 587> 403 115<288.892 348.108>
VStem: 276 85<81.1228 149.982 433.123 501.982>
Fore
41 261 m 1,0,-1
 41 305 l 1,1,-1
 587 305 l 1,2,-1
 587 261 l 1,3,-1
 41 261 l 1,0,-1
318 166 m 1,4,5
 336 167 336 167 348.5 150.5 c 128,-1,6
 361 134 361 134 361 109 c 0,7,8
 361 85 361 85 348.5 68 c 128,-1,9
 336 51 336 51 318 51 c 0,10,11
 299 51 299 51 286.5 68 c 128,-1,12
 274 85 274 85 276 109 c 0,13,14
 276 134 276 134 288.5 150.5 c 128,-1,15
 301 167 301 167 318 166 c 1,4,5
318 518 m 1,16,17
 336 519 336 519 348.5 502.5 c 128,-1,18
 361 486 361 486 361 461 c 0,19,20
 361 437 361 437 348.5 420 c 128,-1,21
 336 403 336 403 318 403 c 0,22,23
 299 403 299 403 286.5 420 c 128,-1,24
 274 437 274 437 276 461 c 0,25,26
 276 486 276 486 288.5 502.5 c 128,-1,27
 301 519 301 519 318 518 c 1,16,17
EndSplineSet
EndChar
StartChar: oslash
Encoding: 248 248 185
Width: 625
VWidth: 1467
Flags: W
HStem: -10.5 37<239.221 407.295> 476.5 36.5<228.22 358.574>
VStem: 91.5 47<116.034 206.362 206.362 212.604 212.604 236.242 236.242 270.031 270.031 288.881 288.881 298.365 293.623 395.829> 502 45<113.131 386.965>
Fore
453 480 m 1,0,1
 496 458 496 458 521.5 419.5 c 128,-1,2
 547 381 547 381 547 327 c 2,3,-1
 547 175 l 2,4,5
 547 114 547 114 515 73 c 128,-1,6
 483 32 483 32 434.5 11.5 c 128,-1,7
 386 -9 386 -9 328.5 -10.5 c 128,-1,8
 271 -12 271 -12 222 7 c 1,9,-1
 191 -56 l 1,10,-1
 154 -40 l 1,11,-1
 185 25 l 1,12,13
 145 47 145 47 120 84.5 c 128,-1,14
 95 122 95 122 94 175 c 0,15,16
 92 208 92 208 91.5 250.5 c 128,-1,17
 91 293 91 293 91 327 c 0,18,19
 91 386 91 386 122.5 427 c 128,-1,20
 154 468 154 468 202.5 489.5 c 128,-1,21
 251 511 251 511 307.5 513 c 128,-1,22
 364 515 364 515 415 497 c 1,23,-1
 447 565 l 1,24,-1
 486 544 l 1,25,-1
 453 480 l 1,0,1
139 194 m 0,26,27
 139 148 139 148 157 115 c 128,-1,28
 175 82 175 82 202 62 c 1,29,-1
 398 462 l 1,30,31
 357 478 357 478 311.5 476.5 c 128,-1,32
 266 475 266 475 227 456 c 128,-1,33
 188 437 188 437 162 400.5 c 128,-1,34
 136 364 136 364 136 310 c 0,35,36
 136 302 136 302 137 286.5 c 128,-1,37
 138 271 138 271 138 253.5 c 128,-1,38
 138 236 138 236 138.5 219 c 128,-1,39
 139 202 139 202 139 194 c 0,26,27
502 194 m 0,40,41
 502 216 502 216 502 224 c 128,-1,42
 502 232 502 232 502 239 c 128,-1,43
 502 246 502 246 502 260 c 128,-1,44
 502 274 502 274 502 308 c 0,45,46
 500 355 500 355 482 388 c 128,-1,47
 464 421 464 421 434 442 c 1,48,-1
 238 43 l 1,49,50
 277 25 277 25 323.5 26.5 c 128,-1,51
 370 28 370 28 408.5 47 c 128,-1,52
 447 66 447 66 473.5 102.5 c 128,-1,53
 500 139 500 139 502 194 c 0,40,41
EndSplineSet
EndChar
StartChar: thorn
Encoding: 254 254 191
Width: 638
VWidth: 1467
Flags: W
HStem: -213 21G<104 153> -13 38<288.375 400.061> 468 36<240.327 283.5 283.5 304.578 304.578 305.911 305.911 397.211>
VStem: 104 49<-213 50 100 379 439 694> 503 47<148.579 258.359 258.359 262.093 262.093 305.5 316.5 358.678>
Fore
323 506 m 0,0,1
 386 502 386 502 430.5 474.5 c 128,-1,2
 475 447 475 447 503 407 c 128,-1,3
 531 367 531 367 543 316.5 c 128,-1,4
 555 266 555 266 550 216 c 0,5,6
 546 172 546 172 531 130 c 128,-1,7
 516 88 516 88 490 56.5 c 128,-1,8
 464 25 464 25 427 6 c 128,-1,9
 390 -13 390 -13 345 -13 c 0,10,11
 302 -13 302 -13 273 -7 c 128,-1,12
 244 -1 244 -1 223 7.5 c 128,-1,13
 202 16 202 16 186 27 c 128,-1,14
 170 38 170 38 153 50 c 1,15,-1
 153 -213 l 1,16,-1
 104 -213 l 1,17,-1
 104 694 l 1,18,-1
 153 694 l 1,19,-1
 153 439 l 1,20,21
 166 458 166 458 189.5 471 c 128,-1,22
 213 484 213 484 239.5 492 c 128,-1,23
 266 500 266 500 288.5 504 c 128,-1,24
 311 508 311 508 323 506 c 0,0,1
503 220 m 0,25,26
 508 263 508 263 499 305.5 c 128,-1,27
 490 348 490 348 468 383 c 128,-1,28
 446 418 446 418 410 442.5 c 128,-1,29
 374 467 374 467 324 472 c 0,30,31
 307 474 307 474 283.5 468 c 128,-1,32
 260 462 260 462 235.5 450.5 c 128,-1,33
 211 439 211 439 189 420.5 c 128,-1,34
 167 402 167 402 153 379 c 1,35,-1
 153 100 l 1,36,37
 186 67 186 67 228.5 44.5 c 128,-1,38
 271 22 271 22 335 25 c 0,39,40
 371 26 371 26 401 42.5 c 128,-1,41
 431 59 431 59 452.5 86 c 128,-1,42
 474 113 474 113 487 147.5 c 128,-1,43
 500 182 500 182 503 220 c 0,25,26
EndSplineSet
EndChar
StartChar: Lslash
Encoding: 321 321 193
Width: 517
VWidth: 1467
Flags: W
HStem: 0 50<148 497> 482 20G<282 301> 690 20G<89 148>
VStem: 89 59<50 310 398 710>
Fore
89 0 m 1,0,-1
 89 310 l 1,1,2
 65 293 65 293 40.5 275 c 128,-1,3
 16 257 16 257 -7 241 c 1,4,-1
 -7 293 l 1,5,-1
 89 362 l 1,6,-1
 89 710 l 1,7,-1
 148 710 l 1,8,-1
 148 398 l 1,9,10
 186 423 186 423 224.5 450 c 128,-1,11
 263 477 263 477 301 502 c 1,12,-1
 301 447 l 1,13,-1
 148 345 l 1,14,-1
 148 50 l 1,15,-1
 497 50 l 1,16,-1
 497 0 l 1,17,-1
 89 0 l 1,0,-1
EndSplineSet
EndChar
StartChar: lslash
Encoding: 322 322 194
Width: 237
VWidth: 1467
Flags: W
HStem: 0 21G<89 147> 482 20G<213.5 222>
VStem: 89 58<0 343 442 756>
Fore
147 383 m 1,0,-1
 147 0 l 1,1,-1
 89 0 l 1,2,-1
 89 343 l 1,3,4
 72 329 72 329 52 312 c 128,-1,5
 32 295 32 295 15 280 c 1,6,-1
 15 336 l 1,7,-1
 89 396 l 1,8,-1
 89 756 l 1,9,-1
 147 756 l 1,10,-1
 147 442 l 1,11,12
 164 456 164 456 184.5 471.5 c 128,-1,13
 205 487 205 487 222 502 c 1,14,-1
 222 446 l 1,15,-1
 147 383 l 1,0,-1
EndSplineSet
EndChar
StartChar: OE
Encoding: 338 338 195
Width: 1016
VWidth: 1467
Flags: W
HStem: -12 37<206.479 251 251 307.7 307.7 320.242 320.242 353.5 365.5 448.025 693.018 943> 315 40<530 832> 669 38<207.399 351.86 691.774 943>
VStem: 84 47<95.392 138 138 601.608> 483 47<185.461 315 355 510.786>
Fore
741 669 m 2,0,1
 700 669 700 669 661 660 c 128,-1,2
 622 651 622 651 592.5 627 c 128,-1,3
 563 603 563 603 545.5 559.5 c 128,-1,4
 528 516 528 516 530 446 c 2,5,-1
 530 355 l 1,6,-1
 832 355 l 1,7,-1
 832 315 l 1,8,-1
 530 315 l 1,9,-1
 530 249 l 2,10,11
 528 179 528 179 545.5 135.5 c 128,-1,12
 563 92 563 92 592.5 68 c 128,-1,13
 622 44 622 44 661 34.5 c 128,-1,14
 700 25 700 25 741 25 c 2,15,-1
 943 25 l 1,16,-1
 943 -12 l 1,17,-1
 744 -12 l 2,18,19
 678 -10 678 -10 623.5 3 c 128,-1,20
 569 16 569 16 534 59 c 1,21,22
 503 25 503 25 454.5 6.5 c 128,-1,23
 406 -12 406 -12 353.5 -15.5 c 128,-1,24
 301 -19 301 -19 251 -10 c 128,-1,25
 201 -1 201 -1 167 19 c 256,26,27
 134 40 134 40 109 70 c 128,-1,28
 84 100 84 100 84 138 c 2,29,-1
 84 560 l 2,30,31
 84 599 84 599 109 629 c 128,-1,32
 134 659 134 659 167 678 c 256,33,34
 201 697 201 697 251 706.5 c 128,-1,35
 301 716 301 716 353.5 712.5 c 128,-1,36
 406 709 406 709 454.5 690.5 c 128,-1,37
 503 672 503 672 534 638 c 1,38,39
 569 681 569 681 623.5 693.5 c 128,-1,40
 678 706 678 706 744 707 c 2,41,-1
 943 707 l 1,42,-1
 943 669 l 1,43,-1
 741 669 l 2,0,1
202 48 m 0,44,45
 230 31 230 31 275 23.5 c 128,-1,46
 320 16 320 16 365.5 20.5 c 128,-1,47
 411 25 411 25 450.5 43.5 c 128,-1,48
 490 62 490 62 511 95 c 1,49,50
 497 123 497 123 490 161.5 c 128,-1,51
 483 200 483 200 483 251 c 2,52,-1
 483 445 l 2,53,54
 483 496 483 496 490 535 c 128,-1,55
 497 574 497 574 511 602 c 1,56,57
 492 635 492 635 452 653.5 c 128,-1,58
 412 672 412 672 366 677 c 128,-1,59
 320 682 320 682 275 675 c 128,-1,60
 230 668 230 668 202 650 c 0,61,62
 173 631 173 631 152 602.5 c 128,-1,63
 131 574 131 574 131 541 c 2,64,-1
 131 157 l 2,65,66
 131 123 131 123 152 94.5 c 128,-1,67
 173 66 173 66 202 48 c 0,44,45
EndSplineSet
EndChar
StartChar: oe
Encoding: 339 339 196
Width: 1009
VWidth: 1467
Flags: W
HStem: 216 39<534 760.942 760.942 820.734> 474 35<669.107 754.256>
VStem: 77 45.5<103.685 208.119 208.119 232.242 232.242 266.031 266.031 284.881 284.881 390.485> 487 47<106.112 216 255 388.238> 892 38<303.232 305 346 396.641>
Fore
933 305 m 1,0,-1
 930 305 l 1,1,-1
 930 302 l 1,2,-1
 933 305 l 1,0,-1
606 48 m 0,3,4
 635 31 635 31 677.5 24.5 c 128,-1,5
 720 18 720 18 763.5 23 c 128,-1,6
 807 28 807 28 842 48.5 c 128,-1,7
 877 69 877 69 894 107 c 1,8,-1
 933 91 l 1,9,10
 911 47 911 47 865.5 22 c 128,-1,11
 820 -3 820 -3 766.5 -10.5 c 128,-1,12
 713 -18 713 -18 660 -9.5 c 128,-1,13
 607 -1 607 -1 571 21 c 0,14,15
 552 32 552 32 535 46 c 128,-1,16
 518 60 518 60 506 78 c 1,17,18
 483 41 483 41 442 19 c 128,-1,19
 401 -3 401 -3 354 -10.5 c 128,-1,20
 307 -18 307 -18 258.5 -10.5 c 128,-1,21
 210 -3 210 -3 170.5 20 c 128,-1,22
 131 43 131 43 106 80 c 128,-1,23
 81 117 81 117 79 170 c 0,24,25
 78 204 78 204 77 246.5 c 128,-1,26
 76 289 76 289 76 323 c 0,27,28
 76 376 76 376 101 413 c 128,-1,29
 126 450 126 450 165.5 473 c 128,-1,30
 205 496 205 496 254.5 504 c 128,-1,31
 304 512 304 512 351.5 504.5 c 128,-1,32
 399 497 399 497 440 474.5 c 128,-1,33
 481 452 481 452 506 415 c 1,34,35
 518 433 518 433 535 447.5 c 128,-1,36
 552 462 552 462 571 474 c 0,37,38
 599 490 599 490 634 499.5 c 128,-1,39
 669 509 669 509 706.5 509 c 128,-1,40
 744 509 744 509 780.5 500.5 c 128,-1,41
 817 492 817 492 851 472 c 0,42,43
 883 453 883 453 908 419.5 c 128,-1,44
 933 386 933 386 936 346 c 0,45,46
 938 304 938 304 929 278 c 128,-1,47
 920 252 920 252 895 238 c 128,-1,48
 870 224 870 224 827.5 220 c 128,-1,49
 785 216 785 216 722 216 c 2,50,-1
 534 216 l 1,51,-1
 534 156 l 2,52,53
 534 123 534 123 555.5 95 c 128,-1,54
 577 67 577 67 606 48 c 0,3,4
534 255 m 1,55,-1
 722 255 l 2,56,57
 767 255 767 255 799.5 256 c 128,-1,58
 832 257 832 257 853 265.5 c 128,-1,59
 874 274 874 274 884 292 c 128,-1,60
 894 310 894 310 892 342 c 0,61,62
 891 370 891 370 872.5 397.5 c 128,-1,63
 854 425 854 425 832 440 c 0,64,65
 805 458 805 458 775 466 c 128,-1,66
 745 474 745 474 715 474 c 128,-1,67
 685 474 685 474 656.5 466.5 c 128,-1,68
 628 459 628 459 606 446 c 0,69,70
 577 427 577 427 555.5 399 c 128,-1,71
 534 371 534 371 534 339 c 2,72,-1
 534 255 l 1,55,-1
123 189 m 0,73,74
 123 134 123 134 149.5 96.5 c 128,-1,75
 176 59 176 59 215.5 40.5 c 128,-1,76
 255 22 255 22 302 22 c 128,-1,77
 349 22 349 22 389.5 40.5 c 128,-1,78
 430 59 430 59 458 95.5 c 128,-1,79
 486 132 486 132 487 186 c 2,80,-1
 487 307 l 2,81,82
 486 362 486 362 458 399 c 128,-1,83
 430 436 430 436 389.5 454 c 128,-1,84
 349 472 349 472 302 472 c 128,-1,85
 255 472 255 472 215 453 c 128,-1,86
 175 434 175 434 148.5 397.5 c 128,-1,87
 122 361 122 361 122 305 c 0,88,89
 122 298 122 298 122 282.5 c 128,-1,90
 122 267 122 267 122.5 249.5 c 128,-1,91
 123 232 123 232 123 215 c 128,-1,92
 123 198 123 198 123 189 c 0,73,74
EndSplineSet
EndChar
StartChar: florin
Encoding: 402 402 202
Width: 431
VWidth: 1467
Flags: W
HStem: 377 35<43 138 189 324> 662 38<312.629 386>
VStem: 43 347<377 700 377 512>
Fore
390 700 m 1,0,-1
 386 662 l 1,1,-1
 359 662 l 2,2,3
 313 662 313 662 284 651 c 128,-1,4
 255 640 255 640 237.5 619.5 c 128,-1,5
 220 599 220 599 212 568.5 c 128,-1,6
 204 538 204 538 200 499 c 2,7,-1
 195 459 l 1,8,-1
 189 412 l 1,9,-1
 324 412 l 1,10,-1
 324 377 l 1,11,-1
 185 377 l 1,12,-1
 145 57 l 1,13,-1
 132 -28 l 1,14,15
 125 -48 125 -48 111 -65 c 128,-1,16
 97 -82 97 -82 76 -89 c 1,17,18
 69 -84 69 -84 60 -77 c 128,-1,19
 51 -70 51 -70 44 -60 c 1,20,21
 70 -41 70 -41 79.5 -23.5 c 128,-1,22
 89 -6 89 -6 92 18 c 2,23,-1
 138 377 l 1,24,-1
 43 377 l 1,25,-1
 43 412 l 1,26,-1
 142 412 l 1,27,-1
 153 493 l 2,28,29
 160 552 160 552 173 591.5 c 128,-1,30
 186 631 186 631 210.5 655 c 128,-1,31
 235 679 235 679 272.5 689.5 c 128,-1,32
 310 700 310 700 365 700 c 2,33,-1
 390 700 l 1,0,-1
EndSplineSet
EndChar
StartChar: circumflex
Encoding: 710 710 203
Width: 490
VWidth: 1467
Flags: W
HStem: 697 160<103 244 244 244>
VStem: 103 283<697 697 697 697>
Fore
103 697 m 1,0,1
 114 704 114 704 135.5 721.5 c 128,-1,2
 157 739 157 739 178.5 762 c 128,-1,3
 200 785 200 785 218 810 c 128,-1,4
 236 835 236 835 244 857 c 1,5,6
 261 819 261 819 301.5 775 c 128,-1,7
 342 731 342 731 386 697 c 1,8,-1
 323 697 l 1,9,10
 292 720 292 720 273 746.5 c 128,-1,11
 254 773 254 773 245 789 c 1,12,13
 238 773 238 773 214.5 744.5 c 128,-1,14
 191 716 191 716 166 697 c 1,15,-1
 103 697 l 1,0,1
EndSplineSet
EndChar
StartChar: caron
Encoding: 711 711 204
Width: 490
VWidth: 1467
Flags: W
HStem: 698 160<245 386 386 386>
VStem: 103 283<858 858 858 858>
Fore
386 858 m 1,0,1
 374 851 374 851 353 834 c 128,-1,2
 332 817 332 817 310.5 794.5 c 128,-1,3
 289 772 289 772 270.5 746 c 128,-1,4
 252 720 252 720 245 698 c 1,5,6
 227 738 227 738 187 781.5 c 128,-1,7
 147 825 147 825 103 858 c 1,8,-1
 150 858 l 1,9,10
 183 835 183 835 210.5 802 c 128,-1,11
 238 769 238 769 244 753 c 1,12,13
 246 760 246 760 256.5 774.5 c 128,-1,14
 267 789 267 789 280 804.5 c 128,-1,15
 293 820 293 820 308.5 835 c 128,-1,16
 324 850 324 850 337 858 c 1,17,-1
 386 858 l 1,0,1
EndSplineSet
EndChar
StartChar: breve
Encoding: 728 728 205
Width: 440
VWidth: 1467
Flags: W
HStem: 616 41<170.821 283.974>
VStem: 63 46<714.392 775> 332 45<714.392 775>
Fore
377 775 m 1,0,1
 377 742 377 742 364.5 713.5 c 128,-1,2
 352 685 352 685 331.5 663 c 128,-1,3
 311 641 311 641 282.5 628.5 c 128,-1,4
 254 616 254 616 220 616 c 0,5,6
 188 616 188 616 158.5 628.5 c 128,-1,7
 129 641 129 641 108.5 663 c 128,-1,8
 88 685 88 685 75.5 713.5 c 128,-1,9
 63 742 63 742 63 775 c 1,10,-1
 109 775 l 1,11,12
 109 725 109 725 140.5 691 c 128,-1,13
 172 657 172 657 220 657 c 256,14,15
 268 657 268 657 300 691 c 128,-1,16
 332 725 332 725 332 775 c 1,17,-1
 377 775 l 1,0,1
EndSplineSet
EndChar
StartChar: dotaccent
Encoding: 729 729 206
Width: 231
VWidth: 1467
Flags: W
HStem: 621 114<97.9574 145.624>
VStem: 73 85<652.757 719.467>
Fore
116 735 m 1,0,1
 134 737 134 737 146 720 c 128,-1,2
 158 703 158 703 158 678 c 0,3,4
 158 654 158 654 146 637.5 c 128,-1,5
 134 621 134 621 116 621 c 0,6,7
 97 621 97 621 84.5 637.5 c 128,-1,8
 72 654 72 654 73 678 c 0,9,10
 73 703 73 703 85.5 720 c 128,-1,11
 98 737 98 737 116 735 c 1,0,1
EndSplineSet
EndChar
StartChar: ring
Encoding: 730 730 207
Width: 403
VWidth: 1467
Flags: W
HStem: 612 25<187.783 220.938> 759 23<162.017 241.271>
VStem: 109 36<669.141 739.893> 261 35<666.222 737.629>
Fore
204 782 m 2,0,1
 242 782 242 782 269 757 c 128,-1,2
 296 732 296 732 296 697 c 256,3,4
 296 662 296 662 269 637 c 128,-1,5
 242 612 242 612 204 612 c 2,6,-1
 202 612 l 2,7,8
 164 612 164 612 136.5 637 c 128,-1,9
 109 662 109 662 109 697 c 0,10,11
 109 734 109 734 136.5 758 c 128,-1,12
 164 782 164 782 202 782 c 2,13,-1
 204 782 l 2,0,1
205 637 m 2,14,15
 216 637 216 637 226 643 c 128,-1,16
 236 649 236 649 244 657.5 c 128,-1,17
 252 666 252 666 256.5 677 c 128,-1,18
 261 688 261 688 261 697 c 0,19,20
 261 715 261 715 243.5 735.5 c 128,-1,21
 226 756 226 756 204 759 c 2,22,-1
 202 759 l 2,23,24
 178 759 178 759 161.5 737 c 128,-1,25
 145 715 145 715 145 697 c 0,26,27
 145 688 145 688 150.5 678 c 128,-1,28
 156 668 156 668 164 659 c 128,-1,29
 172 650 172 650 182 643.5 c 128,-1,30
 192 637 192 637 204 637 c 2,31,-1
 205 637 l 2,14,15
EndSplineSet
EndChar
StartChar: tilde
Encoding: 732 732 209
Width: 316
VWidth: 1467
Flags: W
HStem: 597 37<201.195 258.107> 653 37<61.7613 118.153>
VStem: 19 29<594 633.406>
Fore
305 693 m 1,0,1
 308 650 308 650 284 625 c 128,-1,2
 260 600 260 600 224 597 c 0,3,4
 202 596 202 596 185.5 604 c 128,-1,5
 169 612 169 612 155 623 c 128,-1,6
 141 634 141 634 127.5 643.5 c 128,-1,7
 114 653 114 653 100 653 c 0,8,9
 75 653 75 653 62.5 634 c 128,-1,10
 50 615 50 615 48 594 c 1,11,-1
 19 594 l 1,12,13
 18 632 18 632 39 661 c 128,-1,14
 60 690 60 690 98 690 c 0,15,16
 117 690 117 690 132.5 681 c 128,-1,17
 148 672 148 672 163 661 c 128,-1,18
 178 650 178 650 191.5 642 c 128,-1,19
 205 634 205 634 222 634 c 0,20,21
 246 635 246 635 258.5 650.5 c 128,-1,22
 271 666 271 666 274 693 c 1,23,-1
 305 693 l 1,0,1
EndSplineSet
EndChar
StartChar: uni0E01
Encoding: 3585 3585 212
Width: 625
VWidth: 1467
Flags: W
HStem: 0 21G<101 142 480.76 527> 550.5 34.5<142.063 250.758 250.758 263.365 263.365 359.421>
VStem: 101 41<0 337.781> 481 46<0 166.5 166.5 438.197>
Fore
141 546 m 1,0,1
 144 543 144 543 155 534 c 128,-1,2
 166 525 166 525 177.5 515 c 128,-1,3
 189 505 189 505 198.5 496 c 128,-1,4
 208 487 208 487 208 486 c 2,5,-1
 208 442 l 1,6,7
 202 437 202 437 195 432.5 c 128,-1,8
 188 428 188 428 183 423 c 0,9,10
 142 377 142 377 142 308 c 2,11,-1
 142 0 l 1,12,-1
 101 0 l 1,13,-1
 101 267 l 2,14,15
 98 323 98 323 113 381 c 128,-1,16
 128 439 128 439 175 471 c 1,17,-1
 95 544 l 1,18,-1
 95 585 l 1,19,-1
 201 585 l 2,20,21
 267 585 267 585 325.5 582.5 c 128,-1,22
 384 580 384 580 429 557 c 128,-1,23
 474 534 474 534 500.5 481 c 128,-1,24
 527 428 527 428 527 330 c 2,25,-1
 527 0 l 1,26,-1
 481 0 l 1,27,-1
 477 333 l 2,28,29
 478 398 478 398 462.5 439.5 c 128,-1,30
 447 481 447 481 421 504.5 c 128,-1,31
 395 528 395 528 360.5 538.5 c 128,-1,32
 326 549 326 549 288.5 550.5 c 128,-1,33
 251 552 251 552 213 549.5 c 128,-1,34
 175 547 175 547 141 546 c 1,0,1
EndSplineSet
EndChar
StartChar: uni0E02
Encoding: 3586 3586 213
Width: 492
VWidth: 1467
Flags: W
HStem: -7.5 37<198.629 267.042> 564 20G<352 398>
VStem: 82 44<101.5 191.656> 352 46<87.0356 272.846 272.846 480.123 480.123 584>
Fore
398 584 m 1,0,-1
 398 148 l 2,1,2
 398 97 398 97 374.5 63 c 128,-1,3
 351 29 351 29 315.5 11.5 c 128,-1,4
 280 -6 280 -6 240 -7.5 c 128,-1,5
 200 -9 200 -9 164 7 c 0,6,7
 131 23 131 23 106.5 57 c 128,-1,8
 82 91 82 91 82 142 c 0,9,10
 82 176 82 176 89.5 201.5 c 128,-1,11
 97 227 97 227 108.5 248.5 c 128,-1,12
 120 270 120 270 127.5 279 c 0,13,-1
 164 323 l 0,14,15
 179 342 179 342 192 360.5 c 128,-1,16
 205 379 205 379 214 402 c 1,17,18
 204 386 204 386 191 376.5 c 128,-1,19
 178 367 178 367 164 362 c 256,20,21
 151 358 151 358 135 362 c 0,22,23
 104 370 104 370 91.5 408 c 128,-1,24
 79 446 79 446 91 493 c 0,25,26
 100 528 100 528 120.5 552.5 c 128,-1,27
 141 577 141 577 164 584 c 0,28,29
 178 588 178 588 194 585 c 0,30,31
 214 580 214 580 226.5 560.5 c 128,-1,32
 239 541 239 541 244 515 c 0,33,34
 257 467 257 467 252.5 433 c 128,-1,35
 248 399 248 399 235 372 c 128,-1,36
 222 345 222 345 202 322 c 128,-1,37
 182 299 182 299 164 276 c 0,38,39
 148 252 148 252 137 225 c 128,-1,40
 126 198 126 198 126 161 c 0,41,42
 126 126 126 126 137 99.5 c 128,-1,43
 148 73 148 73 164 57 c 0,44,45
 188 34 188 34 221 29.5 c 128,-1,46
 254 25 254 25 282.5 39 c 128,-1,47
 311 53 311 53 331.5 86 c 128,-1,48
 352 119 352 119 352 170 c 0,49,50
 351 268 351 268 351.5 376 c 128,-1,51
 352 484 352 484 352 584 c 1,52,-1
 398 584 l 1,0,-1
204 462 m 0,53,54
 208 475 208 475 209.5 490.5 c 128,-1,55
 211 506 211 506 209 521 c 128,-1,56
 207 536 207 536 201 547 c 128,-1,57
 195 558 195 558 185 560 c 0,58,59
 175 565 175 565 164 556 c 0,60,61
 151 546 151 546 141 524.5 c 128,-1,62
 131 503 131 503 125 484 c 0,63,64
 122 471 122 471 120.5 455.5 c 128,-1,65
 119 440 119 440 120.5 425.5 c 128,-1,66
 122 411 122 411 128 400 c 128,-1,67
 134 389 134 389 144 386 c 0,68,69
 154 384 154 384 164 392 c 0,70,71
 178 402 178 402 189 423.5 c 128,-1,72
 200 445 200 445 204 462 c 0,53,54
EndSplineSet
EndChar
StartChar: uni0E03
Encoding: 3587 3587 214
Width: 569
VWidth: 1467
Flags: W
HStem: -6.5 36.5<261.298 371.187> 495 20G<246.5 255> 573 20G<275.615 311.333 433 478>
VStem: 156 44<86.9053 233.739> 204 35<441.953 461 470 480.877 480.877 491.65 491.65 499 499 514.625> 295 35<418 456.239> 433 45<95.4886 262.638 262.638 278.665 278.665 480.877 480.877 486.335 486.335 590>
Fore
268 528 m 1,0,-1
 279 593 l 1,1,-1
 307 593 l 1,2,-1
 320 533 l 2,3,4
 333 484 333 484 330 449 c 128,-1,5
 327 414 327 414 314 386 c 128,-1,6
 301 358 301 358 281 335.5 c 128,-1,7
 261 313 261 313 242.5 288.5 c 128,-1,8
 224 264 224 264 212 234.5 c 128,-1,9
 200 205 200 205 200 166 c 0,10,11
 200 120 200 120 217.5 90 c 128,-1,12
 235 60 235 60 260.5 44.5 c 128,-1,13
 286 29 286 29 316 30 c 128,-1,14
 346 31 346 31 372 47 c 128,-1,15
 398 63 398 63 415.5 94.5 c 128,-1,16
 433 126 433 126 433 175 c 0,17,18
 431 276 431 276 432 382.5 c 128,-1,19
 433 489 433 489 433 590 c 1,20,-1
 478 590 l 1,21,22
 478 477 478 477 479 372 c 128,-1,23
 480 267 480 267 478 153 c 0,24,25
 478 101 478 101 454 66 c 128,-1,26
 430 31 430 31 394 12.5 c 128,-1,27
 358 -6 358 -6 317 -6.5 c 128,-1,28
 276 -7 276 -7 240 9 c 128,-1,29
 204 25 204 25 180 59.5 c 128,-1,30
 156 94 156 94 156 147 c 256,31,32
 156 200 156 200 172.5 235 c 128,-1,33
 189 270 189 270 212 298.5 c 128,-1,34
 235 327 235 327 258.5 355 c 128,-1,35
 282 383 282 383 295 418 c 1,36,37
 298 452 298 452 284.5 469.5 c 128,-1,38
 271 487 271 487 255 500 c 1,39,-1
 245 515 l 1,40,41
 248 487 248 487 239 461 c 0,42,43
 226 414 226 414 195 386.5 c 128,-1,44
 164 359 164 359 132 367 c 0,45,46
 101 376 101 376 88 415.5 c 128,-1,47
 75 455 75 455 87 502 c 256,48,49
 98 549 98 549 129.5 576 c 128,-1,50
 161 603 161 603 194 596 c 0,51,52
 213 590 213 590 236.5 567 c 128,-1,53
 260 544 260 544 268 528 c 1,0,-1
122 493 m 0,54,55
 117 480 117 480 115.5 463.5 c 128,-1,56
 114 447 114 447 116.5 432.5 c 128,-1,57
 119 418 119 418 124 407 c 128,-1,58
 129 396 129 396 141 393 c 1,59,60
 151 389 151 389 160.5 395.5 c 128,-1,61
 170 402 170 402 179 414.5 c 128,-1,62
 188 427 188 427 194.5 441.5 c 128,-1,63
 201 456 201 456 204 470 c 0,64,65
 208 483 208 483 209.5 499 c 128,-1,66
 211 515 211 515 209 529.5 c 128,-1,67
 207 544 207 544 201 555 c 128,-1,68
 195 566 195 566 185 569 c 0,69,70
 175 574 175 574 164.5 566.5 c 128,-1,71
 154 559 154 559 146 547.5 c 128,-1,72
 138 536 138 536 131.5 521 c 128,-1,73
 125 506 125 506 122 493 c 0,54,55
EndSplineSet
EndChar
StartChar: uni0E04
Encoding: 3588 3588 215
Width: 670
VWidth: 1467
Flags: W
HStem: 213 36<288.907 315.062 315.062 315.969 316.031 346.047> 333 34.5<290.953 309.515 309.515 343.948> 558 32<289.475 392.922>
VStem: 104 44<3 228.123 299 477.669> 534 44<3 478.185>
Fore
512 552 m 0,0,1
 547 531 547 531 562.5 501 c 128,-1,2
 578 471 578 471 578 428 c 2,3,-1
 578 3 l 1,4,-1
 534 3 l 1,5,-1
 534 415 l 2,6,7
 534 453 534 453 521.5 479 c 128,-1,8
 509 505 509 505 477 525 c 0,9,10
 450 541 450 541 414.5 549.5 c 128,-1,11
 379 558 379 558 341.5 558 c 128,-1,12
 304 558 304 558 268 549.5 c 128,-1,13
 232 541 232 541 205 525 c 0,14,15
 172 505 172 505 160 478.5 c 128,-1,16
 148 452 148 452 148 415 c 2,17,-1
 148 299 l 1,18,19
 201 357 201 357 285 365 c 0,20,21
 292 367 292 367 301 367.5 c 128,-1,22
 310 368 310 368 318 367 c 1,23,-1
 324 367 l 2,24,25
 371 364 371 364 403.5 339.5 c 128,-1,26
 436 315 436 315 433 283 c 0,27,28
 430 252 430 252 397 231.5 c 128,-1,29
 364 211 364 211 318 213 c 0,30,31
 317 213 317 213 316 213.5 c 128,-1,32
 315 214 315 214 314 214 c 0,33,34
 270 217 270 217 238.5 239 c 128,-1,35
 207 261 207 261 204 291 c 1,36,-1
 194 280 l 2,37,38
 173 257 173 257 160.5 229 c 128,-1,39
 148 201 148 201 148 166 c 2,40,-1
 148 3 l 1,41,-1
 104 3 l 1,42,-1
 104 431 l 2,43,44
 104 468 104 468 121 500.5 c 128,-1,45
 138 533 138 533 170 552 c 256,46,47
 202 571 202 571 247.5 580.5 c 128,-1,48
 293 590 293 590 341 590 c 128,-1,49
 389 590 389 590 434.5 580.5 c 128,-1,50
 480 571 480 571 512 552 c 0,0,1
318 333 m 2,51,52
 305 333 305 333 290.5 331.5 c 128,-1,53
 276 330 276 330 262.5 325.5 c 128,-1,54
 249 321 249 321 239.5 314 c 128,-1,55
 230 307 230 307 229 296 c 256,56,57
 227 286 227 286 236 277 c 128,-1,58
 245 268 245 268 258 262.5 c 128,-1,59
 271 257 271 257 286.5 253 c 128,-1,60
 302 249 302 249 315 249 c 0,61,62
 317 249 317 249 318 248 c 1,63,64
 332 248 332 248 346.5 250 c 128,-1,65
 361 252 361 252 374 256.5 c 128,-1,66
 387 261 387 261 396.5 268.5 c 128,-1,67
 406 276 406 276 408 286 c 256,68,69
 409 296 409 296 400.5 304.5 c 128,-1,70
 392 313 392 313 378.5 318.5 c 128,-1,71
 365 324 365 324 350 328 c 128,-1,72
 335 332 335 332 321 333 c 2,73,-1
 318 333 l 2,51,52
EndSplineSet
EndChar
StartChar: uni0E05
Encoding: 3589 3589 216
Width: 674
VWidth: 1467
Flags: W
HStem: 0 21G<104 148 538 582> 224 36<293.953 352.016> 342 35<296.953 346.529> 568 20G<275 298.5 388 412.5>
VStem: 104 44<0 237.608 308 482.669> 538 44<0 443.692>
Fore
516 553 m 0,0,1
 547 534 547 534 564.5 499 c 128,-1,2
 582 464 582 464 582 425 c 2,3,-1
 582 0 l 1,4,-1
 538 0 l 1,5,-1
 538 408 l 2,6,7
 538 442 538 442 526.5 471 c 128,-1,8
 515 500 515 500 486 519 c 0,9,10
 471 530 471 530 452.5 535 c 128,-1,11
 434 540 434 540 414 544 c 1,12,-1
 345 445 l 1,13,-1
 277 543 l 1,14,15
 257 538 257 538 239.5 533 c 128,-1,16
 222 528 222 528 208 518 c 0,17,18
 148 480 148 480 148 415 c 2,19,-1
 148 308 l 1,20,21
 175 337 175 337 214.5 355.5 c 128,-1,22
 254 374 254 374 301 377 c 2,23,-1
 324 377 l 1,24,-1
 330 377 l 2,25,26
 377 374 377 374 410 349 c 128,-1,27
 443 324 443 324 440 292 c 0,28,29
 437 263 437 263 404 242.5 c 128,-1,30
 371 222 371 222 324 224 c 2,31,-1
 320 224 l 2,32,33
 273 227 273 227 241.5 250.5 c 128,-1,34
 210 274 210 274 211 305 c 1,35,36
 202 298 202 298 194 288 c 0,37,38
 173 267 173 267 160.5 238.5 c 128,-1,39
 148 210 148 210 148 175 c 2,40,-1
 148 0 l 1,41,-1
 104 0 l 1,42,-1
 104 431 l 2,43,44
 104 470 104 470 124.5 502 c 128,-1,45
 145 534 145 534 178 553 c 0,46,47
 202 568 202 568 230 576 c 128,-1,48
 258 584 258 584 292 588 c 1,49,50
 305 566 305 566 317.5 544 c 128,-1,51
 330 522 330 522 345 500 c 1,52,53
 357 524 357 524 369 544.5 c 128,-1,54
 381 565 381 565 395 588 c 1,55,56
 430 584 430 584 461 576 c 128,-1,57
 492 568 492 568 516 553 c 0,0,1
324 342 m 2,58,59
 311 342 311 342 296.5 340.5 c 128,-1,60
 282 339 282 339 268.5 334.5 c 128,-1,61
 255 330 255 330 246.5 322.5 c 128,-1,62
 238 315 238 315 236 305 c 256,63,64
 235 295 235 295 243.5 287 c 128,-1,65
 252 279 252 279 265.5 273 c 128,-1,66
 279 267 279 267 293.5 263.5 c 128,-1,67
 308 260 308 260 321 260 c 2,68,-1
 324 260 l 2,69,70
 337 260 337 260 352.5 261.5 c 128,-1,71
 368 263 368 263 381.5 267 c 128,-1,72
 395 271 395 271 404.5 278.5 c 128,-1,73
 414 286 414 286 415 295 c 0,74,75
 417 305 417 305 408 313 c 128,-1,76
 399 321 399 321 386 327 c 128,-1,77
 373 333 373 333 356.5 336.5 c 128,-1,78
 340 340 340 340 327 342 c 2,79,-1
 324 342 l 2,58,59
EndSplineSet
EndChar
StartChar: uni0E06
Encoding: 3590 3590 217
Width: 720
VWidth: 1467
Flags: W
HStem: -4 38<187.314 224.14 388.998 503.214> 235 38<185.158 221.357> 491 20G<243.5 254> 567 20G<272.825 308.407 587 631>
VStem: 107 46<102.294 166.978> 201 35<437.953 456 465 475.963 475.963 487.294 487.294 494.5 494.5 510.984> 292 38.5<414 453.238> 587 44<102.6 281.7 281.7 588>
Fore
107 135 m 0,0,1
 107 161 107 161 114.5 186 c 128,-1,2
 122 211 122 211 135 230 c 128,-1,3
 148 249 148 249 165.5 261 c 128,-1,4
 183 273 183 273 204 273 c 0,5,6
 223 273 223 273 236 264 c 1,7,8
 239 304 239 304 257 335 c 0,9,10
 267 354 267 354 275 372 c 128,-1,11
 283 390 283 390 292 414 c 1,12,13
 295 447 295 447 282.5 465.5 c 128,-1,14
 270 484 270 484 254 497 c 1,15,-1
 242 511 l 1,16,17
 245 483 245 483 236 456 c 0,18,19
 224 409 224 409 192.5 381.5 c 128,-1,20
 161 354 161 354 129 362 c 0,21,22
 98 371 98 371 85 410.5 c 128,-1,23
 72 450 72 450 84 497 c 0,24,25
 97 544 97 544 127.5 571.5 c 128,-1,26
 158 599 158 599 191 590 c 0,27,28
 200 587 200 587 211.5 579.5 c 128,-1,29
 223 572 223 572 233.5 562.5 c 128,-1,30
 244 553 244 553 252.5 543 c 128,-1,31
 261 533 261 533 266 524 c 1,32,-1
 276 587 l 1,33,-1
 304 587 l 1,34,-1
 317 528 l 2,35,36
 329 490 329 490 330.5 460 c 128,-1,37
 332 430 332 430 326.5 405 c 128,-1,38
 321 380 321 380 316 369.5 c 0,39,-1
 291 318 l 256,40,41
 280 298 280 298 278.5 273 c 128,-1,42
 277 248 277 248 280 222.5 c 128,-1,43
 283 197 283 197 289 174 c 128,-1,44
 295 151 295 151 299 136 c 1,45,46
 310 120 310 120 323.5 103.5 c 128,-1,47
 337 87 337 87 354 72 c 128,-1,48
 371 57 371 57 391 47.5 c 128,-1,49
 411 38 411 38 434 38 c 0,50,51
 496 38 496 38 541.5 75.5 c 128,-1,52
 587 113 587 113 587 188 c 2,53,-1
 587 588 l 1,54,-1
 631 588 l 1,55,56
 631 478 631 478 631 383 c 128,-1,57
 631 288 631 288 629 180 c 0,58,59
 629 136 629 136 614 101.5 c 128,-1,60
 599 67 599 67 574.5 44 c 128,-1,61
 550 21 550 21 518.5 10 c 128,-1,62
 487 -1 487 -1 452 -1 c 0,63,64
 390 -1 390 -1 350.5 27.5 c 128,-1,65
 311 56 311 56 286 87 c 1,66,67
 277 48 277 48 255 22 c 128,-1,68
 233 -4 233 -4 204 -4 c 0,69,70
 185 -4 185 -4 167.5 7.5 c 128,-1,71
 150 19 150 19 136.5 38 c 128,-1,72
 123 57 123 57 115 82 c 128,-1,73
 107 107 107 107 107 135 c 0,0,1
119 487 m 0,74,75
 114 474 114 474 113 458.5 c 128,-1,76
 112 443 112 443 114 428.5 c 128,-1,77
 116 414 116 414 122 402 c 128,-1,78
 128 390 128 390 138 387 c 256,79,80
 148 384 148 384 157.5 391 c 128,-1,81
 167 398 167 398 176 410.5 c 128,-1,82
 185 423 185 423 191.5 437.5 c 128,-1,83
 198 452 198 452 201 465 c 0,84,85
 205 478 205 478 206.5 494.5 c 128,-1,86
 208 511 208 511 206 525.5 c 128,-1,87
 204 540 204 540 198 551 c 128,-1,88
 192 562 192 562 182 565 c 0,89,90
 172 569 172 569 162.5 562 c 128,-1,91
 153 555 153 555 144 543 c 128,-1,92
 135 531 135 531 128.5 515.5 c 128,-1,93
 122 500 122 500 119 487 c 0,74,75
153 135 m 256,94,95
 153 122 153 122 156.5 104.5 c 128,-1,96
 160 87 160 87 166.5 70.5 c 128,-1,97
 173 54 173 54 182.5 44 c 128,-1,98
 192 34 192 34 204 34 c 256,99,100
 216 34 216 34 224 45 c 128,-1,101
 232 56 232 56 237 71.5 c 128,-1,102
 242 87 242 87 244 104.5 c 128,-1,103
 246 122 246 122 246 135 c 256,104,105
 246 148 246 148 244 165 c 128,-1,106
 242 182 242 182 236 197.5 c 128,-1,107
 230 213 230 213 222 224 c 128,-1,108
 214 235 214 235 201 235 c 256,109,110
 188 235 188 235 179 224 c 128,-1,111
 170 213 170 213 164 197.5 c 128,-1,112
 158 182 158 182 155.5 165 c 128,-1,113
 153 148 153 148 153 135 c 256,94,95
EndSplineSet
EndChar
StartChar: uni0E07
Encoding: 3591 3591 218
Width: 507
VWidth: 1467
Flags: W
HStem: -4 21G<248.896 281>
VStem: 374 44<95.3964 387> 381.5 36.5<467.949 553.248>
Fore
367 585 m 0,0,1
 392 578 392 578 405 554 c 128,-1,2
 418 530 418 530 418 496 c 2,3,-1
 418 163 l 2,4,5
 418 116 418 116 395.5 80.5 c 128,-1,6
 373 45 373 45 337 23 c 0,7,8
 304 3 304 3 258 -4 c 1,9,-1
 75 398 l 1,10,-1
 113 417 l 1,11,12
 154 332 154 332 199.5 233 c 128,-1,13
 245 134 245 134 286 43 c 1,14,15
 317 56 317 56 337 76 c 0,16,17
 374 113 374 113 374 179 c 2,18,-1
 374 387 l 1,19,20
 357 370 357 370 337 364 c 0,21,22
 321 359 321 359 307 364 c 0,23,24
 276 371 276 371 263.5 409 c 128,-1,25
 251 447 251 447 263 493 c 0,26,27
 271 528 271 528 292 552.5 c 128,-1,28
 313 577 313 577 337 584 c 0,29,30
 349 588 349 588 367 585 c 0,0,1
377 464 m 0,31,32
 384 489 384 489 381.5 521 c 128,-1,33
 379 553 379 553 358 560 c 0,34,35
 348 565 348 565 337 556 c 0,36,37
 323 546 323 546 312 524.5 c 128,-1,38
 301 503 301 503 296 486 c 0,39,40
 293 472 293 472 292 457 c 128,-1,41
 291 442 291 442 292 427 c 128,-1,42
 293 412 293 412 299 401 c 128,-1,43
 305 390 305 390 315 387 c 0,44,45
 327 384 327 384 337 393 c 0,46,47
 351 403 351 403 362 424.5 c 128,-1,48
 373 446 373 446 377 464 c 0,31,32
EndSplineSet
EndChar
StartChar: uni0E08
Encoding: 3592 3592 219
Width: 607
VWidth: 1467
Flags: W
HStem: -6 21G<330 388> 549 35<231.336 333.408>
VStem: 311.5 54<226.469 256 256 264.296> 330 40.5<31 66.8462 66.8462 169.955> 468 47<127.5 473.701>
Fore
450 547 m 0,0,1
 515 508 515 508 515 436 c 2,2,-1
 515 141 l 1,3,4
 513.5 127.5 l 2,5,6
 512 114 512 114 505.5 96 c 128,-1,7
 499 78 499 78 485.5 58 c 128,-1,8
 472 38 472 38 446 23 c 0,9,10
 408 4 408 4 368 -6 c 1,11,-1
 330 -6 l 1,12,-1
 330 188 l 1,13,14
 323 178 323 178 319 172.5 c 128,-1,15
 315 167 315 167 295 161 c 0,16,17
 283 158 283 158 266 166 c 0,18,19
 244 175 244 175 222 197.5 c 128,-1,20
 200 220 200 220 191 254 c 0,21,22
 179 298 179 298 192 337 c 128,-1,23
 205 376 205 376 236 383 c 0,24,25
 252 387 252 387 266 383 c 0,26,27
 286 377 286 377 303 362.5 c 128,-1,28
 320 348 320 348 330 329 c 0,29,30
 345 304 345 304 353 265.5 c 128,-1,31
 361 227 361 227 365.5 185.5 c 128,-1,32
 370 144 370 144 370.5 103 c 128,-1,33
 371 62 371 62 371 31 c 1,34,35
 414 47 414 47 441 72.5 c 128,-1,36
 468 98 468 98 468 141 c 2,37,-1
 468 415 l 2,38,39
 468 449 468 449 455.5 474.5 c 128,-1,40
 443 500 443 500 414 518 c 0,41,42
 384 534 384 534 345.5 543 c 128,-1,43
 307 552 307 552 266 549 c 0,44,45
 232 547 232 547 199.5 540 c 128,-1,46
 167 533 167 533 144 518 c 0,47,48
 135 512 135 512 127.5 505.5 c 128,-1,49
 120 499 120 499 113 493 c 1,50,-1
 66 508 l 1,51,52
 72 519 72 519 83.5 528 c 128,-1,53
 95 537 95 537 109 547 c 1,54,55
 138 563 138 563 180 572.5 c 128,-1,56
 222 582 222 582 266 584 c 0,57,58
 317 585 317 585 365.5 576.5 c 128,-1,59
 414 568 414 568 450 547 c 0,0,1
288 186 m 0,60,61
 298 189 298 189 303 200 c 128,-1,62
 308 211 308 211 310.5 226 c 128,-1,63
 313 241 313 241 311.5 256 c 128,-1,64
 310 271 310 271 307 285 c 0,65,66
 301 302 301 302 290.5 322.5 c 128,-1,67
 280 343 280 343 266 354 c 0,68,69
 255 362 255 362 244 359 c 0,70,71
 233 357 233 357 228 346 c 128,-1,72
 223 335 223 335 221 321 c 128,-1,73
 219 307 219 307 220.5 291.5 c 128,-1,74
 222 276 222 276 224 263 c 0,75,76
 230 244 230 244 240.5 223 c 128,-1,77
 251 202 251 202 266 191 c 1,78,79
 279 183 279 183 288 186 c 0,60,61
EndSplineSet
EndChar
StartChar: uni0E09
Encoding: 3593 3593 220
Width: 738
VWidth: 1467
Flags: W
HStem: -3.5 44.5<310.462 428.188> -1 33<574.275 619.597> 195 34<585.359 625.494> 549 50<248 371.443>
VStem: 214 46<93.9141 144 144 148.876> 524 48<220 227 227 277.212 277.212 391.788 391.788 476.733> 640 38<64.7847 163.723>
Fore
104 286 m 0,0,1
 116 333 116 333 147.5 361 c 128,-1,2
 179 389 179 389 210 380 c 0,3,4
 241 373 241 373 254.5 337 c 128,-1,5
 268 301 268 301 260 255 c 1,6,-1
 260 178 l 2,7,8
 260 112 260 112 295 76 c 128,-1,9
 330 40 330 40 381 41 c 0,10,11
 403 43 403 43 429 56 c 128,-1,12
 455 69 455 69 475.5 93 c 128,-1,13
 496 117 496 117 510 151 c 128,-1,14
 524 185 524 185 524 227 c 2,15,-1
 524 424 l 2,16,17
 524 453 524 453 510.5 477.5 c 128,-1,18
 497 502 497 502 470 518 c 0,19,20
 443 533 443 533 400 541 c 128,-1,21
 357 549 357 549 310 549 c 128,-1,22
 263 549 263 549 219 541 c 128,-1,23
 175 533 175 533 148 518 c 1,24,25
 141 511 141 511 132 505.5 c 128,-1,26
 123 500 123 500 117 493 c 1,27,-1
 69 521 l 1,28,29
 76 533 76 533 88 541.5 c 128,-1,30
 100 550 100 550 114 559 c 0,31,32
 147 578 147 578 199.5 588.5 c 128,-1,33
 252 599 252 599 309.5 599 c 128,-1,34
 367 599 367 599 420.5 588.5 c 128,-1,35
 474 578 474 578 508 559 c 0,36,37
 571 518 571 518 572 449 c 0,38,39
 575 393 575 393 574.5 334.5 c 128,-1,40
 574 276 574 276 572 220 c 1,41,42
 585 229 585 229 602 229 c 0,43,44
 632 229 632 229 655 195 c 128,-1,45
 678 161 678 161 678 114 c 0,46,47
 678 66 678 66 655 32.5 c 128,-1,48
 632 -1 632 -1 602 -1 c 0,49,50
 569 -1 569 -1 546.5 32.5 c 128,-1,51
 524 66 524 66 524 113 c 1,52,53
 508 53 508 53 461.5 23.5 c 128,-1,54
 415 -6 415 -6 364 -3.5 c 128,-1,55
 313 -1 313 -1 269.5 34.5 c 128,-1,56
 226 70 226 70 214 144 c 0,57,58
 214 145 214 145 213.5 149 c 0,59,-1
 210 167 l 1,60,61
 182 144 182 144 150 151 c 0,62,63
 117 160 117 160 104 199.5 c 128,-1,64
 91 239 91 239 104 286 c 0,0,1
559 114 m 0,65,66
 559 89 559 89 570.5 61.5 c 128,-1,67
 582 34 582 34 602 32 c 0,68,69
 610 32 610 32 617.5 40 c 128,-1,70
 625 48 625 48 630 60.5 c 128,-1,71
 635 73 635 73 637.5 88 c 128,-1,72
 640 103 640 103 640 114 c 0,73,74
 640 138 640 138 629 166 c 128,-1,75
 618 194 618 194 600 195 c 0,76,77
 590 195 590 195 582.5 187 c 128,-1,78
 575 179 575 179 570 166.5 c 128,-1,79
 565 154 565 154 562 140 c 128,-1,80
 559 126 559 126 559 114 c 0,65,66
139 277 m 0,81,82
 135 264 135 264 133.5 248 c 128,-1,83
 132 232 132 232 134 217 c 128,-1,84
 136 202 136 202 141.5 190.5 c 128,-1,85
 147 179 147 179 158 176 c 128,-1,86
 169 173 169 173 178.5 179.5 c 128,-1,87
 188 186 188 186 196.5 198.5 c 128,-1,88
 205 211 205 211 212 226 c 128,-1,89
 219 241 219 241 222 254 c 256,90,91
 224 267 224 267 225.5 283 c 128,-1,92
 227 299 227 299 225 314 c 128,-1,93
 223 329 223 329 218 340.5 c 128,-1,94
 213 352 213 352 202 355 c 256,95,96
 192 358 192 358 182 351.5 c 128,-1,97
 172 345 172 345 163 332.5 c 128,-1,98
 154 320 154 320 148 305.5 c 128,-1,99
 142 291 142 291 139 277 c 0,81,82
EndSplineSet
EndChar
StartChar: uni0E0A
Encoding: 3594 3594 221
Width: 517
VWidth: 1467
Flags: W
HStem: -5.5 37<209.021 279.145>
VStem: 91 44<103.779 193.164> 361 47<88.0359 324.185 324.185 345.642 345.642 349 349 359> 373 55<590.926 625>
Fore
428 625 m 1,0,1
 427 602 427 602 422 575.5 c 128,-1,2
 417 549 417 549 406.5 524.5 c 128,-1,3
 396 500 396 500 377.5 479.5 c 128,-1,4
 359 459 359 459 332 446 c 1,5,6
 352 424 352 424 366 410 c 128,-1,7
 380 396 380 396 389 384.5 c 128,-1,8
 398 373 398 373 402 359 c 128,-1,9
 406 345 406 345 408 321 c 2,10,-1
 408 150 l 2,11,12
 408 98 408 98 384.5 64.5 c 128,-1,13
 361 31 361 31 326 13.5 c 128,-1,14
 291 -4 291 -4 250.5 -5.5 c 128,-1,15
 210 -7 210 -7 175 9 c 0,16,17
 138 25 138 25 114.5 58.5 c 128,-1,18
 91 92 91 92 91 144 c 0,19,20
 91 178 91 178 98.5 203.5 c 128,-1,21
 106 229 106 229 118.5 250 c 128,-1,22
 131 271 131 271 138 280 c 0,23,-1
 175 324 l 0,24,25
 189 343 189 343 202.5 361.5 c 128,-1,26
 216 380 216 380 224 403 c 1,27,28
 202 373 202 373 175 364 c 0,29,30
 158 359 158 359 144 364 c 0,31,32
 113 371 113 371 100.5 409 c 128,-1,33
 88 447 88 447 100 494 c 0,34,35
 109 530 109 530 129.5 554 c 128,-1,36
 150 578 150 578 175 585 c 0,37,38
 186 590 186 590 204 587 c 0,39,40
 224 581 224 581 236.5 562 c 128,-1,41
 249 543 249 543 254 516 c 0,42,43
 260 465 260 465 255.5 430 c 128,-1,44
 251 395 251 395 238.5 369 c 128,-1,45
 226 343 226 343 209 322 c 128,-1,46
 192 301 192 301 175 277 c 0,47,48
 158 254 158 254 146.5 227 c 128,-1,49
 135 200 135 200 135 163 c 0,50,51
 135 128 135 128 146 101.5 c 128,-1,52
 157 75 157 75 175 59 c 0,53,54
 198 37 198 37 230.5 31.5 c 128,-1,55
 263 26 263 26 292 40 c 128,-1,56
 321 54 321 54 341 87 c 128,-1,57
 361 120 361 120 361 172 c 0,58,59
 361 202 361 202 361 217 c 128,-1,60
 361 232 361 232 361 238 c 128,-1,61
 361 244 361 244 361 244.5 c 128,-1,62
 361 245 361 245 361 249.5 c 128,-1,63
 361 254 361 254 361 264 c 128,-1,64
 361 274 361 274 361 299 c 0,65,66
 361 330 361 330 357.5 349 c 128,-1,67
 354 368 354 368 344.5 383 c 128,-1,68
 335 398 335 398 319.5 412.5 c 128,-1,69
 304 427 304 427 280 450 c 1,70,71
 327 470 327 470 348.5 513 c 128,-1,72
 370 556 370 556 373 625 c 1,73,-1
 428 625 l 1,0,1
214 464 m 0,74,75
 219 477 219 477 220.5 492.5 c 128,-1,76
 222 508 222 508 219.5 522.5 c 128,-1,77
 217 537 217 537 211 548 c 128,-1,78
 205 559 205 559 195 562 c 0,79,80
 185 566 185 566 175 558 c 0,81,82
 160 547 160 547 149 526 c 128,-1,83
 138 505 138 505 134 486 c 0,84,85
 131 472 131 472 129.5 457 c 128,-1,86
 128 442 128 442 129.5 427 c 128,-1,87
 131 412 131 412 136 401 c 128,-1,88
 141 390 141 390 151 387 c 0,89,90
 164 384 164 384 175 393 c 0,91,92
 188 403 188 403 199 424.5 c 128,-1,93
 210 446 210 446 214 464 c 0,74,75
EndSplineSet
EndChar
